<svg xmlns="http://www.w3.org/2000/svg" width="32" height="32" fill="none" viewBox="0 0 32 32">
  <path fill="#1B8EF2" d="M15.75 11.844a3.906 3.906 0 1 0 0 7.813 3.906 3.906 0 0 0 0-7.813Zm15.64-3.859a10.286 10.286 0 0 0-.662-3.56A6.3 6.3 0 0 0 27.074.773a10.285 10.285 0 0 0-3.56-.662C21.484 0 20.885 0 15.75 0s-5.733 0-7.765.11a10.285 10.285 0 0 0-3.56.662A6.3 6.3 0 0 0 .773 4.426a10.285 10.285 0 0 0-.662 3.56C0 10.016 0 10.615 0 15.75s0 5.733.11 7.765c.017 1.22.24 2.43.662 3.575a6.2 6.2 0 0 0 1.433 2.205 6.127 6.127 0 0 0 2.22 1.433c1.139.43 2.344.653 3.56.662 2.032.11 2.63.11 7.765.11 5.134 0 5.733 0 7.765-.11a10.287 10.287 0 0 0 3.56-.662 6.13 6.13 0 0 0 2.22-1.433 6.206 6.206 0 0 0 1.433-2.205c.43-1.144.653-2.354.662-3.575.11-2.032.11-2.63.11-7.765 0-5.134 0-5.733-.11-7.765Zm-4 12.6a9.023 9.023 0 0 1-.615 2.835 6.08 6.08 0 0 1-3.355 3.355 9.026 9.026 0 0 1-2.85.551h-9.64a9.026 9.026 0 0 1-2.85-.551 5.528 5.528 0 0 1-2.064-1.354 5.528 5.528 0 0 1-1.291-2 8.648 8.648 0 0 1-.535-2.851v-9.64a8.647 8.647 0 0 1 .535-2.85A5.528 5.528 0 0 1 6.08 6.016a5.654 5.654 0 0 1 2-1.291 9.025 9.025 0 0 1 2.85-.551h9.64a9.025 9.025 0 0 1 2.85.551 5.51 5.51 0 0 1 2.063 1.355 5.528 5.528 0 0 1 1.292 2c.336.914.523 1.877.551 2.85v4.82c0 3.244.11 3.575.063 4.82v.015ZM24.87 8.867a3.75 3.75 0 0 0-2.222-2.22 6.3 6.3 0 0 0-2.173-.347h-9.45a6.3 6.3 0 0 0-2.174.41 3.749 3.749 0 0 0-2.22 2.141 6.725 6.725 0 0 0-.331 2.174v9.45c.016.742.154 1.477.41 2.173a3.75 3.75 0 0 0 2.22 2.221c.672.247 1.38.386 2.095.41h9.45a6.298 6.298 0 0 0 2.173-.41 3.75 3.75 0 0 0 2.221-2.22 6.313 6.313 0 0 0 .41-2.174v-9.45c0-.744-.139-1.48-.41-2.174v.016Zm-9.12 12.9a6 6 0 0 1-6-6.017 6.016 6.016 0 1 1 6 6.017Zm6.3-10.852a1.417 1.417 0 0 1 0-2.82 1.417 1.417 0 0 1 0 2.82Z"/>
</svg>
