<svg xmlns="http://www.w3.org/2000/svg" width="32" height="32" fill="none" viewBox="0 0 32 32">
  <path fill="#1B8EF2" d="M28 0a3.5 3.5 0 0 1 3.5 3.5V28a3.5 3.5 0 0 1-3.5 3.5H3.5A3.5 3.5 0 0 1 0 28V3.5A3.5 3.5 0 0 1 3.5 0H28Zm-.875 27.125V17.85a5.705 5.705 0 0 0-5.705-5.705c-1.488 0-3.22.91-4.06 2.275v-1.943h-4.883v14.648h4.883v-8.628a2.442 2.442 0 0 1 2.433-2.45 2.45 2.45 0 0 1 2.45 2.45v8.628h4.882ZM6.79 9.73a2.94 2.94 0 0 0 2.94-2.94 2.95 2.95 0 0 0-2.94-2.958A2.957 2.957 0 0 0 3.832 6.79 2.95 2.95 0 0 0 6.79 9.73m2.433 17.395V12.477H4.375v14.648h4.848Z"/>
</svg>
