<?xml version="1.0" encoding="utf-8"?>
<!-- Generator: Adobe Illustrator 27.5.0, SVG Export Plug-In . SVG Version: 6.00 Build 0)  -->
<svg version="1.1" xmlns="http://www.w3.org/2000/svg" xmlns:xlink="http://www.w3.org/1999/xlink" x="0px" y="0px"
	 viewBox="0 0 500 500" style="enable-background:new 0 0 500 500;" xml:space="preserve">
<g id="Background_Complete">
	<g>
		<g>
			<rect y="382.398" style="fill:#EBEBEB;" width="500" height="0.25"/>
			<path style="fill:#EBEBEB;" d="M237.014,337.8H43.915c-3.147,0-5.708-2.561-5.708-5.708V60.66c0-3.147,2.561-5.708,5.708-5.708
				h193.099c3.146,0,5.707,2.561,5.707,5.708v271.432C242.721,335.239,240.16,337.8,237.014,337.8z M43.915,55.203
				c-3.01,0-5.458,2.448-5.458,5.458v271.432c0,3.01,2.448,5.458,5.458,5.458h193.099c3.009,0,5.457-2.448,5.457-5.458V60.66
				c0-3.009-2.448-5.458-5.457-5.458H43.915z"/>
			<path style="fill:#EBEBEB;" d="M453.31,337.8H260.212c-3.147,0-5.707-2.561-5.707-5.708V60.66c0-3.147,2.561-5.708,5.707-5.708
				H453.31c3.148,0,5.708,2.561,5.708,5.708v271.432C459.019,335.239,456.458,337.8,453.31,337.8z M260.212,55.203
				c-3.009,0-5.457,2.448-5.457,5.458v271.432c0,3.01,2.448,5.458,5.457,5.458H453.31c3.01,0,5.458-2.448,5.458-5.458V60.66
				c0-3.009-2.448-5.458-5.458-5.458H260.212z"/>
		</g>
		<g>
			<rect x="418.333" y="391.922" style="fill:#EBEBEB;" width="31.568" height="0.25"/>
			<rect x="301.926" y="389.208" style="fill:#EBEBEB;" width="33.408" height="0.25"/>
			<rect x="396.586" y="401.208" style="fill:#EBEBEB;" width="62.433" height="0.25"/>
			<rect x="52.459" y="399.528" style="fill:#EBEBEB;" width="19.235" height="0.25"/>
			<rect x="80.597" y="399.528" style="fill:#EBEBEB;" width="30.292" height="0.25"/>
			<rect x="189.578" y="395.306" style="fill:#EBEBEB;" width="54.556" height="0.25"/>
		</g>
	</g>
	<g>
		<g>
			<g>
				<g>
					<g>
						<polygon style="fill:#FFFFFF;" points="272.265,118.13 215.279,175.117 215.279,364.913 415.268,364.913 415.268,118.13 
													"/>
						<path style="fill:#E0E0E0;" d="M415.269,365.451h-199.99c-0.297,0-0.538-0.241-0.538-0.538V175.116
							c0-0.143,0.057-0.279,0.157-0.381l56.986-56.986c0.102-0.101,0.238-0.157,0.381-0.157h143.004
							c0.297,0,0.538,0.241,0.538,0.538v246.783C415.807,365.21,415.565,365.451,415.269,365.451z M215.816,364.375H414.73V118.668
							H272.487l-56.671,56.671V364.375z"/>
					</g>
					<polygon style="fill:#E6E6E6;" points="215.279,175.117 275.07,182.83 272.265,118.13 					"/>
					<g>
						<polygon style="fill:#FFFFFF;" points="215.279,175.117 272.265,175.117 272.265,118.13 						"/>
						<path style="fill:#E0E0E0;" d="M272.265,175.654h-56.986c-0.218,0-0.414-0.131-0.497-0.332
							c-0.083-0.201-0.037-0.433,0.116-0.587l56.986-56.986c0.154-0.153,0.386-0.201,0.587-0.116
							c0.201,0.083,0.332,0.279,0.332,0.497v56.986C272.803,175.413,272.561,175.654,272.265,175.654z M216.577,174.578h55.149
							v-55.149L216.577,174.578z"/>
					</g>
				</g>
				<path style="fill:#F0F0F0;" d="M326.844,257.189l34.015-34.015c3.182-3.182,3.182-8.389,0-11.571
					c-3.182-3.182-8.388-3.182-11.57,0l-34.015,34.015l-34.015-34.015c-3.182-3.182-8.389-3.182-11.57,0
					c-3.182,3.182-3.182,8.389,0,11.571l34.015,34.015l-34.015,34.015c-3.182,3.181-3.182,8.388,0,11.57
					c3.182,3.182,8.388,3.182,11.57,0l34.015-34.015l34.015,34.015c3.182,3.182,8.388,3.182,11.57,0
					c3.182-3.182,3.182-8.389,0-11.57L326.844,257.189z"/>
			</g>
		</g>
		<g>
			<path style="fill:#F0F0F0;" d="M223.029,229.036L223.029,229.036c-3.993,3.993-10.467,3.993-14.46,0l-32.813-32.813l14.46-14.46
				l32.813,32.813C227.022,218.569,227.022,225.043,223.029,229.036z"/>
			<path style="fill:#E0E0E0;" d="M191.553,193.551l-4.009,4.009c-2.886,2.886-7.565,2.886-10.451,0l-1.337-1.337l14.46-14.46
				l1.337,1.337C194.438,185.986,194.438,190.665,191.553,193.551z"/>
			<path style="fill:#E0E0E0;" d="M84.705,90.713c-27.746,27.746-27.746,72.721,0,100.466c27.741,27.741,72.721,27.745,100.466,0
				c27.741-27.741,27.741-72.725,0-100.466C157.426,62.967,112.446,62.972,84.705,90.713z M181.066,187.073
				c-25.474,25.474-66.781,25.474-92.255,0c-25.474-25.474-25.474-66.781,0-92.255s66.781-25.474,92.255,0
				C206.54,120.293,206.54,161.599,181.066,187.073z"/>
			<path style="fill:#E0E0E0;" d="M172.261,180.645c-0.608,0-1.217-0.232-1.681-0.696c-0.928-0.928-0.929-2.433,0-3.361
				c19.652-19.653,19.652-51.631,0-71.284c-0.929-0.929-0.928-2.434,0-3.361c0.928-0.928,2.434-0.928,3.361,0
				c21.506,21.507,21.506,56.5,0,78.007C173.477,180.413,172.869,180.645,172.261,180.645z"/>
			<path style="fill:#E0E0E0;" d="M83.579,155.533c-1.077,0-2.052-0.736-2.311-1.829c-3.499-14.782-0.729-30.495,7.601-43.11
				c0.723-1.098,2.197-1.399,3.293-0.674c1.096,0.723,1.397,2.197,0.674,3.293c-7.609,11.525-10.14,25.885-6.942,39.396
				c0.303,1.277-0.487,2.559-1.765,2.86C83.944,155.513,83.76,155.533,83.579,155.533z"/>
			<path style="fill:#E0E0E0;" d="M97.616,180.645c-0.608,0-1.217-0.232-1.681-0.696c-4.302-4.303-7.834-9.228-10.497-14.637
				c-0.58-1.178-0.096-2.602,1.082-3.182c1.174-0.585,2.602-0.096,3.182,1.082c2.434,4.941,5.662,9.441,9.595,13.375
				c0.929,0.929,0.928,2.434,0,3.361C98.833,180.413,98.225,180.645,97.616,180.645z"/>
		</g>
		<g>
			<path style="fill:#F0F0F0;" d="M190.305,351.465l-0.984-0.984c-2.31-2.31-2.31-6.056,0-8.367l21.709-21.709l9.35,9.35
				l-21.709,21.709C196.361,353.775,192.615,353.775,190.305,351.465z"/>
			<path style="fill:#E0E0E0;" d="M212.34,330.202l-1.756-1.756c-2.097-2.097-2.097-5.497,0-7.594l0.446-0.446l9.35,9.35
				l-0.446,0.446C217.837,332.299,214.437,332.299,212.34,330.202z"/>
			<path style="fill:#F0F0F0;" d="M284.349,269.695l-21.897,21.897c-5.343,5.343-5.343,14.088,0,19.432s14.088,5.343,19.432,0
				l8.857-8.857C292.57,291.113,290.44,279.523,284.349,269.695z"/>
			<path style="fill:#E0E0E0;" d="M292.597,290.822c-1.762-25.311-23.705-44.396-49.015-42.634
				c-25.306,1.762-44.396,23.705-42.634,49.016c1.762,25.306,23.709,44.396,49.015,42.634
				C275.273,338.075,294.359,316.128,292.597,290.822z M204.693,296.943c-1.618-23.239,15.911-43.391,39.149-45.009
				c23.239-1.618,43.391,15.91,45.009,39.149c1.618,23.239-15.911,43.391-39.149,45.009
				C226.463,337.71,206.311,320.181,204.693,296.943z"/>
			<path style="fill:#E0E0E0;" d="M223.376,320.91c-6.891-5.994-11.501-14.611-12.185-24.42c-0.058-0.847,0.58-1.58,1.427-1.64
				c0.846-0.059,1.58,0.579,1.64,1.427c1.248,17.928,16.852,31.498,34.778,30.25c0.846-0.059,1.581,0.581,1.64,1.427
				c0.058,0.847-0.58,1.581-1.427,1.64C239.441,330.276,230.268,326.905,223.376,320.91z"/>
			<path style="fill:#E0E0E0;" d="M278.64,285.988c-0.219-0.191-0.387-0.446-0.471-0.747c-2.393-8.604-8.326-15.931-16.273-20.104
				c-0.755-0.394-1.041-1.324-0.647-2.074c0.394-0.752,1.324-1.041,2.074-0.647c8.699,4.569,15.188,12.587,17.806,22.002
				c0.228,0.818-0.251,1.665-1.068,1.892C279.545,286.453,279.015,286.315,278.64,285.988z"/>
			<path style="fill:#E0E0E0;" d="M243.393,261.125c-0.297-0.258-0.495-0.63-0.525-1.053c-0.058-0.847,0.58-1.581,1.427-1.64
				c3.925-0.273,7.826,0.094,11.596,1.091c0.823,0.22,1.31,1.059,1.093,1.879c-0.217,0.821-1.058,1.31-1.879,1.093
				c-3.443-0.911-7.007-1.245-10.596-0.995C244.085,261.529,243.689,261.384,243.393,261.125z"/>
		</g>
	</g>
</g>
<g id="Background_Simple" style="display:none;">
	<g style="display:inline;">
		<g>
			<path style="fill:#407BFF;" d="M432.343,292.025c-1.332-16.632-19.724-39.953-38.416-46.411
				c-23.867-8.247-38.973,4.819-60.849,2.424c-59.076-6.468-74.824-48.484-98.251-86.567
				C182.908,77.072,39.28,113.196,56.223,223.368c10.185,66.225,79.901,166.647,184.114,100.77
				c45.043-28.474,31.342-44.955,79.126-19.426C338.319,314.787,438.375,367.36,432.343,292.025z"/>
		</g>
		<path style="opacity:0.9;fill:#FFFFFF;" d="M432.343,292.025c-1.332-16.632-19.724-39.953-38.416-46.411
			c-23.867-8.247-38.973,4.819-60.849,2.424c-59.076-6.468-74.824-48.484-98.251-86.567
			C182.908,77.072,39.28,113.196,56.223,223.368c10.185,66.225,79.901,166.647,184.114,100.77
			c45.043-28.474,31.342-44.955,79.126-19.426C338.319,314.787,438.375,367.36,432.343,292.025z"/>
	</g>
</g>
<g id="Shadow_1_">
	<ellipse id="_x3C_Path_x3E__366_" style="fill:#F5F5F5;" cx="250" cy="416.238" rx="193.889" ry="11.323"/>
</g>
<g id="Character_1">
	<g>
		<path style="fill:#263238;" d="M137.822,145.884c-8.061,8.103,5.643,20.697-3.411,26.472c7.385,3.714,33.289,8.423,39.962-6.162
			c-4.889-3.799-1.494-13.147-6.008-22.111C161.664,130.778,129.761,136.667,137.822,145.884z"/>
		<path style="fill:#263238;" d="M138.552,145.67c-2.513-0.422-10.988,3.802-4.684,15.133c5.093,9.153,0.852,9.808,0.852,9.808
			s5.03,0.141,2.029-6.669C133.544,156.67,132.048,149.126,138.552,145.67z"/>
		<path style="fill:#FF8B7B;" d="M197.985,217.614c-0.625-1.194-2.099-1.656-3.294-1.032l-0.595,0.311
			c-0.186,0.097-0.549,0.339-0.841,0.501c-0.305,0.186-0.621,0.361-0.942,0.523c-0.639,0.329-1.302,0.595-1.954,0.826
			c-1.308,0.46-2.61,0.703-3.846,0.723c-1.239,0.03-2.412-0.195-3.55-0.57c-0.713-0.251-1.41-0.586-2.096-0.977
			c-0.857-1.902-1.675-3.821-2.38-5.798c-0.85-2.314-1.596-4.676-2.253-7.066c-0.656-2.389-1.24-4.804-1.723-7.234
			c-0.25-1.213-0.472-2.43-0.67-3.644l-0.267-1.811c-0.091-0.582-0.171-1.234-0.225-1.695l-0.023-0.199
			c-0.314-2.653-2.673-4.605-5.359-4.392c-2.752,0.219-4.805,2.626-4.586,5.378c0.067,0.845,0.132,1.495,0.219,2.212
			c0.08,0.704,0.194,1.39,0.294,2.081c0.221,1.374,0.467,2.737,0.744,4.093c0.564,2.708,1.256,5.384,2.1,8.02
			c0.396,1.324,0.877,2.626,1.328,3.934c0.516,1.29,0.987,2.591,1.561,3.86c1.059,2.567,2.366,5.043,3.714,7.486l0.122,0.223
			c0.346,0.63,0.871,1.172,1.55,1.542c1.834,0.999,3.89,1.751,6.052,2.143c2.167,0.389,4.438,0.322,6.555-0.143
			c2.118-0.492,4.067-1.365,5.753-2.5c0.846-0.565,1.617-1.21,2.343-1.887c0.362-0.34,0.711-0.691,1.047-1.061
			c0.348-0.393,0.613-0.724,1.007-1.245C198.319,219.488,198.436,218.477,197.985,217.614z"/>
		<path style="fill:#FF8B7B;" d="M204.647,208.253l-0.288-0.007c-1.947-0.047-3.803,0.821-5.016,2.343l-4.829,6.06l-0.041,4.142
			c3.876,1.54,8.8-2.615,8.8-2.615l2.489-0.623c1.735-0.434,2.859-2.11,2.603-3.88l-0.352-2.436
			C207.769,209.555,206.347,208.294,204.647,208.253z"/>
		<g>
			<g>
				<path style="fill:#407BFF;" d="M173.227,184.879c3.23,3.318,3.436,13.232,3.436,13.232l-12.928,10.395
					c0,0-5.301-14.692-2.369-19.883C163.856,184.216,169.113,180.652,173.227,184.879z"/>
			</g>
			<g style="opacity:0.2;">
				<path style="fill:#FFFFFF;" d="M173.227,184.879c3.23,3.318,3.436,13.232,3.436,13.232l-12.928,10.395
					c0,0-5.301-14.692-2.369-19.883C163.856,184.216,169.113,180.652,173.227,184.879z"/>
			</g>
		</g>
		<g>
			<polygon style="fill:#FF8B7B;" points="151.852,407.665 158.988,408.453 159.966,389.05 152.83,388.262 			"/>
			<path style="fill:#263238;" d="M160.162,403.786h-8.392c-0.365,0-0.643,0.254-0.668,0.61l-0.559,7.936
				c-0.058,0.823,0.703,1.58,1.548,1.588c3.541,0.032,3.575,0.016,7.986,0.016c2.714,0,8.161,0,11.908,0
				c3.665,0,3.674-3.705,2.089-4.041c-7.107-1.505-9.878-3.58-12.381-5.56C161.244,403.978,160.696,403.786,160.162,403.786z"/>
			<polygon style="opacity:0.2;" points="159.965,389.055 159.462,399.056 152.283,399.065 152.826,388.267 			"/>
			<path style="fill:#263238;" d="M163.82,234.268c0,0,6.17,51.732,6.17,74.732c-4.869,32-8.986,88.158-8.986,88.158l-9.885-0.254
				c0,0-4.49-61.167-0.325-87.57c-5.333-23.667-11.914-78.264-11.914-78.264L163.82,234.268z"/>
			<path style="opacity:0.2;" d="M144.774,248.67c-1.25,0.55-2.38,1.15-3.42,1.78c1.36,10.21,3.15,23.06,5.05,34.92
				C149.644,275.61,147.894,254.15,144.774,248.67z"/>
			<g>
				<polygon style="fill:#FF8B7B;" points="74.533,389.657 80.419,393.768 90.577,377.207 84.691,373.096 				"/>
				<path style="fill:#263238;" d="M81.911,391.599l-5.017-6.728c-0.218-0.293-0.587-0.364-0.888-0.171l-6.696,4.296
					c-0.694,0.445-0.847,1.508-0.347,2.19c2.091,2.858,2.124,2.876,4.761,6.412c1.622,2.175,4.878,6.542,7.118,9.546
					c2.191,2.938,5.167,0.73,4.488-0.741c-3.042-6.597-3.035-10.059-2.944-13.249C82.404,392.581,82.23,392.027,81.911,391.599z"/>
				<polygon style="opacity:0.2;" points="90.573,377.211 85.338,385.748 79.033,382.315 84.685,373.098 				"/>
				<path style="fill:#407BFF;" d="M110.663,396.603c-5.112,0-15.752,0-15.931-7.521c-0.142-5.902,7.16-8.348,13.455-8.648
					c2.941-0.152,5.427,2.126,5.568,5.061c0.006,0.134,0.008,0.267,0.004,0.398c7.138-0.339,11.76-1.898,13.448-4.561
					c3.812-6.008-3.484-21.492-10.54-36.466c-8.295-17.605-17.696-37.559-17.881-56.665c-0.028-2.939,2.331-5.344,5.27-5.372
					c0.017,0,0.034,0,0.052,0c2.914,0,5.291,2.349,5.319,5.269c0.161,16.779,9.036,35.615,16.866,52.233
					c9.038,19.184,16.845,35.751,9.9,46.7C132.108,393.473,123.757,396.603,110.663,396.603z"/>
				<path style="fill:#263238;" d="M155.909,233.253c0,0-17.058,59.117-25.393,80.554c-16.134,28.061-42.914,71.013-42.914,71.013
					l-8.554-4.961c0,0,20.006-49.599,33.456-72.699c3.606-23.991,17.257-77.262,17.257-77.262L155.909,233.253z"/>
				<path style="fill:#407BFF;" d="M83.445,396.427c0.464,0.622,0.977,1.109,1.489,1.213c0.35,0.071,0.673-0.039,0.959-0.326
					c0.213-0.214,0.237-0.453,0.22-0.617c-0.126-1.199-3.221-2.755-3.84-3.055c-0.071-0.034-0.154-0.009-0.206,0.064
					s-0.062,0.176-0.025,0.257C82.367,394.669,82.867,395.652,83.445,396.427z M85.576,396.389c0.103,0.138,0.166,0.266,0.178,0.38
					c0.006,0.055,0,0.122-0.084,0.206c-0.202,0.202-0.418,0.277-0.663,0.227c-0.654-0.132-1.522-1.199-2.37-2.891
					C83.738,394.892,85.095,395.744,85.576,396.389z"/>
				<path style="fill:#407BFF;" d="M82.064,394c0.015,0.021,0.034,0.037,0.055,0.05c0.992,0.555,3.6,0.991,4.166,0.167
					c0.124-0.18,0.216-0.492-0.05-0.953c-1.032-1.779-3.996,0.303-4.122,0.393c-0.059,0.042-0.096,0.12-0.095,0.203
					C82.02,393.914,82.036,393.963,82.064,394z M85.862,393.415c0.027,0.036,0.052,0.074,0.075,0.114
					c0.109,0.188,0.134,0.326,0.075,0.411c-0.328,0.478-2.254,0.314-3.374-0.128C83.39,393.357,85.144,392.453,85.862,393.415z"/>
			</g>
			<path style="fill:#407BFF;" d="M164.949,405.441c0.775,0,1.473-0.12,1.863-0.468c0.266-0.238,0.371-0.562,0.312-0.964
				c-0.044-0.298-0.222-0.461-0.363-0.545c-1.037-0.615-4.134,0.935-4.745,1.253c-0.07,0.036-0.099,0.118-0.072,0.203
				c0.027,0.085,0.104,0.155,0.191,0.173C162.895,405.255,163.983,405.441,164.949,405.441z M166.193,403.711
				c0.172,0,0.312,0.026,0.411,0.085c0.047,0.028,0.098,0.073,0.115,0.191c0.042,0.283-0.028,0.501-0.214,0.667
				c-0.497,0.445-1.871,0.504-3.735,0.172C163.894,404.289,165.388,403.711,166.193,403.711z"/>
			<path style="fill:#407BFF;" d="M162.179,405.098c0.026,0,0.05-0.005,0.073-0.015c1.038-0.463,2.946-2.294,2.625-3.24
				c-0.07-0.207-0.265-0.467-0.794-0.529c-2.044-0.236-2.145,3.385-2.149,3.539c-0.002,0.073,0.039,0.149,0.106,0.197
				C162.083,405.082,162.132,405.098,162.179,405.098z M163.98,401.704c0.044,0,0.09,0.003,0.137,0.008
				c0.215,0.025,0.341,0.087,0.374,0.185c0.186,0.549-1.096,1.995-2.12,2.629C162.456,403.651,162.779,401.704,163.98,401.704z"/>
		</g>
		<g>
			<g>
				<path style="fill:#407BFF;" d="M129.761,229.899c6.576,0.843,20.547,2.629,34.057,4.363
					c7.687-25.863,10.209-38.349,10.895-44.367c0.356-3.121-1.528-6.063-4.524-7.007c-2.036-0.642-4.575-1.399-7.136-2.053
					c-0.876-0.225-1.761-0.438-2.632-0.631c-4.987-1.107-9.703-1.531-15.464-1.99c-0.768-0.064-1.532-0.107-2.296-0.149
					c-1.509-0.072-2.984-0.1-4.36-0.1c-4.32-0.001-7.703,3.694-7.327,7.997c0.264,3.022,0.477,5.788,0.637,8.347
					c0.382,5.982,0.497,10.804,0.411,15.008C131.845,217.139,130.966,222.829,129.761,229.899z"/>
			</g>
			<g style="opacity:0.3;">
				<path style="fill:#FFFFFF;" d="M129.761,229.899c6.576,0.843,20.547,2.629,34.057,4.363
					c7.687-25.863,10.209-38.349,10.895-44.367c0.356-3.121-1.528-6.063-4.524-7.007c-2.036-0.642-4.575-1.399-7.136-2.053
					c-0.876-0.225-1.761-0.438-2.632-0.631c-4.987-1.107-9.703-1.531-15.464-1.99c-0.768-0.064-1.532-0.107-2.296-0.149
					c-1.509-0.072-2.984-0.1-4.36-0.1c-4.32-0.001-7.703,3.694-7.327,7.997c0.264,3.022,0.477,5.788,0.637,8.347
					c0.382,5.982,0.497,10.804,0.411,15.008C131.845,217.139,130.966,222.829,129.761,229.899z"/>
			</g>
		</g>
		<path style="opacity:0.3;fill:#407BFF;" d="M132.022,209.318c4.502-5.818,6.124-12.474,4.669-16.151l-5.079,1.143
			C131.993,200.292,132.109,205.114,132.022,209.318z"/>
		<path style="fill:#FFFFFF;" d="M163.054,180.84c-0.88-0.23-1.76-0.44-2.63-0.64c-4.99-1.1-9.71-1.53-15.47-1.99
			c-0.77-0.06-1.53-0.1-2.29-0.14c-0.45-0.02-0.89-0.04-1.33-0.06l1.05,1.75c0.14,0.24,3.54,5.8,12.04,11.78l1.81,1.26l1.74-1.33
			c4.85-3.71,5.48-8.36,5.48-10.53C163.324,180.91,163.184,180.87,163.054,180.84z"/>
		<path style="fill:#FF8B7B;" d="M148.706,167.921c-0.318,4.209-1.309,8.498-3.753,10.296c0,0,3.117,5.19,11.201,10.866
			c5.06-3.871,4.265-8.882,4.265-8.882c-5.379-2.037-5.014-5.73-2.729-11.678l-4.199-2.261
			C151.86,164.463,148.888,165.501,148.706,167.921z"/>
		<path style="opacity:0.2;" d="M153.486,166.258c-1.536-1.697-4.277-0.865-4.724,1.28c1.72,3.155,3.928,5.803,7.345,7.515
			c-0.046-1.782,0.584-3.948,1.577-6.534L153.486,166.258z"/>
		<path style="fill:#FF8B7B;" d="M142.173,154.721c2.087,8.127,2.797,11.612,7.763,15.035c7.47,5.148,16.996,0.807,17.379-7.78
			c0.345-7.729-3.126-19.722-11.806-21.446C146.956,138.83,140.085,146.594,142.173,154.721z"/>
		<path style="fill:#263238;" d="M162.858,142.167c-8.333,7.333-16.964,9.375-16.964,9.375s6.203,13.208-5.416,9.875
			c-3.369-11.25,0.048-17.083,2.964-19.833C152.691,138.583,159.191,137.583,162.858,142.167z"/>
		<path style="fill:#FF8B7B;" d="M141.779,162.73c0.716,1.585,2.097,2.693,3.442,3.176c2.023,0.728,3.191-1.044,2.759-3.036
			c-0.389-1.792-1.91-4.331-4.004-4.201C141.914,158.799,140.961,160.917,141.779,162.73z"/>
		<path style="fill:#407BFF;" d="M129.507,227.836l-1.927,2.852c-0.149,0.221,0.1,0.498,0.493,0.549l35.719,4.58
			c0.307,0.039,0.581-0.078,0.625-0.269l0.698-3.009c0.048-0.209-0.195-0.421-0.531-0.464l-34.49-4.423
			C129.841,227.619,129.603,227.693,129.507,227.836z"/>
		<path style="fill:#263238;" d="M133.645,232.286l-0.924-0.119c-0.184-0.024-0.312-0.136-0.284-0.251l0.941-3.905
			c0.027-0.114,0.2-0.188,0.384-0.165l0.924,0.118c0.184,0.024,0.312,0.136,0.284,0.251l-0.941,3.906
			C134.002,232.236,133.829,232.31,133.645,232.286z"/>
		<path style="fill:#263238;" d="M161.154,235.814l-0.924-0.118c-0.184-0.024-0.312-0.136-0.284-0.251l0.941-3.905
			c0.027-0.114,0.201-0.189,0.385-0.165l0.924,0.118c0.184,0.024,0.312,0.136,0.284,0.251l-0.941,3.905
			C161.512,235.763,161.338,235.838,161.154,235.814z"/>
		<path style="fill:#263238;" d="M147.4,234.05l-0.924-0.118c-0.184-0.023-0.312-0.136-0.284-0.251l0.941-3.906
			c0.027-0.114,0.201-0.189,0.385-0.165l0.924,0.118c0.184,0.024,0.312,0.136,0.284,0.251l-0.941,3.905
			C147.757,234,147.584,234.074,147.4,234.05z"/>
		<path style="fill:#263238;" d="M156.095,154.373c0.129,0.67,0.588,1.144,1.026,1.06c0.438-0.084,0.688-0.695,0.559-1.365
			c-0.129-0.67-0.588-1.144-1.026-1.06C156.217,153.092,155.966,153.703,156.095,154.373z"/>
		<path style="fill:#263238;" d="M163.665,152.917c0.129,0.67,0.588,1.144,1.026,1.06c0.438-0.084,0.688-0.695,0.559-1.365
			c-0.129-0.67-0.588-1.144-1.026-1.06C163.786,151.636,163.536,152.247,163.665,152.917z"/>
		<path style="fill:#263238;" d="M164.038,151.626l1.519-0.773C165.557,150.853,164.973,152.268,164.038,151.626z"/>
		<path style="fill:#FF5652;" d="M161.664,154.42c0,0,1.691,2.664,3.21,3.815c-0.725,0.995-2.301,0.907-2.301,0.907L161.664,154.42z
			"/>
		<path style="fill:#263238;" d="M156.937,161.842c-0.051,0.059-0.066,0.145-0.03,0.219c0.048,0.1,0.168,0.141,0.267,0.093
			c2.687-1.3,4.863-0.03,4.885-0.017c0.095,0.057,0.22,0.023,0.275-0.069c0.057-0.095,0.026-0.217-0.068-0.275
			c-0.096-0.058-2.377-1.398-5.266,0C156.976,161.806,156.955,161.823,156.937,161.842z"/>
		<path style="fill:#263238;" d="M153.492,152.31c0.056-0.038,0.104-0.09,0.136-0.156c0.789-1.602,2.252-1.796,2.267-1.798
			c0.218-0.026,0.376-0.226,0.35-0.445c-0.026-0.219-0.226-0.376-0.446-0.35c-0.078,0.009-1.91,0.251-2.89,2.239
			c-0.098,0.198-0.016,0.439,0.182,0.536C153.225,152.402,153.377,152.387,153.492,152.31z"/>
		<path style="fill:#263238;" d="M165.912,147.244c0.017-0.017,0.034-0.036,0.048-0.058c0.125-0.182,0.079-0.432-0.103-0.557
			c-1.826-1.256-3.543-0.571-3.615-0.541c-0.205,0.084-0.302,0.318-0.218,0.523c0.084,0.204,0.317,0.301,0.521,0.218
			c0.064-0.026,1.405-0.539,2.858,0.46C165.564,147.4,165.778,147.377,165.912,147.244z"/>
		<path style="fill:#263238;" d="M156.468,153.082l1.519-0.773C157.988,152.309,157.404,153.724,156.468,153.082z"/>
		<path style="fill:#407BFF;" d="M104.106,293.47c-2.914,0-5.291-2.349-5.319-5.268c-0.137-14.206,4.595-26.195,13.683-34.673
			c11.188-10.438,28.645-15.285,49.163-13.665c14.39,1.142,23.618-2.368,34.301-6.431c1.756-0.667,3.531-1.342,5.351-2.005
			c2.757-1.009,5.814,0.418,6.819,3.179c1.005,2.761-0.418,5.814-3.179,6.819c-1.771,0.645-3.499,1.303-5.209,1.952
			c-10.886,4.141-22.141,8.415-38.923,7.093c-17.507-1.391-32.087,2.462-41.065,10.838c-6.943,6.478-10.409,15.491-10.3,26.789
			c0.028,2.938-2.331,5.344-5.268,5.372C104.142,293.47,104.124,293.47,104.106,293.47z"/>
		<g>
			<g>
				<path style="fill:#407BFF;" d="M205.738,256.774l21.415-7.844l-13.766-37.581l-21.415,7.844
					c-3.701,1.356-5.62,5.493-4.265,9.194l8.836,24.122C197.899,256.211,202.036,258.13,205.738,256.774z"/>
				<path style="opacity:0.7;fill:#FFFFFF;" d="M205.738,256.774l21.415-7.844l-13.766-37.581l-21.415,7.844
					c-3.701,1.356-5.62,5.493-4.265,9.194l8.836,24.122C197.899,256.211,202.036,258.13,205.738,256.774z"/>
			</g>
			<path style="opacity:0.2;fill:#407BFF;" d="M203.836,214.844l9.552-3.499l13.767,37.586l-9.551,3.499
				c-0.627-0.598-1.113-1.337-1.428-2.197l-12.011-32.79C203.85,216.583,203.743,215.705,203.836,214.844z"/>
			
				<rect x="235.005" y="220.704" transform="matrix(0.939 -0.3439 0.3439 0.939 -62.6824 94.6594)" style="fill:#407BFF;" width="1" height="6.656"/>
			<path style="fill:#407BFF;" d="M232.454,217.158l-3.378-9.222c-1.167-3.188-4.239-5.33-7.644-5.33
				c-0.949,0-1.885,0.166-2.78,0.494l-6.084,2.229l-0.344-0.939l6.084-2.229c1.007-0.368,2.058-0.555,3.124-0.555
				c3.822,0,7.271,2.405,8.583,5.986l3.378,9.222L232.454,217.158z"/>
			<path style="fill:#407BFF;" d="M226.732,252.74l8.908-3.263c2.905-1.064,4.411-4.311,3.347-7.216l-12.258-33.465
				c-1.064-2.905-4.311-4.411-7.216-3.347l-8.908,3.263c-2.905,1.064-4.411,4.311-3.347,7.216l12.258,33.465
				C220.579,252.298,223.827,253.804,226.732,252.74z"/>
			<path style="fill:#263238;" d="M222.205,217.868c0.57,1.556-0.229,3.279-1.785,3.849c-1.556,0.57-3.279-0.229-3.849-1.785
				c-0.57-1.556,0.229-3.279,1.785-3.849C219.912,215.514,221.635,216.313,222.205,217.868z"/>
			<path style="fill:#263238;" d="M229.673,238.257c0.57,1.556-0.229,3.279-1.785,3.849c-1.556,0.57-3.279-0.229-3.849-1.785
				c-0.57-1.556,0.229-3.279,1.785-3.849C227.38,235.902,229.103,236.701,229.673,238.257z"/>
		</g>
		<path style="fill:#FF8B7B;" d="M142.034,235.848l-0.086-0.085c-1.563-1.56-3.213-3.26-4.697-4.983
			c-1.515-1.716-2.954-3.477-4.278-5.278c-1.335-1.793-2.524-3.649-3.558-5.511c-0.775-1.417-1.423-2.854-1.922-4.272
			c0.597-1.992,1.233-3.971,1.993-5.92c0.873-2.306,1.857-4.579,2.925-6.815c1.069-2.235,2.209-4.442,3.436-6.595
			c0.606-1.081,1.234-2.145,1.88-3.192l0.984-1.543c0.313-0.499,0.68-1.045,0.94-1.428l0.112-0.165
			c1.501-2.211,0.997-5.231-1.173-6.829c-2.222-1.637-5.351-1.163-6.988,1.06c-0.502,0.683-0.879,1.217-1.284,1.815
			c-0.4,0.584-0.764,1.177-1.14,1.766c-0.733,1.183-1.44,2.374-2.119,3.58c-1.347,2.416-2.578,4.892-3.666,7.436
			c-0.566,1.26-1.056,2.559-1.572,3.842c-0.456,1.313-0.951,2.605-1.349,3.94c-0.881,2.633-1.515,5.36-2.096,8.089l-0.051,0.238
			c-0.149,0.707-0.108,1.462,0.159,2.191c0.979,2.679,2.331,5.059,3.825,7.237c1.497,2.177,3.186,4.134,4.942,5.966
			c1.779,1.814,3.64,3.501,5.591,5.055c1.983,1.544,3.932,2.979,6.162,4.304c0.956,0.568,2.21,0.442,3.032-0.381
			C143.008,238.394,143.006,236.818,142.034,235.848z"/>
		<path style="fill:#FF8B7B;" d="M153.619,240.816l-0.125-0.26c-0.846-1.754-2.464-3.011-4.372-3.397l-7.594-1.536l-3.705,1.851
			c0.396,4.152,6.338,6.641,6.338,6.641l1.689,1.932c1.177,1.346,3.181,1.583,4.64,0.549l2.008-1.424
			C153.883,244.188,154.357,242.347,153.619,240.816z"/>
		<g>
			<g>
				<path style="fill:#407BFF;" d="M135.192,178.651c-4.208,1.932-8.696,8.605-8.696,8.605l9.039,16.855
					c0,0,10.238-11.796,9.372-17.695C144.173,181.408,140.553,176.191,135.192,178.651z"/>
			</g>
			<g style="opacity:0.3;">
				<path style="fill:#FFFFFF;" d="M135.192,178.651c-4.208,1.932-8.696,8.605-8.696,8.605l9.039,16.855
					c0,0,10.238-11.796,9.372-17.695C144.173,181.408,140.553,176.191,135.192,178.651z"/>
			</g>
		</g>
	</g>
</g>
<g id="Character_2">
	<g>
		<path style="fill:#407BFF;" d="M423.292,399.432c-8.811,0.001-17.473-1.814-21.668-7.292
			c-19.887-25.967-19.706-78.302-19.532-128.914c0.094-27.243,2.247-52.976-0.778-72.968c-1.784-11.786-7.961-19.882-14.286-24.061
			c-9.316-6.155-22.123-2.85-27.593-1.437c-2.844,0.736-5.745-0.975-6.481-3.821c-0.734-2.845,0.977-5.746,3.821-6.482
			c6.839-1.767,22.857-5.901,36.119,2.862c8.943,5.909,16.685,16.455,18.939,31.346c3.149,20.801,0.994,46.932,0.899,74.597
			c-0.168,48.829-0.342,99.32,17.339,122.408c1.426,1.862,7.015,3.528,16.249,3.053c0.816-0.041,1.62-0.098,2.406-0.166
			c-0.342-0.703-0.534-1.492-0.534-2.326c0-2.938,2.382-5.32,5.32-5.32c11.626,0,17.746,0.978,18.929,6.319
			c0.339,1.529,0.519,5.369-5.104,7.987C443.141,397.172,433.123,399.432,423.292,399.432z"/>
		<g>
			<g>
				<polygon style="fill:#FFC3BD;" points="306.871,404.017 296.018,399.753 301.743,380.94 312.595,385.204 				"/>
				<path style="fill:#263238;" d="M295.763,398.599l12.223,4.803c0.322,0.126,0.513,0.46,0.459,0.802l-1.195,7.615
					c-0.124,0.79-0.965,1.253-1.704,0.948c-3.069-1.267-7.871-3.363-11.764-4.893c-2.395-0.941-6.945-2.442-10.252-3.741
					c-3.234-1.271-2.454-4.739-0.984-4.503c6.592,1.057,9.117-0.065,11.747-1.048C294.768,398.404,295.292,398.414,295.763,398.599z
					"/>
				<g>
					<polygon style="opacity:0.2;" points="312.596,385.211 301.74,380.944 298.794,390.644 309.651,394.91 					"/>
				</g>
				<path style="fill:#407BFF;" d="M326.171,239.606c0,0-9.817,48.543-13.576,72.48c-4.214,26.832-15.368,75.84-15.368,75.84
					l14.43,5.67c0,0,20.608-50.174,23.481-74.48c8.647-19.742,25.85-77.868,25.85-77.868L326.171,239.606z"/>
				<polygon style="fill:#263238;" points="296.534,388.013 312.37,394.236 315.077,389.44 297.369,382.1 				"/>
				<path style="fill:#407BFF;" d="M292.654,398.806c-0.599-0.236-1.12-0.558-1.359-0.998c-0.189-0.348-0.188-0.73,0.001-1.138
					c0.142-0.303,0.365-0.386,0.527-0.402c1.052-0.106,2.975,2.455,3.191,2.747c0.048,0.065,0.053,0.152,0.012,0.222
					c-0.041,0.069-0.12,0.107-0.2,0.096C294.227,399.25,293.382,399.093,292.654,398.806z M292.124,396.715
					c-0.098-0.038-0.185-0.056-0.261-0.048c-0.06,0.006-0.138,0.031-0.204,0.173c-0.136,0.289-0.139,0.544-0.013,0.777
					c0.289,0.531,1.298,0.985,2.741,1.241C293.701,397.995,292.728,396.953,292.124,396.715z"/>
				<path style="fill:#407BFF;" d="M294.78,399.321c-0.031-0.012-0.058-0.031-0.081-0.057c-0.641-0.763-1.539-3.109-1.027-3.922
					c0.093-0.148,0.319-0.376,0.786-0.256c0.301,0.079,0.539,0.264,0.701,0.553c0.621,1.108-0.084,3.455-0.114,3.554
					c-0.022,0.071-0.08,0.124-0.152,0.138C294.855,399.339,294.816,399.335,294.78,399.321z M294.445,395.503
					c-0.028-0.011-0.056-0.02-0.086-0.028c-0.254-0.066-0.319,0.037-0.346,0.081c-0.302,0.48,0.189,2.179,0.758,3.113
					c0.169-0.7,0.439-2.124,0.04-2.835C294.718,395.672,294.599,395.563,294.445,395.503z"/>
			</g>
			<path style="opacity:0.2;" d="M347.339,269.029c-5.437,6.746-7.586,23.919-7.565,38.241c3.671-10.108,7.874-22.951,11.576-34.612
				L347.339,269.029z"/>
			<g>
				<polygon style="fill:#FFC3BD;" points="372.168,405.829 360.508,405.829 358.956,386.226 370.616,386.226 				"/>
				<path style="fill:#263238;" d="M359.848,404.849l13.133,0c0.346,0,0.646,0.24,0.721,0.578l1.672,7.524
					c0.173,0.78-0.44,1.519-1.239,1.505c-3.32-0.057-8.556-0.252-12.738-0.252c-2.573,0-7.357,0.267-10.91,0.267
					c-3.475,0-4.017-3.513-2.563-3.832c6.522-1.427,8.462-3.394,10.55-5.271C358.85,405.031,359.342,404.849,359.848,404.849z"/>
				<g>
					<polygon style="opacity:0.2;" points="370.619,386.231 358.954,386.231 359.76,396.336 371.425,396.336 					"/>
				</g>
				<path style="fill:#407BFF;" d="M340.291,240.224c0,0,6.46,54.086,7.819,73.558c1.891,27.095,9.198,80.597,9.198,80.597h15.504
					c0,0,1.663-54.64-1.145-78.953c3.863-21.203,2.641-73.579,2.641-73.579L340.291,240.224z"/>
				<polygon style="fill:#263238;" points="356.694,394.714 373.709,394.714 374.475,389.26 355.309,388.905 				"/>
				<path style="fill:#407BFF;" d="M357.03,406.179c-0.644,0-1.246-0.109-1.63-0.432c-0.303-0.255-0.442-0.611-0.415-1.06
					c0.021-0.333,0.199-0.492,0.344-0.567c0.94-0.483,3.667,1.197,3.975,1.389c0.069,0.043,0.105,0.122,0.092,0.203
					c-0.013,0.079-0.073,0.143-0.151,0.163C358.657,406.016,357.813,406.179,357.03,406.179z M355.772,404.426
					c-0.105,0-0.193,0.016-0.26,0.051c-0.054,0.028-0.117,0.079-0.126,0.235c-0.02,0.319,0.069,0.557,0.272,0.728
					c0.463,0.389,1.568,0.442,3.005,0.153C357.708,405.04,356.421,404.426,355.772,404.426z"/>
				<path style="fill:#407BFF;" d="M359.198,405.88c-0.033,0-0.066-0.008-0.096-0.024c-0.876-0.476-2.57-2.331-2.391-3.274
					c0.032-0.171,0.159-0.467,0.638-0.526c0.309-0.037,0.598,0.048,0.854,0.258c0.983,0.804,1.186,3.246,1.194,3.35
					c0.006,0.074-0.029,0.144-0.091,0.184C359.274,405.87,359.236,405.88,359.198,405.88z M357.489,402.449
					c-0.03,0-0.06,0.002-0.091,0.006c-0.26,0.032-0.283,0.151-0.293,0.202c-0.106,0.557,0.973,1.959,1.844,2.62
					c-0.099-0.714-0.369-2.137-1-2.653C357.806,402.507,357.654,402.449,357.489,402.449z"/>
			</g>
			<g>
				<path style="fill:#FFC3BD;" d="M345.641,165.628l-0.041-0.001l-9.343-0.121c-3.134-0.021-6.257-0.092-9.342-0.146
					c-0.939-0.019-1.862-0.061-2.79-0.097c0.051-0.056,0.098-0.111,0.149-0.167c0.658-0.698,1.315-1.419,1.999-2.107
					c0.336-0.356,0.674-0.708,1.015-1.048c0.317-0.343,0.708-0.722,0.925-0.997l0.852-1.074c0.969-1.239,1.363-2.903,0.921-4.539
					c-0.746-2.757-3.585-4.388-6.342-3.643l-1.851,0.5c-0.577,0.174-1.145,0.357-1.708,0.546c-1.119,0.396-2.226,0.82-3.314,1.296
					c-2.176,0.95-4.283,2.088-6.35,3.381c-2.048,1.306-4.048,2.814-5.949,4.524c-1.912,1.7-3.674,3.712-5.308,5.913
					c-0.375,0.513-0.73,1.11-0.995,1.717c-1.936,4.435,0.089,9.599,4.524,11.534l0.908,0.396c2.499,1.091,4.444,1.611,6.361,2.108
					c1.897,0.487,3.701,0.802,5.466,1.101c1.766,0.29,3.505,0.543,5.221,0.757c1.718,0.192,3.426,0.362,5.119,0.505
					c3.389,0.306,6.749,0.45,10.098,0.553c3.372,0.077,6.635,0.097,10.11-0.059c5.465-0.258,9.881-4.735,9.953-10.278
					C356.002,170.429,351.397,165.702,345.641,165.628z"/>
				<path style="fill:#263238;" d="M351.08,183.875c-8.066,9.207-27.487,5.763-27.487,5.763l1.064-22.924
					c0,0,9.807-2.318,20.267-2.341C356.318,164.349,357.541,176.501,351.08,183.875z"/>
			</g>
			<path style="fill:#263238;" d="M329.543,176.835c-0.485,3.694-0.955,8.677-1.31,15.379c-4.211,21.292-5.784,36.385-2.063,47.392
				c2.937,3.63,41.253,2.929,48.142,2.236c3.974-9.901,4.416-38.319,4.883-62.207c0.133-6.8-4.741-12.669-11.443-13.825
				c-8.629-1.489-17.332-1.856-26.125-0.881C335.341,165.625,330.367,170.563,329.543,176.835z"/>
			<path style="opacity:0.2;" d="M366.714,191.366c0.128,7.289,5.405,18.918,11.342,24.813c0.362-6.15,0.596-12.821,0.777-19.546
				L366.714,191.366z"/>
			<g>
				<path style="fill:#FFC3BD;" d="M400.089,205.521l-0.337-0.806c-1.453-3.472-3.097-6.654-4.894-9.662
					c-1.782-3-3.695-5.831-5.692-8.565c-1.982-2.738-4.096-5.335-6.257-7.879c-1.095-1.26-2.185-2.52-3.336-3.734l-1.734-1.824
					l-1.873-1.856c-3.893-3.843-10.177-4.052-14.297-0.346c-4.276,3.847-4.625,10.432-0.778,14.708l0.296,0.329l5.877,6.533
					c1.983,2.222,3.905,4.486,5.802,6.731c0.921,1.132,1.871,2.262,2.738,3.408c0.924,1.127,1.768,2.267,2.629,3.405
					c1.237,1.729,2.434,3.443,3.502,5.135c-0.137,0.776-0.356,1.646-0.613,2.533c-0.663,2.243-1.524,4.703-2.528,7.143
					c-0.969,2.468-2.06,4.964-3.162,7.486c-1.089,2.511-2.286,5.092-3.335,7.589l-0.094,0.22c-0.767,1.832-0.457,4.02,0.972,5.582
					c1.96,2.142,5.285,2.289,7.427,0.328c2.29-2.096,4.279-4.22,6.271-6.478c1.967-2.255,3.836-4.61,5.624-7.106
					c0.894-1.246,1.737-2.549,2.577-3.891c0.842-1.338,1.653-2.74,2.394-4.25c0.749-1.514,1.473-3.087,2.103-4.923
					c0.623-1.848,1.17-3.89,1.277-6.714C400.684,207.599,400.508,206.522,400.089,205.521z"/>
				<path style="fill:#263238;" d="M368.431,165.944c13.493,2.301,22.278,20.566,22.278,20.566l-16.259,17.439
					c0,0-9.374-9.543-14.971-18.379C353.382,175.945,358.767,164.296,368.431,165.944z"/>
				<path style="fill:#263238;" d="M343.786,137.147c-2.252-3.783-2.979-9.023,1.146-14.305c-2.728,0.428-4.124-1.965-4.124-1.965
					s5.987-5.606,16.088-5.601c12.108,0.006,13.012,4.67,12.598,7.862c8.276,0.528,14.316,22.067-6.674,25.871
					C350.814,136.32,343.786,137.147,343.786,137.147z"/>
				<path style="fill:#263238;" d="M368.725,123.492c0,0,3.374-3.439-0.82-7.605c1.603,0.492,3.404,1.743,3.941,3.922
					C372.444,122.233,370.809,124.171,368.725,123.492z"/>
				<path style="fill:#FFC3BD;" d="M364.086,146.341c-0.32,6.626-0.914,14.167,0.195,19.464c-1.718,2.705-6.116,5.824-14.007,6.525
					c-2.808-1.591-6.504-5.475-5.216-7.477c3.355-2.151,4.773-8.665,3.81-13.53L364.086,146.341z"/>
				<path style="opacity:0.2;" d="M360.249,147.591l-11.384,3.729c0.384,1.963,0.395,4.179,0.044,6.285
					c3.4-0.11,8.116-2.676,9.882-5.078C360.271,150.52,360.469,148.863,360.249,147.591z"/>
				<path style="fill:#FFC3BD;" d="M367.415,135.837c-2.11,8.132-2.932,12.998-7.912,16.412c-7.492,5.135-16.916-0.615-17.278-9.213
					c-0.326-7.739,3.18-19.737,11.874-21.442C362.665,119.915,369.525,127.705,367.415,135.837z"/>
				<path style="fill:#263238;" d="M365.728,124.202c-3.564,2.542-7.997,13.3,1.047,17.615
					C374.814,134.723,372.72,124.202,365.728,124.202z"/>
				<path style="fill:#263238;" d="M367.794,125.494c1.523-7.085-16.341-10.741-22.007-2.475
					C343.872,127.971,366.71,132.402,367.794,125.494z"/>
				<path style="fill:#263238;" d="M354.459,144.47c-0.001-0.001-0.002-0.002-0.004-0.002c-3.083-1.368-5.586-1.453-5.88-1.485
					c-0.128-0.003-0.226,0.094-0.212,0.22c0.014,0.126,0.134,0.233,0.264,0.233c0.173,0.023,2.661,0.105,5.642,1.424
					c0.12,0.051,0.259,0.001,0.308-0.109C354.626,144.643,354.571,144.52,354.459,144.47z"/>
				<path style="fill:#FFC3BD;" d="M369.363,144.728c-1.536,1.664-3.698,2.464-5.559,2.509c-2.799,0.067-3.513-2.603-2.16-4.885
					c1.217-2.054,4.141-4.565,6.674-3.543C370.814,139.815,371.12,142.825,369.363,144.728z"/>
				<path style="fill:#263238;" d="M354.482,135.704c-0.131,0.67-0.592,1.144-1.03,1.059c-0.438-0.085-0.687-0.698-0.557-1.368
					c0.131-0.67,0.592-1.144,1.03-1.059C354.364,134.421,354.613,135.033,354.482,135.704z"/>
				<path style="fill:#263238;" d="M346.908,134.227c-0.131,0.67-0.592,1.144-1.03,1.059c-0.438-0.085-0.687-0.698-0.557-1.368
					c0.131-0.67,0.592-1.144,1.03-1.059C346.789,132.944,347.038,133.557,346.908,134.227z"/>
				<path style="fill:#ED847E;" d="M349.251,135.03c0,0-2.278,3.569-4.319,5.107c0.97,1.338,3.208,1.074,3.208,1.074L349.251,135.03
					z"/>
				<path style="fill:#263238;" d="M353.391,131.812c0.142-0.036,0.298,0.006,0.401,0.123c1.181,1.342,2.646,1.146,2.661,1.144
					c0.219-0.032,0.423,0.12,0.455,0.339c0.032,0.218-0.111,0.424-0.339,0.455c-0.077,0.011-1.913,0.257-3.378-1.408
					c-0.146-0.166-0.13-0.42,0.036-0.566C353.276,131.856,353.332,131.827,353.391,131.812z"/>
				<path style="fill:#263238;" d="M344.566,129.594c-0.079-0.022-0.152-0.068-0.206-0.138c-0.137-0.174-0.107-0.426,0.067-0.563
					c1.741-1.373,3.502-0.805,3.577-0.776c0.21,0.071,0.322,0.298,0.252,0.508c-0.071,0.209-0.308,0.319-0.506,0.252l0,0
					c-0.062-0.016-1.433-0.453-2.826,0.645C344.818,129.605,344.685,129.628,344.566,129.594z"/>
				<path style="fill:#FFC3BD;" d="M376.852,235.564l-8.593-0.061l4.44,9.859c0,0,7.327-1.572,6.928-5.548L376.852,235.564z"/>
				<path style="fill:#FFC3BD;" d="M363.892,242.266l1.411,2.779c0.782,1.539,2.608,2.227,4.211,1.588l3.185-1.271l-4.44-9.859
					l-3.413,2.598C363.564,239.077,363.162,240.829,363.892,242.266z"/>
			</g>
		</g>
		<path style="fill:#407BFF;" d="M311.464,228.297c-1.337,0-2.674-0.5-3.707-1.505c-2.107-2.048-2.156-5.416-0.108-7.523
			c3.825-3.938,7.273-6.98,10.314-9.665c7.341-6.479,9.867-8.967,9.627-13.852c-0.11-2.243-0.98-5.441-1.9-8.827
			c-2.188-8.044-4.666-17.16-0.424-24.463c2.282-3.929,6.154-6.621,11.51-8.005c2.839-0.732,5.746,0.976,6.481,3.821
			c0.734,2.845-0.976,5.746-3.821,6.481c-3.764,0.972-4.671,2.534-4.97,3.047c-2.008,3.457-0.068,10.593,1.49,16.326
			c1.077,3.96,2.094,7.699,2.261,11.096c0.504,10.246-5.549,15.589-13.213,22.352c-2.898,2.559-6.184,5.457-9.725,9.102
			C314.236,227.758,312.851,228.297,311.464,228.297z"/>
		<path style="fill:#FFC3BD;" d="M323.128,151.897l8.327-2.125l-1.94,10.637c0,0-7.49,0.235-8.058-3.72L323.128,151.897z"/>
		<path style="fill:#FFC3BD;" d="M337.29,155.414l-0.641,2.773c-0.407,1.76-2.089,2.919-3.878,2.672l-3.257-0.449l1.94-10.637
			l3.819,1.65C336.822,152.092,337.67,153.771,337.29,155.414z"/>
		<g>
			<path style="fill:#263238;" d="M275.352,243.969l-0.234-0.234c-1.006-1.006-1.006-2.652,0-3.658l29.497-29.497
				c1.006-1.006,2.652-1.006,3.658,0l0.234,0.234c1.006,1.006,1.006,2.652,0,3.658l-29.497,29.498
				C278.004,244.975,276.358,244.975,275.352,243.969z"/>
			<path style="fill:#263238;" d="M290.705,259.323l-0.234-0.234c-1.006-1.006-1.006-2.652,0-3.658l29.498-29.498
				c1.006-1.006,2.652-1.006,3.658,0l0.234,0.234c1.006,1.006,1.006,2.652,0,3.658l-29.497,29.498
				C293.357,260.329,291.711,260.329,290.705,259.323z"/>
			<g>
				<path style="fill:#407BFF;" d="M333.472,229.269l-20.784,20.784l-28.3-28.3l20.784-20.784c2.787-2.787,7.348-2.787,10.135,0
					l18.165,18.165C336.259,221.921,336.259,226.482,333.472,229.269z"/>
				<path style="opacity:0.7;fill:#FFFFFF;" d="M333.472,229.269l-20.784,20.784l-28.3-28.3l20.784-20.784
					c2.787-2.787,7.348-2.787,10.135,0l18.165,18.165C336.259,221.921,336.259,226.482,333.472,229.269z"/>
			</g>
			<path style="opacity:0.2;fill:#407BFF;" d="M291.577,214.558l-7.193,7.193l28.304,28.304l7.193-7.193
				c-0.279-0.82-0.745-1.572-1.392-2.219l-24.693-24.693C293.149,215.303,292.397,214.837,291.577,214.558z"/>
			<path style="fill:#407BFF;" d="M316.322,251.274l-0.509,0.509c-2.188,2.188-5.767,2.188-7.955,0l-25.201-25.201
				c-2.188-2.188-2.188-5.767,0-7.955l0.509-0.509c2.188-2.188,5.767-2.188,7.955,0l25.201,25.201
				C318.509,245.507,318.509,249.087,316.322,251.274z"/>
		</g>
	</g>
</g>
<g id="Page_not_found">
	<g>
		<g>
			<path style="fill:#FFFFFF;" d="M361.518,95.481H138.482c-4.631,0-8.42-3.789-8.42-8.42v-40.68c0-4.631,3.789-8.42,8.42-8.42
				h223.037c4.631,0,8.42,3.789,8.42,8.42v40.68C369.939,91.692,366.15,95.481,361.518,95.481z"/>
			<path style="fill:#263238;" d="M361.519,96.219H138.481c-5.05,0-9.158-4.108-9.158-9.158v-40.68c0-5.05,4.108-9.158,9.158-9.158
				h223.037c5.05,0,9.158,4.108,9.158,9.158v40.68C370.677,92.11,366.568,96.219,361.519,96.219z M138.481,38.699
				c-4.235,0-7.682,3.446-7.682,7.682v40.68c0,4.235,3.446,7.682,7.682,7.682h223.037c4.235,0,7.682-3.446,7.682-7.682v-40.68
				c0-4.235-3.446-7.682-7.682-7.682H138.481z"/>
		</g>
		<g style="opacity:0.4;">
			<g>
				<path style="fill:#263238;" d="M149.781,76.72V55.077h8.163c1.438,0,2.534,0.069,3.293,0.207
					c1.063,0.177,1.953,0.514,2.672,1.011c0.718,0.497,1.296,1.193,1.734,2.089c0.438,0.896,0.657,1.88,0.657,2.953
					c0,1.841-0.586,3.397-1.757,4.672c-1.172,1.275-3.287,1.912-6.349,1.912h-5.551v8.799H149.781z M152.645,65.367h5.596
					c1.85,0,3.164-0.345,3.941-1.033c0.777-0.689,1.166-1.658,1.166-2.908c0-0.906-0.229-1.681-0.687-2.325
					c-0.457-0.645-1.061-1.07-1.809-1.277c-0.481-0.128-1.372-0.192-2.672-0.192h-5.536V65.367z"/>
				<path style="fill:#263238;" d="M179.838,74.786c-0.984,0.836-1.932,1.427-2.842,1.771c-0.91,0.344-1.888,0.517-2.931,0.517
					c-1.723,0-3.046-0.421-3.971-1.263c-0.926-0.841-1.388-1.916-1.388-3.226c0-0.768,0.174-1.469,0.523-2.104
					c0.35-0.635,0.808-1.145,1.373-1.528c0.566-0.384,1.203-0.674,1.912-0.871c0.521-0.138,1.309-0.271,2.362-0.398
					c2.146-0.256,3.725-0.561,4.738-0.915c0.01-0.364,0.015-0.596,0.015-0.694c0-1.082-0.251-1.845-0.753-2.288
					c-0.679-0.6-1.688-0.9-3.026-0.9c-1.25,0-2.172,0.22-2.768,0.657s-1.036,1.213-1.321,2.325l-2.599-0.354
					c0.236-1.112,0.625-2.01,1.167-2.694c0.541-0.684,1.323-1.211,2.347-1.579c1.023-0.369,2.21-0.554,3.558-0.554
					c1.339,0,2.427,0.157,3.263,0.472c0.837,0.315,1.452,0.712,1.846,1.188c0.394,0.478,0.669,1.081,0.827,1.809
					c0.088,0.453,0.133,1.269,0.133,2.451v3.543c0,2.471,0.057,4.032,0.17,4.688c0.112,0.654,0.337,1.281,0.671,1.882h-2.775
					C180.094,76.169,179.917,75.524,179.838,74.786z M179.616,68.852c-0.964,0.394-2.411,0.728-4.34,1.003
					c-1.093,0.158-1.865,0.335-2.318,0.532c-0.452,0.196-0.802,0.484-1.048,0.863c-0.246,0.379-0.369,0.8-0.369,1.263
					c0,0.708,0.269,1.299,0.805,1.771c0.536,0.472,1.321,0.708,2.354,0.708c1.023,0,1.935-0.224,2.731-0.672
					c0.797-0.447,1.383-1.06,1.757-1.838c0.285-0.6,0.428-1.485,0.428-2.657V68.852z"/>
				<path style="fill:#263238;" d="M185.936,78.019l2.583,0.384c0.108,0.798,0.409,1.378,0.901,1.742
					c0.659,0.492,1.56,0.738,2.701,0.738c1.23,0,2.18-0.246,2.85-0.738c0.669-0.492,1.122-1.181,1.358-2.066
					c0.138-0.542,0.201-1.678,0.191-3.41c-1.161,1.368-2.608,2.052-4.34,2.052c-2.156,0-3.824-0.777-5.005-2.333
					c-1.182-1.555-1.771-3.42-1.771-5.595c0-1.496,0.271-2.876,0.812-4.141c0.541-1.265,1.326-2.242,2.354-2.931
					c1.028-0.688,2.237-1.033,3.625-1.033c1.85,0,3.375,0.748,4.576,2.243v-1.89h2.45v13.553c0,2.44-0.248,4.171-0.745,5.189
					c-0.497,1.019-1.284,1.823-2.362,2.414c-1.077,0.59-2.403,0.886-3.979,0.886c-1.87,0-3.381-0.421-4.532-1.263
					C186.452,80.979,185.896,79.712,185.936,78.019z M188.135,68.601c0,2.057,0.409,3.558,1.226,4.502
					c0.817,0.945,1.841,1.418,3.071,1.418c1.22,0,2.243-0.471,3.07-1.41c0.827-0.939,1.24-2.414,1.24-4.422
					c0-1.919-0.426-3.366-1.277-4.34c-0.852-0.975-1.877-1.462-3.078-1.462c-1.181,0-2.185,0.479-3.012,1.44
					C188.549,65.286,188.135,66.71,188.135,68.601z"/>
				<path style="fill:#263238;" d="M213.97,71.671l2.746,0.34c-0.434,1.604-1.235,2.849-2.406,3.734
					c-1.172,0.886-2.667,1.329-4.488,1.329c-2.293,0-4.111-0.706-5.455-2.119c-1.343-1.412-2.015-3.393-2.015-5.941
					c0-2.638,0.679-4.685,2.037-6.142c1.358-1.456,3.12-2.185,5.285-2.185c2.097,0,3.809,0.713,5.138,2.141
					c1.328,1.427,1.993,3.435,1.993,6.024c0,0.157-0.006,0.394-0.016,0.708h-11.691c0.098,1.723,0.585,3.041,1.461,3.957
					c0.876,0.915,1.969,1.372,3.277,1.372c0.975,0,1.807-0.255,2.495-0.768C213.02,73.609,213.566,72.793,213.97,71.671z
					 M205.245,67.375h8.754c-0.118-1.319-0.452-2.308-1.004-2.968c-0.847-1.023-1.943-1.535-3.292-1.535
					c-1.221,0-2.246,0.408-3.078,1.226C205.793,64.914,205.333,66.007,205.245,67.375z"/>
				<path style="fill:#263238;" d="M228.453,76.72V61.041h2.392v2.229c1.151-1.722,2.814-2.583,4.989-2.583
					c0.945,0,1.814,0.17,2.606,0.509c0.792,0.34,1.385,0.785,1.778,1.336c0.394,0.552,0.67,1.206,0.827,1.964
					c0.098,0.492,0.148,1.354,0.148,2.583v9.641h-2.657v-9.537c0-1.082-0.104-1.892-0.311-2.429c-0.206-0.536-0.573-0.964-1.1-1.284
					c-0.526-0.319-1.144-0.479-1.853-0.479c-1.132,0-2.108,0.359-2.931,1.078c-0.821,0.718-1.232,2.081-1.232,4.089v8.563H228.453z"
					/>
				<path style="fill:#263238;" d="M244.278,68.881c0-2.903,0.807-5.054,2.421-6.452c1.349-1.161,2.992-1.741,4.931-1.741
					c2.155,0,3.917,0.706,5.285,2.118c1.368,1.412,2.053,3.363,2.053,5.854c0,2.018-0.303,3.604-0.908,4.761
					c-0.605,1.157-1.486,2.055-2.643,2.694c-1.156,0.64-2.419,0.96-3.787,0.96c-2.194,0-3.969-0.704-5.321-2.111
					C244.955,73.556,244.278,71.528,244.278,68.881z M247.01,68.881c0,2.008,0.438,3.511,1.313,4.51
					c0.876,0.999,1.979,1.498,3.307,1.498c1.319,0,2.416-0.502,3.293-1.506c0.875-1.003,1.313-2.533,1.313-4.591
					c0-1.938-0.44-3.407-1.321-4.406c-0.881-0.999-1.975-1.499-3.285-1.499c-1.328,0-2.431,0.497-3.307,1.491
					C247.447,65.372,247.01,66.873,247.01,68.881z"/>
				<path style="fill:#263238;" d="M267.885,74.343l0.384,2.348c-0.748,0.157-1.417,0.236-2.008,0.236
					c-0.965,0-1.713-0.153-2.244-0.458c-0.531-0.305-0.905-0.706-1.122-1.203c-0.217-0.497-0.324-1.543-0.324-3.137v-9.021h-1.949
					v-2.067h1.949v-3.882l2.643-1.595v5.477h2.672v2.067h-2.672v9.168c0,0.758,0.046,1.245,0.14,1.461
					c0.094,0.217,0.246,0.39,0.458,0.517c0.212,0.129,0.514,0.192,0.908,0.192C267.014,74.446,267.402,74.412,267.885,74.343z"/>
				<path style="fill:#263238;" d="M279.518,76.72V63.108h-2.348v-2.067h2.348v-1.668c0-1.053,0.094-1.835,0.28-2.347
					c0.256-0.69,0.706-1.248,1.35-1.676c0.645-0.429,1.548-0.643,2.709-0.643c0.748,0,1.575,0.089,2.48,0.266l-0.398,2.318
					c-0.552-0.099-1.073-0.147-1.566-0.147c-0.807,0-1.378,0.172-1.712,0.517c-0.335,0.345-0.502,0.988-0.502,1.934v1.446h3.056
					v2.067h-3.056V76.72H279.518z"/>
				<path style="fill:#263238;" d="M286.294,68.881c0-2.903,0.807-5.054,2.421-6.452c1.349-1.161,2.992-1.741,4.931-1.741
					c2.155,0,3.917,0.706,5.285,2.118c1.368,1.412,2.053,3.363,2.053,5.854c0,2.018-0.303,3.604-0.908,4.761
					c-0.605,1.157-1.486,2.055-2.643,2.694c-1.156,0.64-2.419,0.96-3.787,0.96c-2.194,0-3.969-0.704-5.321-2.111
					C286.971,73.556,286.294,71.528,286.294,68.881z M289.025,68.881c0,2.008,0.438,3.511,1.314,4.51
					c0.876,0.999,1.979,1.498,3.307,1.498c1.319,0,2.416-0.502,3.293-1.506c0.875-1.003,1.314-2.533,1.314-4.591
					c0-1.938-0.441-3.407-1.321-4.406c-0.881-0.999-1.976-1.499-3.285-1.499c-1.328,0-2.431,0.497-3.307,1.491
					C289.463,65.372,289.025,66.873,289.025,68.881z"/>
				<path style="fill:#263238;" d="M314.372,76.72v-2.303c-1.22,1.771-2.878,2.657-4.975,2.657c-0.926,0-1.789-0.178-2.591-0.531
					c-0.803-0.354-1.397-0.8-1.786-1.337c-0.39-0.536-0.662-1.192-0.819-1.971c-0.108-0.521-0.163-1.348-0.163-2.479v-9.715h2.657
					v8.696c0,1.388,0.055,2.322,0.163,2.805c0.167,0.699,0.522,1.247,1.063,1.646c0.541,0.399,1.211,0.599,2.008,0.599
					c0.797,0,1.545-0.204,2.244-0.613c0.698-0.408,1.193-0.964,1.483-1.668c0.29-0.703,0.436-1.725,0.436-3.063v-8.4h2.657V76.72
					H314.372z"/>
				<path style="fill:#263238;" d="M320.913,76.72V61.041h2.392v2.229c1.151-1.722,2.814-2.583,4.989-2.583
					c0.945,0,1.813,0.17,2.606,0.509c0.792,0.34,1.385,0.785,1.778,1.336c0.394,0.552,0.67,1.206,0.827,1.964
					c0.098,0.492,0.147,1.354,0.147,2.583v9.641h-2.657v-9.537c0-1.082-0.103-1.892-0.311-2.429c-0.206-0.536-0.573-0.964-1.1-1.284
					c-0.526-0.319-1.143-0.479-1.853-0.479c-1.132,0-2.108,0.359-2.931,1.078c-0.821,0.718-1.232,2.081-1.232,4.089v8.563H320.913z"
					/>
				<path style="fill:#263238;" d="M347.899,76.72v-1.979c-0.994,1.556-2.456,2.333-4.385,2.333c-1.25,0-2.399-0.345-3.447-1.033
					c-1.048-0.689-1.86-1.651-2.436-2.887c-0.576-1.234-0.864-2.654-0.864-4.259c0-1.565,0.261-2.984,0.782-4.259
					c0.521-1.275,1.305-2.252,2.348-2.931c1.043-0.68,2.209-1.019,3.499-1.019c0.944,0,1.786,0.199,2.524,0.598
					c0.738,0.398,1.338,0.918,1.801,1.558v-7.766h2.643V76.72H347.899z M339.499,68.896c0,2.008,0.423,3.509,1.27,4.503
					c0.847,0.994,1.846,1.49,2.997,1.49c1.161,0,2.147-0.475,2.96-1.424c0.812-0.95,1.218-2.399,1.218-4.348
					c0-2.146-0.413-3.721-1.24-4.725c-0.826-1.004-1.846-1.506-3.056-1.506c-1.182,0-2.168,0.482-2.96,1.447
					C339.895,65.298,339.499,66.819,339.499,68.896z"/>
			</g>
		</g>
		<g>
			<circle style="fill:#263238;" cx="250" cy="106.491" r="18.544"/>
			<circle style="fill:#FFFFFF;" cx="250" cy="106.491" r="15.777"/>
			<polygon style="fill:#407BFF;" points="260.667,103.09 253.274,103.09 259.483,84.721 239.333,109.893 246.727,109.893 
				240.517,128.261 			"/>
			
				<rect x="248.441" y="88.945" transform="matrix(-0.7071 0.7071 -0.7071 -0.7071 502.0772 5.0148)" style="fill:#263238;" width="3.118" height="35.092"/>
		</g>
	</g>
</g>
</svg>
