<svg width="25" height="22" viewBox="0 0 25 22" fill="none" xmlns="http://www.w3.org/2000/svg">
<path d="M23.25 10.7915C22.9 10.7915 22.5885 10.6763 22.3155 10.4461C22.0416 10.2167 21.8828 9.93213 21.8391 9.5924C21.5547 7.73387 20.6963 6.14993 19.2639 4.84057C17.8307 3.532 16.0969 2.74782 14.0625 2.48803C13.6906 2.44806 13.3791 2.30817 13.128 2.06836C12.876 1.82855 12.75 1.53878 12.75 1.19905C12.75 0.859319 12.8813 0.574345 13.1438 0.344127C13.4062 0.114709 13.7125 0.0199841 14.0625 0.0599525C16.8187 0.339731 19.1703 1.36892 21.1172 3.14751C23.0641 4.9261 24.1906 7.0744 24.4969 9.5924C24.5406 9.91215 24.4365 10.1919 24.1845 10.4317C23.9334 10.6715 23.6219 10.7915 23.25 10.7915ZM17.7703 10.7915C17.4859 10.7915 17.2344 10.7015 17.0156 10.5217C16.7969 10.3418 16.6328 10.102 16.5234 9.80224C16.3484 9.2227 16.0151 8.7079 15.5233 8.25786C15.0307 7.80862 14.4672 7.50406 13.8328 7.34418C13.5047 7.24426 13.2422 7.09438 13.0453 6.89454C12.8484 6.6947 12.75 6.45489 12.75 6.17511C12.75 5.77542 12.9031 5.45048 13.2094 5.20028C13.5156 4.95088 13.8547 4.86615 14.2266 4.94608C15.4516 5.20588 16.5072 5.74025 17.3936 6.54921C18.2791 7.35897 18.8641 8.32341 19.1484 9.44252C19.2359 9.78225 19.1375 10.092 18.8531 10.3718C18.5688 10.6516 18.2078 10.7915 17.7703 10.7915ZM23.1844 21.5829C20.3625 21.5829 17.6119 21.0082 14.9327 19.8587C12.2526 18.71 9.87912 17.1912 7.81238 15.3023C5.74475 13.4142 4.08225 11.2459 2.82488 8.79743C1.56663 6.34977 0.9375 3.83696 0.9375 1.259C0.9375 0.899288 1.06875 0.599525 1.33125 0.359715C1.59375 0.119905 1.92188 0 2.31563 0H7.63125C7.9375 0 8.21094 0.0899286 8.45156 0.269786C8.69219 0.449644 8.83438 0.679462 8.87813 0.95924L9.73125 5.15592C9.775 5.4357 9.76975 5.69029 9.7155 5.91971C9.66037 6.14993 9.53437 6.35497 9.3375 6.53482L6.1875 9.4725C7.10625 10.9114 8.25469 12.2603 9.63281 13.5193C11.0109 14.7783 12.5313 15.8674 14.1938 16.7867L17.2781 13.9689C17.475 13.7891 17.7323 13.654 18.0499 13.5637C18.3666 13.4741 18.6781 13.4493 18.9844 13.4893L23.5125 14.3287C23.8188 14.3886 24.0703 14.5233 24.2672 14.7327C24.4641 14.943 24.5625 15.188 24.5625 15.4677V20.3239C24.5625 20.6836 24.4313 20.9834 24.1688 21.2232C23.9063 21.463 23.5781 21.5829 23.1844 21.5829Z" fill="white"/>
</svg>
