<svg xmlns="http://www.w3.org/2000/svg" width="32" height="32" fill="none" viewBox="0 0 32 32">
  <path fill="#1B8EF2" d="M30.24 0H1.26C.563 0 0 .563 0 1.26v28.98c0 .697.563 1.26 1.26 1.26h28.98c.697 0 1.26-.563 1.26-1.26V1.26C31.5.563 30.937 0 30.24 0Zm-6.013 11.407c.012.185.012.378.012.567 0 5.78-4.402 12.439-12.446 12.439-2.48 0-4.78-.721-6.718-1.961.355.039.693.055 1.056.055 2.047 0 3.93-.693 5.43-1.867a4.374 4.374 0 0 1-4.088-3.032c.674.099 1.28.099 1.973-.078a4.371 4.371 0 0 1-3.5-4.292v-.055c.578.327 1.26.527 1.972.555A4.375 4.375 0 0 1 5.97 10.1c0-.815.213-1.56.595-2.205a12.414 12.414 0 0 0 9.017 4.571c-.618-2.973 1.602-5.378 4.272-5.378 1.26 0 2.394.527 3.193 1.378a8.639 8.639 0 0 0 2.776-1.052 4.353 4.353 0 0 1-1.921 2.406 8.649 8.649 0 0 0 2.52-.681 9.161 9.161 0 0 1-2.194 2.268Z"/>
</svg>
