<svg width="124" height="124" viewBox="0 0 124 124" fill="none" xmlns="http://www.w3.org/2000/svg">
<g filter="url(#filter0_d_511_198)">
<rect x="4" width="116" height="116" rx="58" fill="white"/>
</g>
<path d="M49.9516 53.5071C39.8669 53.5071 31.6935 45.3358 31.6935 35.2535C31.6935 25.1713 39.8669 17 49.9516 17C60.0363 17 68.2096 25.1713 68.2096 35.2535C68.2096 45.3358 60.0363 53.5071 49.9516 53.5071ZM43.4329 60.3522H56.4703C58.1534 60.3522 59.8081 60.5233 61.3914 60.8228C61.0918 63.461 62.4469 65.8995 64.501 67.2115C62.1331 68.7231 60.6924 71.7179 61.6481 74.8124C62.2187 76.652 62.989 78.4489 63.9875 80.1744C64.9859 81.8999 66.1556 83.4686 67.4679 84.8804C69.7074 87.2904 73.1165 87.5043 75.627 86.121V86.2494C75.627 87.5614 76.0121 88.8876 76.7538 89.9999H22.2364C19.8971 90.0142 18 88.1175 18 85.7788C18 71.7321 29.3828 60.3522 43.4329 60.3522ZM80.1915 48.1166C80.1915 47.1184 80.8333 46.2199 81.8033 46.006C83.301 45.6638 84.8701 45.4784 86.4677 45.4784C88.0652 45.4784 89.6343 45.6638 91.132 46.006C92.102 46.2199 92.7439 47.1184 92.7439 48.1166V52.4803C93.8707 52.9652 94.9405 53.5784 95.9248 54.3057L99.4765 52.2664C100.347 51.7673 101.431 51.8814 102.115 52.6087C103.199 53.7638 104.155 55.0615 104.982 56.4876C105.81 57.9136 106.452 59.3967 106.908 60.9083C107.208 61.8638 106.751 62.862 105.881 63.3612L102.315 65.4147C102.372 65.9851 102.415 66.5698 102.415 67.1687C102.415 67.7677 102.386 68.3381 102.315 68.9228L105.881 70.9763C106.751 71.4754 107.193 72.4737 106.908 73.4291C106.437 74.9407 105.796 76.4238 104.982 77.8499C104.169 79.276 103.199 80.5737 102.115 81.7288C101.431 82.4561 100.332 82.5702 99.4765 82.071L95.9248 80.0318C94.9405 80.7591 93.885 81.3723 92.7439 81.8571V86.2209C92.7439 87.2191 92.102 88.1175 91.132 88.3314C89.6343 88.6737 88.0652 88.8591 86.4677 88.8591C84.8701 88.8591 83.301 88.6737 81.8033 88.3314C80.8333 88.1175 80.1915 87.2191 80.1915 86.2209V81.8571C79.0503 81.3723 77.9663 80.7591 76.982 80.0175L73.4588 82.0568C72.5887 82.5559 71.5046 82.4418 70.82 81.7145C69.7359 80.5594 68.7802 79.2617 67.9529 77.8356C67.1256 76.4096 66.4837 74.9265 66.0272 73.4149C65.7277 72.4594 66.1841 71.4612 67.0542 70.962L70.5917 68.9228C70.5347 68.3381 70.4919 67.7534 70.4919 67.1545C70.4919 66.5555 70.5204 65.9708 70.5917 65.3862L67.04 63.3469C66.1699 62.8478 65.7277 61.8495 66.013 60.8941C66.4837 59.3824 67.1113 57.8993 67.9386 56.4733C68.7659 55.0472 69.7216 53.7495 70.8057 52.5944C71.4904 51.8671 72.5744 51.753 73.4445 52.2522L76.982 54.2914C77.9663 53.5641 79.0503 52.9509 80.1915 52.4518V48.1166V48.1166ZM93.3287 67.1545C93.3287 63.3754 90.2619 60.3094 86.4677 60.3094C82.6734 60.3094 79.6066 63.3754 79.6066 67.1545C79.6066 70.9335 82.6734 73.9996 86.4677 73.9996C90.2619 73.9996 93.3287 70.9335 93.3287 67.1545Z" fill="#1B8EF2"/>
<defs>
<filter id="filter0_d_511_198" x="0" y="0" width="124" height="124" filterUnits="userSpaceOnUse" color-interpolation-filters="sRGB">
<feFlood flood-opacity="0" result="BackgroundImageFix"/>
<feColorMatrix in="SourceAlpha" type="matrix" values="0 0 0 0 0 0 0 0 0 0 0 0 0 0 0 0 0 0 127 0" result="hardAlpha"/>
<feOffset dy="4"/>
<feGaussianBlur stdDeviation="2"/>
<feComposite in2="hardAlpha" operator="out"/>
<feColorMatrix type="matrix" values="0 0 0 0 0 0 0 0 0 0 0 0 0 0 0 0 0 0 0.25 0"/>
<feBlend mode="normal" in2="BackgroundImageFix" result="effect1_dropShadow_511_198"/>
<feBlend mode="normal" in="SourceGraphic" in2="effect1_dropShadow_511_198" result="shape"/>
</filter>
</defs>
</svg>
