<svg width="124" height="124" viewBox="0 0 124 124" fill="none" xmlns="http://www.w3.org/2000/svg">
<g filter="url(#filter0_d_511_198)">
<rect x="4" width="116" height="116" rx="58" fill="white"/>
</g>
<path d="M63.4081 22.0932L62.7776 25.9043C60.1107 25.8887 57.4522 26.2063 54.864 26.8498L53.443 23.0765L45.1436 26.2006L46.6351 30.1575C44.3734 31.4507 42.2756 33.0114 40.387 34.8061L37.0088 32.0345L31.3817 38.8849L34.8633 41.741C33.5577 43.9475 32.5215 46.3027 31.7769 48.756L27.2507 48.0078L25.8064 56.7544L30.3842 57.5119C30.3279 60.1042 30.5819 62.6499 31.1229 65.1057L26.7709 66.743L29.8949 75.0425L34.2046 73.4192C35.4202 75.6815 36.9 77.7915 38.613 79.7049L35.7573 83.1819L42.6125 88.8043L45.3742 85.4403C47.5401 86.8131 49.897 87.9361 52.4033 88.7714L51.7213 92.9117L60.4676 94.3561L61.1215 90.399C63.8384 90.5306 66.506 90.3177 69.0822 89.7923L70.4327 93.3726L78.7275 90.2485L77.4433 86.8375C79.8706 85.5821 82.1295 84.0251 84.1664 82.2033L86.8668 84.4195L92.4892 77.5642L89.9015 75.4424C91.39 73.094 92.5667 70.5619 93.4019 67.91L96.6249 68.4414L98.0642 59.6949L94.8935 59.1725C94.9842 56.3856 94.7105 53.5988 94.0793 50.8828L97.0669 49.7581L93.9429 41.4587L90.9036 42.602C89.5645 40.1751 87.9201 37.9298 86.0104 35.9209L88.1416 33.3237L81.2912 27.6966L79.075 30.397C76.757 29.0246 74.2376 27.9324 71.5568 27.1646L72.154 23.5373L63.4077 22.0929L63.4081 22.0932ZM62.1992 29.3106C63.904 29.2886 65.6075 29.4176 67.2895 29.6964C82.9458 32.2805 93.568 47.1017 90.9837 62.7579C88.3995 78.4138 73.5783 89.0362 57.9221 86.452C42.2663 83.8674 31.6438 69.0461 34.228 53.3902C36.4894 39.691 48.1232 29.8451 61.4837 29.3291C61.7223 29.3201 61.9595 29.3136 62.1989 29.3105L62.1992 29.3106ZM62.2318 32.1241C62.0155 32.1268 61.7982 32.1301 61.5829 32.1382C49.5151 32.5955 39.0487 41.4603 37.0044 53.8465C34.6678 68.0023 44.2277 81.3392 58.3836 83.6757C72.539 86.0124 85.8713 76.4524 88.208 62.2966C90.5446 48.1412 80.9892 34.8088 66.8333 32.4723C65.3128 32.2211 63.773 32.1046 62.232 32.1241H62.2318ZM62.2933 34.8576C63.6483 34.8401 65.0251 34.9398 66.41 35.1684C79.0712 37.2581 87.616 49.1841 85.5262 61.8452C83.4365 74.5065 71.5154 83.0512 58.8541 80.9615C54.9685 80.3201 51.4722 78.7513 48.5502 76.5201L65.0646 56.4018L73.0206 62.9322L81.8188 52.2143L65.5254 38.8478L50.1924 44.1971L60.8819 52.9671L44.6541 72.7465C40.5913 67.7681 38.6069 61.1346 39.7376 54.2844C41.5663 43.2059 50.9215 35.2805 61.7145 34.8719C61.9072 34.8647 62.0995 34.8603 62.2931 34.8578L62.2933 34.8576Z" fill="#1B8EF2"/>
<defs>
<filter id="filter0_d_511_198" x="0" y="0" width="124" height="124" filterUnits="userSpaceOnUse" color-interpolation-filters="sRGB">
<feFlood flood-opacity="0" result="BackgroundImageFix"/>
<feColorMatrix in="SourceAlpha" type="matrix" values="0 0 0 0 0 0 0 0 0 0 0 0 0 0 0 0 0 0 127 0" result="hardAlpha"/>
<feOffset dy="4"/>
<feGaussianBlur stdDeviation="2"/>
<feComposite in2="hardAlpha" operator="out"/>
<feColorMatrix type="matrix" values="0 0 0 0 0 0 0 0 0 0 0 0 0 0 0 0 0 0 0.25 0"/>
<feBlend mode="normal" in2="BackgroundImageFix" result="effect1_dropShadow_511_198"/>
<feBlend mode="normal" in="SourceGraphic" in2="effect1_dropShadow_511_198" result="shape"/>
</filter>
</defs>
</svg>
