<?xml version="1.0" encoding="UTF-8" standalone="no"?>
<!-- Created with Inkscape (http://www.inkscape.org/) -->

<svg
   version="1.1"
   id="svg2"
   width="4000"
   height="2666.6667"
   viewBox="0 0 4000 2666.6667"
   sodipodi:docname="8454.eps"
   xmlns:inkscape="http://www.inkscape.org/namespaces/inkscape"
   xmlns:sodipodi="http://sodipodi.sourceforge.net/DTD/sodipodi-0.dtd"
   xmlns="http://www.w3.org/2000/svg"
   xmlns:svg="http://www.w3.org/2000/svg">
  <defs
     id="defs6" />
  <sodipodi:namedview
     id="namedview4"
     pagecolor="#ffffff"
     bordercolor="#000000"
     borderopacity="0.25"
     inkscape:showpageshadow="2"
     inkscape:pageopacity="0.0"
     inkscape:pagecheckerboard="0"
     inkscape:deskcolor="#d1d1d1" />
  <g
     id="g8"
     inkscape:groupmode="layer"
     inkscape:label="ink_ext_XXXXXX"
     transform="matrix(1.3333333,0,0,-1.3333333,0,2666.6667)">
    <g
       id="g10"
       transform="scale(0.1)">
      <path
         d="M 30000,0 H 0 V 20000 H 30000 V 0"
         style="fill:#ffffff;fill-opacity:1;fill-rule:nonzero;stroke:none"
         id="path12" />
      <path
         d="m 23737.3,11212.4 c -978.6,834.8 -2158.4,5869 -6199.9,3247 -2088,-1354.6 -5609,1163 -8523.25,293.4 C 6337.73,13954.2 6079.74,11323 6338.71,10465.7 6861.81,8733.8 5233.94,8476.1 3723.81,7732 1355.02,6564.8 3110.52,2419.3 5348.33,2399.7 c 2237.82,-19.7 15777.47,0 15777.47,0 0,0 3254.7,74.3 4606.6,1868.6 1454.8,1930.8 532.6,4787.9 -1995.1,6944.1"
         style="fill:#ebf2f9;fill-opacity:1;fill-rule:nonzero;stroke:none"
         id="path14" />
      <path
         d="m 10430.9,2864.2 c 0,0 28.3,-457.1 116.8,-463.7 11.8,-0.8 448.6,-0.8 448.6,-0.8 l 557.6,3.2 c 0,0 -3.7,134.3 -166.7,162.8 -163,28.4 -435.8,142.9 -534.5,358.3 -103.9,226.7 -421.8,-59.8 -421.8,-59.8"
         style="fill:#163560;fill-opacity:1;fill-rule:nonzero;stroke:none"
         id="path16" />
      <path
         d="m 10229.9,8199.1 c 0,0 243,-62.4 397.4,-15.8 154.4,46.5 420.2,-29.9 463,-86.2 42.8,-56.3 27.1,-78.7 -49.3,-98.1 -76.4,-19.5 -347,-134.9 -524.8,-68.1 -177.8,66.8 -409.8,69.2 -409.8,69.2 l 123.5,199"
         style="fill:#e49963;fill-opacity:1;fill-rule:nonzero;stroke:none"
         id="path18" />
      <path
         d="m 8130.45,10309.4 c 0,0 272.9,-1939.6 724.76,-2113.3 222.97,-85.7 1208.39,-280 1499.89,-299.6 0,0 71.4,58 54,293.8 0,0 -1032.43,379 -1179.09,585.1 -218.28,306.8 135.51,1253.2 -138.39,1541.4 -273.91,288.1 -735.21,411.9 -961.17,-7.4"
         style="fill:#4a75cb;fill-opacity:1;fill-rule:nonzero;stroke:none"
         id="path20" />
      <path
         d="M 8165.31,2836.1 V 3259 h -665.77 c -17.98,0 -32.66,14.7 -32.66,32.7 v 67.7 c 0,18 14.68,32.7 32.66,32.7 h 665.77 v 2407.2 c 0,67.6 55.27,122.8 122.82,122.8 h 131.74 c 67.55,0 122.82,-55.2 122.82,-122.8 V 3392.1 h 665.77 c 17.97,0 32.67,-14.7 32.67,-32.7 v -67.7 c 0,-18 -14.7,-32.7 -32.67,-32.7 h -665.77 v -422.9 c 481.7,-36.4 867.64,-209.8 975.91,-433.9 H 7189.39 c 108.27,224.1 494.21,397.5 975.92,433.9"
         style="fill:#a6c7f9;fill-opacity:1;fill-rule:nonzero;stroke:none"
         id="path22" />
      <path
         d="m 8222.42,6223.1 c 79.6,-135 171.67,-261.6 266.57,-381.4 293.3,-370.3 612.57,-675.6 668.2,-964.1 11.05,-57.6 28.61,-119.5 51.56,-184.7 23.22,-66.2 51.93,-135.7 85.08,-207.5 124.46,-270.4 310.58,-573.3 496.42,-848.7 321.25,-476 623.35,-873.2 623.35,-873.2 l 554,23.6 c -22.2,55.5 -263.8,712.8 -587.1,1516 -131.2,326.1 -270.8,672.9 -405.45,1007.4 -17.94,44.7 -35.88,89.2 -53.63,133.3 -41.18,102.3 -81.69,203.1 -121.25,301.2 -303.51,754.2 -545.25,1354.8 -545.25,1354.8 0,0 -1213.04,459.5 -1339.02,161.8 -103.88,-245.6 -19.27,-486.1 306.52,-1038.5"
         style="fill:#e58638;fill-opacity:1;fill-rule:nonzero;stroke:none"
         id="path24" />
      <path
         d="m 9148.09,4170.2 c 0,0 -385.34,-247.6 -347.94,-328 4.97,-10.7 217.92,-392.1 217.92,-392.1 l 274.65,-485.3 c 0,0 115.54,68.7 60.88,224.9 -54.65,156.1 -87.64,450.2 52.33,641.4 147.23,201.2 -257.84,339.1 -257.84,339.1"
         style="fill:#163560;fill-opacity:1;fill-rule:nonzero;stroke:none"
         id="path26" />
      <path
         d="m 9669.45,7317.9 c 0,0 1522.65,-948.4 1692.55,-1585.8 C 11532,5094.7 9336.59,3735 9336.59,3735 c 0,0 -240.79,212.4 -283.28,368.2 0,0 992.39,1188.9 1207.59,1455.5 132.2,163.6 -1954.71,566.6 -2209.65,963.1 -254.95,396.6 -163.68,730.3 -163.68,730.3 l 1781.88,65.8"
         style="fill:#ee9849;fill-opacity:1;fill-rule:nonzero;stroke:none"
         id="path28" />
      <path
         d="m 6795.89,6100 h 3116.22 c 62.32,0 113.29,-51 113.29,-113.3 v -623.2 c 0,-62.4 -50.97,-113.4 -113.29,-113.4 H 6795.89 c -62.33,0 -113.32,51 -113.32,113.4 v 623.2 c 0,62.3 50.99,113.3 113.32,113.3"
         style="fill:#1c468a;fill-opacity:1;fill-rule:nonzero;stroke:none"
         id="path30" />
      <path
         d="m 8965.37,10641.8 c 149.55,-92.6 231.95,-210.2 231.95,-210.2 -364.76,-94.3 -969.47,243.7 -969.47,243.7 0,0 234.8,157.8 321.78,504.4 4.4,17.5 8.42,35.4 11.95,53.8 11.4,58.4 18.48,121.6 19.75,189.8 l 167.57,-150.1 278.63,-249.6 c 0,0 -6.32,-103.6 -41.18,-281.8 -6.06,-31.1 -13.01,-64.4 -20.98,-100"
         style="fill:#e49963;fill-opacity:1;fill-rule:nonzero;stroke:none"
         id="path32" />
      <path
         d="m 7843.31,8921 c 52.25,-702.8 -35.62,-1771.1 23.64,-1956.2 51.17,-159.7 653.16,-65.2 885.8,-11.9 86.12,19.8 190.42,47.9 298.15,81.3 300.47,93 627.88,225.9 663.01,324.5 1.35,3.9 2.52,7.7 3.24,11.3 3.24,14.4 2.52,27.8 -0.63,41.4 -11.72,50.3 -56.83,104.7 -62.14,229.1 -5.95,139 -5.05,302.7 -10.28,478.7 -0.27,19.8 -0.54,41.4 -2.69,61.1 l -0.1,7.2 c -0.09,3.8 -0.18,7.5 -0.27,11.3 -5.04,196.3 -15.31,402.6 -27.2,607.3 -7.57,128.5 -16.3,255.8 -26.39,377.7 -26.21,314.8 -61.52,594.7 -108.26,771.7 -76.39,288.5 -244.81,476.7 -398.13,614.6 l -110.87,95.1 c -123.75,-27 -270.03,-9.1 -402.35,53.6 -143.21,68 -192.65,116.7 -217.61,98.4 C 8019.49,10562 7781.61,9780.1 7843.31,8921"
         style="fill:#739af0;fill-opacity:1;fill-rule:nonzero;stroke:none"
         id="path34" />
      <path
         d="m 9049.18,7032.8 c 300.47,93 627.88,225.9 663.01,324.5 1.35,3.9 2.52,7.7 3.24,11.3 -0.18,13.8 -0.35,27.6 -0.63,41.4 -11.7,50.2 -56.83,104.6 -62.14,229.1 -5.95,139 -5.05,302.7 -10.28,478.7 -0.27,19.8 -0.53,41.4 -2.7,61.1 l -0.09,7.2 c -0.09,3.8 -0.18,7.5 -0.26,11.3 l -1134.99,514.7 c 0,0 -65.39,-914.7 544.84,-1679.3"
         style="fill:#4a75cb;fill-opacity:1;fill-rule:nonzero;stroke:none"
         id="path36" />
      <path
         d="m 9027.53,11023.6 c 0,0 -6.32,-103.6 -41.18,-281.8 -272.07,87.9 -395.51,333.7 -436.72,437.9 -11.72,29.5 -16.81,47.7 -16.81,47.7 0,0 10.56,2.2 28.76,6.1 38.24,8.1 110.27,23.4 187.32,39.7 l 278.63,-249.6"
         style="fill:#d68d5d;fill-opacity:1;fill-rule:nonzero;stroke:none"
         id="path38" />
      <path
         d="m 9137.68,11026.3 c 0,0 -597.76,-67.4 -634.02,305.5 -36.25,372.9 -137.82,615.3 242.3,674.1 380.11,58.8 468.22,-76.2 510.59,-197.8 42.38,-121.5 35.69,-754.7 -118.87,-781.8"
         style="fill:#e49963;fill-opacity:1;fill-rule:nonzero;stroke:none"
         id="path40" />
      <path
         d="m 8506.24,11306 c 0,0 37.9,495 582.02,546.3 372.7,35.1 164.91,355.9 125.19,407 0,0 -285.55,-39.1 -578.24,-87.5 -614.33,-101.5 -189.3,-788.7 -128.97,-865.8"
         style="fill:#2b478b;fill-opacity:1;fill-rule:nonzero;stroke:none"
         id="path42" />
      <path
         d="m 11399.7,7713.1 52.3,-17 445.2,1370.1 -52.3,17 -445.2,-1370.1"
         style="fill:#4a75cb;fill-opacity:1;fill-rule:nonzero;stroke:none"
         id="path44" />
      <path
         d="m 9942.54,7818.8 1511.36,-32.3 -1.9,-90.4 -1511.39,32.3 1.93,90.4"
         style="fill:#4a75cb;fill-opacity:1;fill-rule:nonzero;stroke:none"
         id="path46" />
      <path
         d="m 10104.9,7901 c 0,0 234.6,-88.8 393.2,-59.6 158.6,29.2 414.3,-76 450.7,-136.7 36.3,-60.7 18.2,-81.2 -59.8,-92.1 -78.1,-10.9 -359.8,-95.8 -529.1,-9.8 -169.4,86 -399.69,114 -399.69,114 l 144.69,184.2"
         style="fill:#e49963;fill-opacity:1;fill-rule:nonzero;stroke:none"
         id="path48" />
      <path
         d="m 8250.88,10229.8 c 0,0 57.4,-1957.8 487.37,-2180.3 212.15,-109.8 1170.12,-411.6 1457.65,-463.1 0,0 77.4,49.7 86.1,286 0,0 -984.33,490.5 -1107.38,711.5 -183.13,329 272.85,1230.7 32.38,1547.3 -240.46,316.5 -685.31,490.4 -956.12,98.6"
         style="fill:#739af0;fill-opacity:1;fill-rule:nonzero;stroke:none"
         id="path50" />
      <path
         d="m 13729.7,5553.7 h 7799.7 c 544.3,0 985.6,441.3 985.6,985.6 v 10664.5 c 0,544.3 -441.3,985.5 -985.6,985.5 h -7799.7 c -544.3,0 -985.6,-441.2 -985.6,-985.5 V 6539.3 c 0,-544.3 441.3,-985.6 985.6,-985.6"
         style="fill:#d2e4ff;fill-opacity:1;fill-rule:nonzero;stroke:none"
         id="path52" />
      <path
         d="m 13704.2,6832.8 h 7866.7 V 16865.1 H 13704.2 V 6832.8"
         style="fill:#f3f9ff;fill-opacity:1;fill-rule:nonzero;stroke:none"
         id="path54" />
      <path
         d="m 20455.4,7273.1 v 0 c -229.3,0 -415.1,185.9 -415.1,415.1 v 5738.6 c 0,229.2 185.8,415.1 415.1,415.1 v 0 c 229.2,0 415,-185.9 415,-415.1 V 7688.2 c 0,-229.2 -185.8,-415.1 -415,-415.1"
         style="fill:#ee9849;fill-opacity:1;fill-rule:nonzero;stroke:none"
         id="path56" />
      <path
         d="m 19095.4,7273.1 v 0 c -229.3,0 -415.1,185.9 -415.1,415.1 v 7569.6 c 0,229.2 185.8,415.1 415.1,415.1 v 0 c 229.2,0 415,-185.9 415,-415.1 V 7688.2 c 0,-229.2 -185.8,-415.1 -415,-415.1"
         style="fill:#ee9849;fill-opacity:1;fill-rule:nonzero;stroke:none"
         id="path58" />
      <path
         d="m 17611.4,7273.1 v 0 c -229.2,0 -415,185.9 -415,415.1 v 4150.1 c 0,229.2 185.8,415.1 415,415.1 v 0 c 229.3,0 415.1,-185.9 415.1,-415.1 V 7688.2 c 0,-229.2 -185.8,-415.1 -415.1,-415.1"
         style="fill:#ee9849;fill-opacity:1;fill-rule:nonzero;stroke:none"
         id="path60" />
      <path
         d="m 16167.5,7273.1 v 0 c -229.3,0 -415.1,185.9 -415.1,415.1 v 6448.2 c 0,229.2 185.8,415 415.1,415 v 0 c 229.2,0 415,-185.8 415,-415 V 7688.2 c 0,-229.2 -185.8,-415.1 -415,-415.1"
         style="fill:#ee9849;fill-opacity:1;fill-rule:nonzero;stroke:none"
         id="path62" />
      <path
         d="M 15131,10863.5 V 7688.2 c 0,-229.2 -185.8,-415.1 -415,-415.1 v 0 c -229.3,0 -415.1,185.9 -415.1,415.1 v 3175.3 c 0,229.3 185.8,415.1 415.1,415.1 v 0 c 229.2,0 415,-185.8 415,-415.1"
         style="fill:#ee9849;fill-opacity:1;fill-rule:nonzero;stroke:none"
         id="path64" />
      <path
         d="m 15791.8,15065.5 h 703 c 40,0 72.7,-32.7 72.7,-72.7 0,-40 -32.7,-72.8 -72.7,-72.8 h -703 c -40,0 -72.8,32.8 -72.8,72.8 0,40 32.8,72.7 72.8,72.7"
         style="fill:#a6c7f9;fill-opacity:1;fill-rule:nonzero;stroke:none"
         id="path66" />
      <path
         d="m 16334.7,14800.8 h 160.1 c 40,0 72.7,-32.7 72.7,-72.7 0,-40 -32.7,-72.7 -72.7,-72.7 h -160.1 c -40,0 -72.8,32.7 -72.8,72.7 0,40 32.8,72.7 72.8,72.7"
         style="fill:#a6c7f9;fill-opacity:1;fill-rule:nonzero;stroke:none"
         id="path68" />
      <path
         d="m 18688.7,16181.7 h 703 c 40,0 72.7,-32.7 72.7,-72.7 0,-40 -32.7,-72.7 -72.7,-72.7 h -703 c -40,0 -72.8,32.7 -72.8,72.7 0,40 32.8,72.7 72.8,72.7"
         style="fill:#a6c7f9;fill-opacity:1;fill-rule:nonzero;stroke:none"
         id="path70" />
      <path
         d="m 19231.6,15917.1 h 160.1 c 40,0 72.7,-32.7 72.7,-72.7 v 0 c 0,-40 -32.7,-72.8 -72.7,-72.8 h -160.1 c -40,0 -72.8,32.8 -72.8,72.8 v 0 c 0,40 32.8,72.7 72.8,72.7"
         style="fill:#a6c7f9;fill-opacity:1;fill-rule:nonzero;stroke:none"
         id="path72" />
      <path
         d="m 20094.7,14352 h 703 c 40,0 72.7,-32.8 72.7,-72.8 0,-40 -32.7,-72.7 -72.7,-72.7 h -703 c -40,0 -72.7,32.7 -72.7,72.7 0,40 32.7,72.8 72.7,72.8"
         style="fill:#a6c7f9;fill-opacity:1;fill-rule:nonzero;stroke:none"
         id="path74" />
      <path
         d="m 20637.6,14087.3 h 160.1 c 40,0 72.7,-32.7 72.7,-72.7 v 0 c 0,-40 -32.7,-72.7 -72.7,-72.7 h -160.1 c -40,0 -72.7,32.7 -72.7,72.7 v 0 c 0,40 32.7,72.7 72.7,72.7"
         style="fill:#a6c7f9;fill-opacity:1;fill-rule:nonzero;stroke:none"
         id="path76" />
      <path
         d="m 17259.9,12762.7 h 703 c 40,0 72.8,-32.7 72.8,-72.7 0,-40 -32.8,-72.7 -72.8,-72.7 h -703 c -40,0 -72.7,32.7 -72.7,72.7 0,40 32.7,72.7 72.7,72.7"
         style="fill:#a6c7f9;fill-opacity:1;fill-rule:nonzero;stroke:none"
         id="path78" />
      <path
         d="m 17802.8,12498.1 h 160.1 c 40,0 72.8,-32.8 72.8,-72.8 v 0 c 0,-40 -32.8,-72.7 -72.8,-72.7 h -160.1 c -40,0 -72.7,32.7 -72.7,72.7 v 0 c 0,40 32.7,72.8 72.7,72.8"
         style="fill:#a6c7f9;fill-opacity:1;fill-rule:nonzero;stroke:none"
         id="path80" />
      <path
         d="m 14364.5,11790.9 h 703 c 40,0 72.7,-32.7 72.7,-72.7 0,-40 -32.7,-72.8 -72.7,-72.8 h -703 c -40,0 -72.8,32.8 -72.8,72.8 0,40 32.8,72.7 72.8,72.7"
         style="fill:#a6c7f9;fill-opacity:1;fill-rule:nonzero;stroke:none"
         id="path82" />
      <path
         d="m 14907.4,11526.3 h 160.1 c 40,0 72.7,-32.8 72.7,-72.8 0,-40 -32.7,-72.7 -72.7,-72.7 h -160.1 c -40,0 -72.8,32.7 -72.8,72.7 0,40 32.8,72.8 72.8,72.8"
         style="fill:#a6c7f9;fill-opacity:1;fill-rule:nonzero;stroke:none"
         id="path84" />
      <path
         d="m 14716,12414.4 c -87.3,0 -158.4,-71 -158.4,-158.3 0,-87.3 71.1,-158.3 158.4,-158.3 87.3,0 158.3,71 158.3,158.3 0,87.3 -71,158.3 -158.3,158.3 z m 0,-416.6 c -142.5,0 -258.4,115.9 -258.4,258.3 0,142.5 115.9,258.3 258.4,258.3 142.4,0 258.3,-115.8 258.3,-258.3 0,-142.4 -115.9,-258.3 -258.3,-258.3"
         style="fill:#2b478b;fill-opacity:1;fill-rule:nonzero;stroke:none"
         id="path86" />
      <path
         d="m 14606,12414.4 c -12.8,0 -25.6,4.9 -35.4,14.7 l -776.3,776.3 H 7487.27 c -27.62,0 -50,22.4 -50,50 0,27.6 22.38,50 50,50 h 6348.43 l 805.6,-805.6 c 19.6,-19.5 19.6,-51.2 0,-70.7 -9.7,-9.8 -22.5,-14.7 -35.3,-14.7"
         style="fill:#2b478b;fill-opacity:1;fill-rule:nonzero;stroke:none"
         id="path88" />
      <path
         d="m 16201.6,6967.2 c -87.3,0 -158.4,-71 -158.4,-158.3 0,-87.3 71.1,-158.4 158.4,-158.4 87.3,0 158.3,71.1 158.3,158.4 0,87.3 -71,158.3 -158.3,158.3 z m 0,-416.7 c -142.5,0 -258.4,115.9 -258.4,258.4 0,142.4 115.9,258.3 258.4,258.3 142.4,0 258.3,-115.9 258.3,-258.3 0,-142.5 -115.9,-258.4 -258.3,-258.4"
         style="fill:#2b478b;fill-opacity:1;fill-rule:nonzero;stroke:none"
         id="path90" />
      <path
         d="m 23330.3,5759.6 h -6248.5 l -805.6,805.6 c -19.5,19.5 -19.5,51.1 0,70.7 19.5,19.5 51.2,19.5 70.7,0 l 776.3,-776.3 h 6207.1 c 27.6,0 50,-22.4 50,-50 0,-27.7 -22.4,-50 -50,-50"
         style="fill:#2b478b;fill-opacity:1;fill-rule:nonzero;stroke:none"
         id="path92" />
      <path
         d="m 19059.2,16798.4 c -87.3,0 -158.4,-71.1 -158.4,-158.4 0,-87.3 71.1,-158.3 158.4,-158.3 87.3,0 158.3,71 158.3,158.3 0,87.3 -71,158.4 -158.3,158.4 z m 0,-416.7 c -142.5,0 -258.4,115.9 -258.4,258.3 0,142.5 115.9,258.4 258.4,258.4 142.4,0 258.3,-115.9 258.3,-258.4 0,-142.4 -115.9,-258.3 -258.3,-258.3"
         style="fill:#2b478b;fill-opacity:1;fill-rule:nonzero;stroke:none"
         id="path94" />
      <path
         d="m 18949.2,16798.4 c -12.8,0 -25.6,4.8 -35.4,14.6 l -776.3,776.3 h -6307 c -27.7,0 -50,22.4 -50,50 0,27.6 22.3,50 50,50 h 6348.4 l 805.6,-805.6 c 19.5,-19.5 19.5,-51.2 0,-70.7 -9.8,-9.8 -22.5,-14.6 -35.3,-14.6"
         style="fill:#2b478b;fill-opacity:1;fill-rule:nonzero;stroke:none"
         id="path96" />
      <path
         d="M 11702.4,13421.1 H 7558.94 c -69.96,0 -126.67,56.7 -126.67,126.7 v 0 c 0,69.9 56.71,126.6 126.67,126.6 h 4143.46 c 69.9,0 126.6,-56.7 126.6,-126.6 v 0 c 0,-70 -56.7,-126.7 -126.6,-126.7"
         style="fill:#739af0;fill-opacity:1;fill-rule:nonzero;stroke:none"
         id="path98" />
      <path
         d="M 11702.4,13821.1 H 9158.94 c -69.96,0 -126.67,56.7 -126.67,126.7 v 0 c 0,69.9 56.71,126.6 126.67,126.6 h 2543.46 c 69.9,0 126.6,-56.7 126.6,-126.6 v 0 c 0,-70 -56.7,-126.7 -126.6,-126.7"
         style="fill:#739af0;fill-opacity:1;fill-rule:nonzero;stroke:none"
         id="path100" />
      <path
         d="M 11702.4,14221.1 H 9158.94 c -69.96,0 -126.67,56.7 -126.67,126.7 v 0 c 0,69.9 56.71,126.6 126.67,126.6 h 2543.46 c 69.9,0 126.6,-56.7 126.6,-126.6 v 0 c 0,-70 -56.7,-126.7 -126.6,-126.7"
         style="fill:#739af0;fill-opacity:1;fill-rule:nonzero;stroke:none"
         id="path102" />
      <path
         d="m 16016.6,17830.9 h -4143.4 c -70,0 -126.7,56.7 -126.7,126.7 v 0 c 0,69.9 56.7,126.6 126.7,126.6 h 4143.4 c 70,0 126.7,-56.7 126.7,-126.6 v 0 c 0,-70 -56.7,-126.7 -126.7,-126.7"
         style="fill:#739af0;fill-opacity:1;fill-rule:nonzero;stroke:none"
         id="path104" />
      <path
         d="m 19985.3,4507.9 c 0,498 -403.7,901.7 -901.7,901.7 -497.9,0 -901.6,-403.7 -901.6,-901.7 0,-497.9 403.7,-901.6 901.6,-901.6 498,0 901.7,403.7 901.7,901.6"
         style="fill:#82b378;fill-opacity:1;fill-rule:nonzero;stroke:none"
         id="path106" />
      <path
         d="m 19083.6,5270.2 c 421,0 762.2,-341.3 762.2,-762.3 0,-208.3 -83.5,-397 -219,-534.6 l -543.2,534.6 -712.2,-271.8 c -32.2,84.4 -49.9,176 -49.9,271.8 0,421 341.2,762.3 762.1,762.3"
         style="fill:#ffffff;fill-opacity:1;fill-rule:nonzero;stroke:none"
         id="path108" />
      <path
         d="m 19195,4894.9 h 324.5 c 12.7,0 23.1,-10.4 23.1,-23.2 v 0 c 0,-12.7 -10.4,-23.2 -23.1,-23.2 H 19195 c -12.7,0 -23.2,10.5 -23.2,23.2 v 0 c 0,12.8 10.5,23.2 23.2,23.2"
         style="fill:#82b378;fill-opacity:1;fill-rule:nonzero;stroke:none"
         id="path110" />
      <path
         d="m 19195,4821.5 h 324.5 c 12.7,0 23.1,-10.4 23.1,-23.2 0,-12.7 -10.4,-23.2 -23.1,-23.2 H 19195 c -12.7,0 -23.2,10.5 -23.2,23.2 0,12.8 10.5,23.2 23.2,23.2"
         style="fill:#82b378;fill-opacity:1;fill-rule:nonzero;stroke:none"
         id="path112" />
      <path
         d="m 19385.5,4748.1 h 134 c 12.7,0 23.1,-10.4 23.1,-23.2 0,-12.7 -10.4,-23.1 -23.1,-23.1 h -134 c -12.8,0 -23.2,10.4 -23.2,23.1 0,12.8 10.4,23.2 23.2,23.2"
         style="fill:#82b378;fill-opacity:1;fill-rule:nonzero;stroke:none"
         id="path114" />
      <path
         d="m 18294,4931.1 356.7,356.7 H 18294 Z"
         style="fill:#82b378;fill-opacity:1;fill-rule:nonzero;stroke:none"
         id="path116" />
      <path
         d="m 23030.3,4507.9 c 0,498 -403.7,901.7 -901.7,901.7 -498,0 -901.7,-403.7 -901.7,-901.7 0,-497.9 403.7,-901.6 901.7,-901.6 498,0 901.7,403.7 901.7,901.6"
         style="fill:#82b378;fill-opacity:1;fill-rule:nonzero;stroke:none"
         id="path118" />
      <path
         d="m 21366.4,4507.9 c 0,421 341.2,762.3 762.2,762.3 421,0 762.2,-341.3 762.2,-762.3 0,-420.9 -341.2,-762.2 -762.2,-762.2 -173.9,0 -334.1,58.2 -462.3,156.2 l 462.3,606 -712.3,-271.8 c -32.2,84.4 -49.9,176 -49.9,271.8"
         style="fill:#ffffff;fill-opacity:1;fill-rule:nonzero;stroke:none"
         id="path120" />
      <path
         d="m 22246.2,4894.9 h 324.5 c 12.7,0 23.1,-10.4 23.1,-23.2 v 0 c 0,-12.7 -10.4,-23.2 -23.1,-23.2 h -324.5 c -12.7,0 -23.2,10.5 -23.2,23.2 v 0 c 0,12.8 10.5,23.2 23.2,23.2"
         style="fill:#82b378;fill-opacity:1;fill-rule:nonzero;stroke:none"
         id="path122" />
      <path
         d="m 22246.2,4821.5 h 324.5 c 12.7,0 23.1,-10.4 23.1,-23.2 0,-12.7 -10.4,-23.2 -23.1,-23.2 h -324.5 c -12.7,0 -23.2,10.5 -23.2,23.2 0,12.8 10.5,23.2 23.2,23.2"
         style="fill:#82b378;fill-opacity:1;fill-rule:nonzero;stroke:none"
         id="path124" />
      <path
         d="m 22436.7,4748.1 h 134 c 12.7,0 23.1,-10.4 23.1,-23.2 0,-12.7 -10.4,-23.1 -23.1,-23.1 h -134 c -12.8,0 -23.2,10.4 -23.2,23.1 0,12.8 10.4,23.2 23.2,23.2"
         style="fill:#82b378;fill-opacity:1;fill-rule:nonzero;stroke:none"
         id="path126" />
      <path
         d="m 21344,4931.1 356.7,356.7 H 21344 Z"
         style="fill:#82b378;fill-opacity:1;fill-rule:nonzero;stroke:none"
         id="path128" />
      <path
         d="M 25429.5,2369.8 H 4583.32 c -16.44,0 -29.9,13.4 -29.9,29.8 v 0 c 0,16.5 13.46,30 29.9,30 H 25429.5 c 16.5,0 29.9,-13.5 29.9,-30 v 0 c 0,-16.4 -13.4,-29.8 -29.9,-29.8"
         style="fill:#202f4e;fill-opacity:1;fill-rule:nonzero;stroke:none"
         id="path130" />
    </g>
  </g>
</svg>
