<svg xmlns="http://www.w3.org/2000/svg" width="158" height="158" fill="none" viewBox="0 0 158 158">
  <g filter="url(#a)">
    <circle cx="76" cy="76" r="73" fill="#0D4373"/>
    <circle cx="76" cy="76" r="72" stroke="#fff" stroke-width="2"/>
  </g>
  <path fill="#fff" d="M88.244 107.25 73.546 92.552l4.841-4.842 9.857 9.857 19.539-19.54 4.842 4.842-24.381 24.381Zm-41.327-6.917c-1.902 0-3.53-.676-4.884-2.03C40.678 96.948 40 95.32 40 93.417v-41.5c0-1.902.678-3.53 2.033-4.884C43.387 45.678 45.015 45 46.917 45h55.333c1.902 0 3.531.678 4.887 2.033 1.353 1.354 2.03 2.982 2.03 4.884V66.96L88.33 87.797l-9.942-9.943-14.612 14.612 7.868 7.867H46.917Zm27.666-24.208 27.667-17.292v-6.916L74.583 69.208 46.917 51.917v6.916l27.666 17.292Z"/>
  <defs>
    <filter id="a" width="158" height="158" x="0" y="0" color-interpolation-filters="sRGB" filterUnits="userSpaceOnUse">
      <feFlood flood-opacity="0" result="BackgroundImageFix"/>
      <feColorMatrix in="SourceAlpha" result="hardAlpha" values="0 0 0 0 0 0 0 0 0 0 0 0 0 0 0 0 0 0 127 0"/>
      <feMorphology in="SourceAlpha" radius="4" result="effect1_dropShadow_343_252"/>
      <feOffset dx="3" dy="3"/>
      <feGaussianBlur stdDeviation="5"/>
      <feComposite in2="hardAlpha" operator="out"/>
      <feColorMatrix values="0 0 0 0 0 0 0 0 0 0 0 0 0 0 0 0 0 0 0.25 0"/>
      <feBlend in2="BackgroundImageFix" result="effect1_dropShadow_343_252"/>
      <feBlend in="SourceGraphic" in2="effect1_dropShadow_343_252" result="shape"/>
    </filter>
  </defs>
</svg>
