<svg width="27" height="20" viewBox="0 0 27 20" fill="none" xmlns="http://www.w3.org/2000/svg">
<path d="M23.625 0H2.625C1.18125 0 0.013125 1.07915 0.013125 2.3981L0 16.7867C0 18.1057 1.18125 19.1848 2.625 19.1848H23.625C25.0688 19.1848 26.25 18.1057 26.25 16.7867V2.3981C26.25 1.07915 25.0688 0 23.625 0ZM23.1 5.09596L13.8206 10.3958C13.4006 10.6356 12.8494 10.6356 12.4294 10.3958L3.15 5.09596C3.01839 5.02847 2.90314 4.93728 2.81123 4.82792C2.71931 4.71856 2.65264 4.5933 2.61526 4.45971C2.57787 4.32613 2.57053 4.18701 2.59371 4.05076C2.61688 3.91451 2.67007 3.78398 2.75006 3.66706C2.83005 3.55013 2.93518 3.44925 3.05908 3.37052C3.18298 3.29179 3.32308 3.23685 3.4709 3.20902C3.61872 3.18118 3.77118 3.18104 3.91907 3.2086C4.06695 3.23615 4.20717 3.29083 4.33125 3.36933L13.125 8.39335L21.9188 3.36933C22.0428 3.29083 22.1831 3.23615 22.3309 3.2086C22.4788 3.18104 22.6313 3.18118 22.7791 3.20902C22.9269 3.23685 23.067 3.29179 23.1909 3.37052C23.3148 3.44925 23.42 3.55013 23.4999 3.66706C23.5799 3.78398 23.6331 3.91451 23.6563 4.05076C23.6795 4.18701 23.6721 4.32613 23.6347 4.45971C23.5974 4.5933 23.5307 4.71856 23.4388 4.82792C23.3469 4.93728 23.2316 5.02847 23.1 5.09596Z" fill="white"/>
</svg>
