<svg width="220" height="41" viewBox="0 0 220 41" fill="none" xmlns="http://www.w3.org/2000/svg">
<path fill-rule="evenodd" clip-rule="evenodd" d="M0 5.70266C0 4.67779 0.392889 3.6949 1.09224 2.9702C1.79158 2.24551 2.7401 1.83838 3.72913 1.83838H7.45826C8.13696 1.83838 8.77464 2.0258 9.32282 2.3562C9.88937 2.01615 10.5327 1.8375 11.1874 1.83838H14.9165C16.272 1.83838 17.4598 2.58805 18.1124 3.71063C18.5039 3.38603 18.9626 3.13871 19.4772 2.99573L23.0796 1.99682C23.5526 1.86532 24.0461 1.83168 24.5317 1.89782C25.0173 1.96396 25.4856 2.12858 25.9098 2.38229C26.334 2.63599 26.7058 2.9738 27.004 3.37643C27.3022 3.77906 27.521 4.23862 27.6478 4.72886L35.367 34.5901C35.4939 35.0803 35.5264 35.5916 35.4626 36.0948C35.3988 36.598 35.2399 37.0833 34.9951 37.5229C34.7502 37.9625 34.4242 38.3478 34.0357 38.6568C33.6471 38.9658 33.2037 39.1925 32.7306 39.3238L29.1282 40.3228C28.6551 40.4543 28.1617 40.4879 27.6761 40.4217C27.1905 40.3556 26.7222 40.191 26.298 39.9373C25.8738 39.6836 25.502 39.3458 25.2038 38.9431C24.9056 38.5405 24.6868 38.081 24.56 37.5907L18.6456 14.7122V36.6169C18.6456 37.6418 18.2527 38.6247 17.5534 39.3494C16.8541 40.0741 15.9055 40.4812 14.9165 40.4812H11.1874C10.5327 40.4821 9.88937 40.3034 9.32282 39.9634C8.75627 40.3034 8.11298 40.4821 7.45826 40.4812H3.72913C2.7401 40.4812 1.79158 40.0741 1.09224 39.3494C0.392889 38.6247 0 37.6418 0 36.6169V5.70266ZM3.72913 5.70266H7.45826V36.6169H3.72913V5.70266ZM14.9165 36.6169H11.1874V5.70266H14.9165V36.6169ZM20.4412 6.72863L24.0436 5.72971L31.7666 35.5909L28.1642 36.5899L20.4412 6.72863Z" fill="#1B8EF2"/>
<path d="M53.5224 22.8928C54.6839 23.1002 55.6691 23.7121 56.4781 24.7285C57.287 25.7448 57.6914 26.896 57.6914 28.182C57.6914 29.2813 57.4011 30.2769 56.8203 31.1688C56.2603 32.0399 55.441 32.7348 54.3624 33.2533C53.2838 33.7511 52.029 34 50.5978 34H41.9485V12.3768H50.1933C51.666 12.3768 52.9312 12.6257 53.989 13.1235C55.0469 13.6213 55.8454 14.2954 56.3847 15.1458C56.924 15.9755 57.1936 16.9088 57.1936 17.9459C57.1936 19.1904 56.8618 20.2275 56.198 21.0572C55.5343 21.8868 54.6424 22.4987 53.5224 22.8928ZM45.4953 21.4616H49.8822C51.0437 21.4616 51.946 21.2024 52.589 20.6838C53.2527 20.1445 53.5846 19.3771 53.5846 18.3815C53.5846 17.4066 53.2527 16.6496 52.589 16.1103C51.946 15.5503 51.0437 15.2702 49.8822 15.2702H45.4953V21.4616ZM50.2867 31.1065C51.4897 31.1065 52.4334 30.8161 53.1179 30.2354C53.8024 29.6546 54.1446 28.8457 54.1446 27.8086C54.1446 26.7508 53.7816 25.9107 53.0557 25.2885C52.3297 24.6662 51.3652 24.3551 50.1622 24.3551H45.4953V31.1065H50.2867ZM71.4084 34.2178C69.3965 34.2178 67.5401 33.7511 65.8393 32.8177C64.1592 31.8636 62.8214 30.5465 61.8258 28.8664C60.8509 27.1656 60.3635 25.2574 60.3635 23.1417C60.3635 21.0261 60.8509 19.1282 61.8258 17.4481C62.8214 15.768 64.1592 14.4613 65.8393 13.5279C67.5401 12.5738 69.3965 12.0968 71.4084 12.0968C73.4411 12.0968 75.2975 12.5738 76.9776 13.5279C78.6784 14.4613 80.0162 15.768 80.9911 17.4481C81.966 19.1282 82.4534 21.0261 82.4534 23.1417C82.4534 25.2574 81.966 27.1656 80.9911 28.8664C80.0162 30.5465 78.6784 31.8636 76.9776 32.8177C75.2975 33.7511 73.4411 34.2178 71.4084 34.2178ZM71.4084 31.1376C72.8396 31.1376 74.1152 30.8161 75.2353 30.1732C76.3553 29.5094 77.2265 28.576 77.8487 27.373C78.4917 26.1493 78.8132 24.7388 78.8132 23.1417C78.8132 21.5446 78.4917 20.1445 77.8487 18.9415C77.2265 17.7385 76.3553 16.8155 75.2353 16.1725C74.1152 15.5295 72.8396 15.208 71.4084 15.208C69.9773 15.208 68.7016 15.5295 67.5816 16.1725C66.4615 16.8155 65.58 17.7385 64.937 18.9415C64.3148 20.1445 64.0036 21.5446 64.0036 23.1417C64.0036 24.7388 64.3148 26.1493 64.937 27.373C65.58 28.576 66.4615 29.5094 67.5816 30.1732C68.7016 30.8161 69.9773 31.1376 71.4084 31.1376ZM95.8063 34.2178C93.7943 34.2178 91.9379 33.7511 90.2371 32.8177C88.557 31.8636 87.2192 30.5465 86.2236 28.8664C85.2487 27.1656 84.7613 25.2574 84.7613 23.1417C84.7613 21.0261 85.2487 19.1282 86.2236 17.4481C87.2192 15.768 88.557 14.4613 90.2371 13.5279C91.9379 12.5738 93.7943 12.0968 95.8063 12.0968C97.8389 12.0968 99.6953 12.5738 101.375 13.5279C103.076 14.4613 104.414 15.768 105.389 17.4481C106.364 19.1282 106.851 21.0261 106.851 23.1417C106.851 25.2574 106.364 27.1656 105.389 28.8664C104.414 30.5465 103.076 31.8636 101.375 32.8177C99.6953 33.7511 97.8389 34.2178 95.8063 34.2178ZM95.8063 31.1376C97.2374 31.1376 98.513 30.8161 99.6331 30.1732C100.753 29.5094 101.624 28.576 102.247 27.373C102.89 26.1493 103.211 24.7388 103.211 23.1417C103.211 21.5446 102.89 20.1445 102.247 18.9415C101.624 17.7385 100.753 16.8155 99.6331 16.1725C98.513 15.5295 97.2374 15.208 95.8063 15.208C94.3751 15.208 93.0995 15.5295 91.9794 16.1725C90.8594 16.8155 89.9778 17.7385 89.3348 18.9415C88.7126 20.1445 88.4015 21.5446 88.4015 23.1417C88.4015 24.7388 88.7126 26.1493 89.3348 27.373C89.9778 28.576 90.8594 29.5094 91.9794 30.1732C93.0995 30.8161 94.3751 31.1376 95.8063 31.1376ZM122.258 34L113.888 24.324V34H110.341V12.3768H113.888V22.2395L122.289 12.3768H126.738L117.342 23.2039L126.893 34H122.258ZM137.155 34.2178C135.703 34.2178 134.396 33.9689 133.234 33.4711C132.073 32.9525 131.16 32.2266 130.497 31.2932C129.833 30.3598 129.501 29.2709 129.501 28.0264H133.297C133.38 28.9598 133.743 29.7272 134.386 30.3287C135.049 30.9302 135.972 31.231 137.155 31.231C138.378 31.231 139.332 30.9406 140.017 30.3598C140.701 29.7583 141.044 28.9909 141.044 28.0575C141.044 27.3315 140.826 26.7404 140.39 26.2841C139.975 25.8278 139.447 25.4752 138.804 25.2263C138.181 24.9774 137.31 24.7077 136.19 24.4173C134.78 24.044 133.629 23.6706 132.737 23.2973C131.865 22.9032 131.119 22.3017 130.497 21.4928C129.874 20.6838 129.563 19.6053 129.563 18.257C129.563 17.0125 129.874 15.9236 130.497 14.9902C131.119 14.0569 131.99 13.3413 133.11 12.8435C134.23 12.3457 135.526 12.0968 136.999 12.0968C139.094 12.0968 140.805 12.6257 142.133 13.6835C143.481 14.7206 144.228 16.1518 144.373 17.977H140.453C140.39 17.1889 140.017 16.5147 139.332 15.9547C138.648 15.3947 137.746 15.1147 136.626 15.1147C135.609 15.1147 134.78 15.374 134.137 15.8925C133.494 16.411 133.172 17.1577 133.172 18.1326C133.172 18.7963 133.369 19.346 133.763 19.7816C134.178 20.1964 134.697 20.5283 135.319 20.7772C135.941 21.0261 136.792 21.2957 137.87 21.5861C139.301 21.9802 140.463 22.3743 141.355 22.7684C142.267 23.1625 143.035 23.7743 143.657 24.604C144.3 25.4129 144.622 26.5019 144.622 27.8708C144.622 28.9701 144.321 30.0072 143.719 30.9821C143.139 31.9569 142.278 32.7451 141.137 33.3466C140.017 33.9274 138.689 34.2178 137.155 34.2178ZM166.074 12.3768V34H162.527V24.5418H152.354V34H148.807V12.3768H152.354V21.6483H162.527V12.3768H166.074ZM174.29 15.2391V21.5861H181.757V24.4796H174.29V31.1065H182.691V34H170.744V12.3457H182.691V15.2391H174.29ZM190.606 31.1376H197.918V34H187.059V12.3768H190.606V31.1376ZM213.609 12.3768V15.2702H204.431V21.6483H211.587V24.5418H204.431V34H200.884V12.3768H213.609Z" fill="white"/>
</svg>
