<svg width="86" height="86" viewBox="0 0 86 86" fill="none" xmlns="http://www.w3.org/2000/svg">
<g filter="url(#filter0_d_171_406)">
<rect x="4.44312" width="77.5" height="77.5" rx="38.75" fill="white"/>
</g>
<path d="M42.9722 47.7197C40.5935 47.7197 38.3122 46.7748 36.6302 45.0928C34.9482 43.4108 34.0033 41.1295 34.0033 38.7508C34.0033 36.3721 34.9482 34.0908 36.6302 32.4088C38.3122 30.7268 40.5935 29.7818 42.9722 29.7818C45.3509 29.7818 47.6322 30.7268 49.3142 32.4088C50.9962 34.0908 51.9411 36.3721 51.9411 38.7508C51.9411 41.1295 50.9962 43.4108 49.3142 45.0928C47.6322 46.7748 45.3509 47.7197 42.9722 47.7197M62.012 41.2365C62.1145 40.4164 62.1914 39.5964 62.1914 38.7508C62.1914 37.9051 62.1145 37.0595 62.012 36.1882L67.419 32.0113C67.9058 31.6269 68.034 30.935 67.7265 30.3712L62.6014 21.5048C62.2939 20.941 61.602 20.7104 61.0382 20.941L54.6574 23.5036C53.3249 22.5042 51.9411 21.6329 50.3267 20.9923L49.3786 14.2015C49.3265 13.8997 49.1693 13.626 48.9348 13.429C48.7003 13.232 48.4036 13.1244 48.0973 13.1252H37.8471C37.2065 13.1252 36.6683 13.5865 36.5658 14.2015L35.6177 20.9923C34.0033 21.6329 32.6195 22.5042 31.287 23.5036L24.9062 20.941C24.3424 20.7104 23.6506 20.941 23.3431 21.5048L18.2179 30.3712C17.8848 30.935 18.0386 31.6269 18.5255 32.0113L23.9324 36.1882C23.8299 37.0595 23.7531 37.9051 23.7531 38.7508C23.7531 39.5964 23.8299 40.4164 23.9324 41.2365L18.5255 45.4903C18.0386 45.8747 17.8848 46.5666 18.2179 47.1303L23.3431 55.9968C23.6506 56.5605 24.3424 56.7655 24.9062 56.5605L31.287 53.9723C32.6195 54.9974 34.0033 55.8686 35.6177 56.5093L36.5658 63.3C36.6683 63.915 37.2065 64.3763 37.8471 64.3763H48.0973C48.738 64.3763 49.2761 63.915 49.3786 63.3L50.3267 56.5093C51.9411 55.843 53.3249 54.9974 54.6574 53.9723L61.0382 56.5605C61.602 56.7655 62.2939 56.5605 62.6014 55.9968L67.7265 47.1303C68.034 46.5666 67.9058 45.8747 67.419 45.4903L62.012 41.2365V41.2365Z" fill="#1A2E40"/>
<defs>
<filter id="filter0_d_171_406" x="0.443115" y="0" width="85.5" height="85.5" filterUnits="userSpaceOnUse" color-interpolation-filters="sRGB">
<feFlood flood-opacity="0" result="BackgroundImageFix"/>
<feColorMatrix in="SourceAlpha" type="matrix" values="0 0 0 0 0 0 0 0 0 0 0 0 0 0 0 0 0 0 127 0" result="hardAlpha"/>
<feOffset dy="4"/>
<feGaussianBlur stdDeviation="2"/>
<feComposite in2="hardAlpha" operator="out"/>
<feColorMatrix type="matrix" values="0 0 0 0 0 0 0 0 0 0 0 0 0 0 0 0 0 0 0.25 0"/>
<feBlend mode="normal" in2="BackgroundImageFix" result="effect1_dropShadow_171_406"/>
<feBlend mode="normal" in="SourceGraphic" in2="effect1_dropShadow_171_406" result="shape"/>
</filter>
</defs>
</svg>
