<svg width="86" height="86" viewBox="0 0 86 86" fill="none" xmlns="http://www.w3.org/2000/svg">
<g filter="url(#filter0_d_511_192)">
<rect x="4" width="77.5" height="77.5" rx="38.75" fill="white"/>
</g>
<g clip-path="url(#clip0_511_192)">
<path d="M40.7714 60.3579C40.6675 60.7737 40.4276 61.1428 40.0898 61.4066C39.752 61.6704 39.3357 61.8137 38.9072 61.8137C38.7452 61.8145 38.5838 61.7951 38.4267 61.7561L30.739 59.8342C30.525 59.7804 30.3218 59.6902 30.1384 59.5675L24.3727 55.7237C23.9487 55.4408 23.6544 55.001 23.5546 54.5011C23.4548 54.0013 23.5577 53.4822 23.8406 53.0582C24.1234 52.6342 24.5632 52.3399 25.0631 52.2401C25.5629 52.1403 26.082 52.2432 26.506 52.5261L31.9931 56.1849L39.3588 58.0276C39.6049 58.0872 39.8368 58.1949 40.0411 58.3445C40.2455 58.4941 40.4182 58.6825 40.5495 58.8991C40.6808 59.1156 40.768 59.356 40.806 59.6063C40.8441 59.8567 40.8324 60.1121 40.7714 60.3579ZM72.6488 37.1844C72.4911 37.6634 72.24 38.1064 71.9102 38.4878C71.5803 38.8692 71.1781 39.1815 70.7269 39.4066L65.038 42.251L51.8056 55.4858C51.5708 55.7204 51.2791 55.8902 50.9592 55.9786C50.6392 56.0671 50.3018 56.0711 49.9798 55.9903L34.6045 52.1465C34.3707 52.0878 34.1499 51.986 33.9534 51.8462L20.6153 42.3231L14.7823 39.4066C13.8707 38.9509 13.1774 38.1518 12.8548 37.185C12.5323 36.2182 12.6069 35.1629 13.0622 34.2511L19.0322 22.3136C19.4879 21.402 20.287 20.7086 21.2538 20.3861C22.2206 20.0635 23.2759 20.1381 24.1877 20.5935L29.4874 23.2361L42.2201 19.5989C42.5655 19.5001 42.9317 19.5001 43.2771 19.5989L56.0098 23.2361L61.3095 20.5935C62.2213 20.1381 63.2766 20.0635 64.2434 20.3861C65.2102 20.7086 66.0093 21.402 66.465 22.3136L72.435 34.2511C72.6627 34.7016 72.7988 35.1928 72.8355 35.6963C72.8722 36.1998 72.8087 36.7056 72.6488 37.1844ZM61.5545 40.2931L55.0176 27.2193H47.3732L36.9852 37.3093C40.0267 39.2529 44.7954 39.7886 49.0741 35.4763C49.4082 35.1395 49.8552 34.9382 50.3289 34.9111C50.8026 34.8841 51.2695 35.0332 51.6398 35.3298L59.9065 41.9532L61.5545 40.2931ZM16.5 35.9688L20.7499 38.0949L26.7198 26.1574L22.47 24.0313L16.5 35.9688ZM57.1653 44.6751L50.5083 39.3442C45.814 43.188 39.8537 43.6949 34.9144 40.5453C34.4285 40.2363 34.0183 39.822 33.714 39.3331C33.4098 38.8442 33.2192 38.2932 33.1565 37.7208C33.0938 37.1484 33.1604 36.5692 33.3516 36.026C33.5428 35.4829 33.8535 34.9896 34.2609 34.5826C34.2667 34.5756 34.2732 34.5692 34.2801 34.5634L45.0573 24.1106L42.751 23.4523L30.6381 26.9142L24.0628 40.0625L35.8825 48.5069L49.8501 51.9976L57.1653 44.6751ZM68.9947 35.9688L63.032 24.0313L58.7822 26.1574L64.7521 38.0949L68.9947 35.9688Z" fill="#1A2E40"/>
</g>
<defs>
<filter id="filter0_d_511_192" x="0" y="0" width="85.5" height="85.5" filterUnits="userSpaceOnUse" color-interpolation-filters="sRGB">
<feFlood flood-opacity="0" result="BackgroundImageFix"/>
<feColorMatrix in="SourceAlpha" type="matrix" values="0 0 0 0 0 0 0 0 0 0 0 0 0 0 0 0 0 0 127 0" result="hardAlpha"/>
<feOffset dy="4"/>
<feGaussianBlur stdDeviation="2"/>
<feComposite in2="hardAlpha" operator="out"/>
<feColorMatrix type="matrix" values="0 0 0 0 0 0 0 0 0 0 0 0 0 0 0 0 0 0 0.25 0"/>
<feBlend mode="normal" in2="BackgroundImageFix" result="effect1_dropShadow_511_192"/>
<feBlend mode="normal" in="SourceGraphic" in2="effect1_dropShadow_511_192" result="shape"/>
</filter>
<clipPath id="clip0_511_192">
<rect width="61.5013" height="61.5013" fill="white" transform="translate(12.0002 8.00012)"/>
</clipPath>
</defs>
</svg>
