<svg width="552" height="502" viewBox="0 0 552 502" fill="none" xmlns="http://www.w3.org/2000/svg">
<path d="M88.293 455.728H96.737V455.377H88.293V455.728Z" fill="#ECECEC"/>
<path d="M124.18 461.66H249.081V461.31H124.18V461.66Z" fill="#ECECEC"/>
<path d="M523.353 403.307H410.58V103.884H523.353V403.307Z" fill="#E1E1E1"/>
<path d="M523.353 405.934H544.13V101.258H523.353V405.934Z" fill="#E7E7E7"/>
<path d="M390.8 405.934H411.577V101.258H390.8V405.934Z" fill="#E7E7E7"/>
<path d="M392.257 346.049H520.862V400.681H392.257V346.049ZM392.257 166.396H520.862V221.027H392.257V166.396ZM520.861 340.797H392.256V286.166H520.861V340.797ZM392.257 226.281H520.862V280.912H392.257V226.281ZM520.861 161.143H392.256V106.512H520.861V161.143ZM387.272 405.934H525.846V101.258H387.272V405.934Z" fill="#F5F5F5"/>
<path d="M475.933 161.644H480.726V119.255H475.933V161.644Z" fill="#E7E7E7"/>
<path d="M480.726 161.644H485.52V119.255H480.726V161.644Z" fill="#E1E1E1"/>
<path d="M466.346 161.644H475.933V122.234H466.346V161.644Z" fill="#E7E7E7"/>
<path d="M455.358 161.644H461.553V119.255H455.358V161.644Z" fill="#F0F0F0"/>
<path d="M461.553 161.644H466.346V119.255H461.553V161.644Z" fill="#ECECEC"/>
<path d="M419.002 161.644H425.197V119.255H419.002V161.644Z" fill="#E7E7E7"/>
<path d="M425.197 161.644H429.99V119.255H425.197V161.644Z" fill="#ECECEC"/>
<path d="M439.577 161.644H445.772V119.255H439.577V161.644Z" fill="#E7E7E7"/>
<path d="M445.772 161.644H450.565V119.255H445.772V161.644Z" fill="#E1E1E1"/>
<path d="M409.416 161.644H419.002V120.258H409.416V161.644Z" fill="#ECECEC"/>
<path d="M404.622 161.644H409.416V120.258H404.622V161.644Z" fill="#E1E1E1"/>
<path d="M433.185 161.644H439.576V120.258H433.185V161.644Z" fill="#E1E1E1"/>
<path d="M429.99 161.644H433.185V120.258H429.99V161.644Z" fill="#F0F0F0"/>
<path d="M445.772 161.644H455.358V122.234H445.772V161.644Z" fill="#F5F5F5"/>
<path d="M499.898 161.644H506.093V119.255H499.898V161.644Z" fill="#ECECEC"/>
<path d="M506.094 161.644H510.888V119.255H506.094V161.644Z" fill="#E7E7E7"/>
<path d="M490.312 161.644H499.898V120.258H490.312V161.644Z" fill="#E1E1E1"/>
<path d="M485.52 161.644H490.313V120.258H485.52V161.644Z" fill="#ECECEC"/>
<path d="M514.082 161.644H520.473V120.258H514.082V161.644Z" fill="#ECECEC"/>
<path d="M510.886 161.644H514.082V120.258H510.886V161.644Z" fill="#FAFAFA"/>
<path d="M449.162 221.003H444.369V178.614H449.162V221.003Z" fill="#E7E7E7"/>
<path d="M444.369 221.003H439.576V178.614H444.369V221.003Z" fill="#E1E1E1"/>
<path d="M458.75 221.003H449.164V181.593H458.75V221.003Z" fill="#E7E7E7"/>
<path d="M469.738 221.003H463.544V178.614H469.738V221.003Z" fill="#F0F0F0"/>
<path d="M463.542 221.003H458.749V178.614H463.542V221.003Z" fill="#ECECEC"/>
<path d="M506.093 221.003H499.898V178.614H506.093V221.003Z" fill="#E7E7E7"/>
<path d="M499.898 221.003H495.105V178.614H499.898V221.003Z" fill="#ECECEC"/>
<path d="M485.52 221.003H479.325V178.614H485.52V221.003Z" fill="#E7E7E7"/>
<path d="M479.324 221.003H474.53V178.614H479.324V221.003Z" fill="#E1E1E1"/>
<path d="M515.68 221.003H506.093V179.617H515.68V221.003Z" fill="#ECECEC"/>
<path d="M520.474 221.003H515.681V179.617H520.474V221.003Z" fill="#E1E1E1"/>
<path d="M491.91 221.003H485.52V179.617H491.91V221.003Z" fill="#E1E1E1"/>
<path d="M495.106 221.003H491.91V179.617H495.106V221.003Z" fill="#F0F0F0"/>
<path d="M479.324 221.003H469.738V181.593H479.324V221.003Z" fill="#F5F5F5"/>
<path d="M425.197 221.003H419.002V178.614H425.197V221.003Z" fill="#ECECEC"/>
<path d="M419.002 221.003H414.209V178.614H419.002V221.003Z" fill="#E7E7E7"/>
<path d="M434.784 221.003H425.197V179.617H434.784V221.003Z" fill="#E1E1E1"/>
<path d="M439.577 221.003H434.784V179.617H439.577V221.003Z" fill="#ECECEC"/>
<path d="M411.013 221.003H404.622V179.617H411.013V221.003Z" fill="#ECECEC"/>
<path d="M414.209 221.003H411.013V179.617H414.209V221.003Z" fill="#FAFAFA"/>
<path d="M449.162 281.414H444.369V239.023H449.162V281.414Z" fill="#E7E7E7"/>
<path d="M444.369 281.414H439.576V239.023H444.369V281.414Z" fill="#E1E1E1"/>
<path d="M458.75 281.414H449.164V242.001H458.75V281.414Z" fill="#E7E7E7"/>
<path d="M469.738 281.414H463.544V239.023H469.738V281.414Z" fill="#F0F0F0"/>
<path d="M463.542 281.414H458.749V239.023H463.542V281.414Z" fill="#ECECEC"/>
<path d="M506.093 281.414H499.898V239.023H506.093V281.414Z" fill="#E7E7E7"/>
<path d="M499.898 281.414H495.105V239.023H499.898V281.414Z" fill="#ECECEC"/>
<path d="M485.52 281.414H479.325V239.023H485.52V281.414Z" fill="#E7E7E7"/>
<path d="M479.324 281.414H474.53V239.023H479.324V281.414Z" fill="#E1E1E1"/>
<path d="M515.68 281.414H506.093V240.027H515.68V281.414Z" fill="#ECECEC"/>
<path d="M520.474 281.414H515.681V240.027H520.474V281.414Z" fill="#E1E1E1"/>
<path d="M491.91 281.414H485.52V240.027H491.91V281.414Z" fill="#E1E1E1"/>
<path d="M495.106 281.414H491.91V240.027H495.106V281.414Z" fill="#F0F0F0"/>
<path d="M479.324 281.414H469.738V242.001H479.324V281.414Z" fill="#F5F5F5"/>
<path d="M425.197 281.414H419.002V239.023H425.197V281.414Z" fill="#ECECEC"/>
<path d="M419.002 281.414H414.209V239.023H419.002V281.414Z" fill="#E7E7E7"/>
<path d="M434.784 281.414H425.197V240.027H434.784V281.414Z" fill="#E1E1E1"/>
<path d="M439.577 281.414H434.784V240.027H439.577V281.414Z" fill="#ECECEC"/>
<path d="M411.013 281.414H404.622V240.027H411.013V281.414Z" fill="#ECECEC"/>
<path d="M414.209 281.414H411.013V240.027H414.209V281.414Z" fill="#FAFAFA"/>
<path d="M475.933 299.433H480.726V341.824H475.933V299.433Z" fill="#E7E7E7"/>
<path d="M480.726 299.433H485.52V341.824H480.726V299.433Z" fill="#E1E1E1"/>
<path d="M466.346 299.433H475.933V338.845H466.346V299.433Z" fill="#E7E7E7"/>
<path d="M455.358 299.433H461.553V341.824H455.358V299.433Z" fill="#F0F0F0"/>
<path d="M461.553 299.433H466.346V341.824H461.553V299.433Z" fill="#ECECEC"/>
<path d="M419.002 299.433H425.197V341.824H419.002V299.433Z" fill="#E7E7E7"/>
<path d="M425.197 299.433H429.99V341.824H425.197V299.433Z" fill="#ECECEC"/>
<path d="M439.577 299.433H445.772V341.824H439.577V299.433Z" fill="#E7E7E7"/>
<path d="M445.772 299.433H450.565V341.824H445.772V299.433Z" fill="#E1E1E1"/>
<path d="M409.416 299.433H419.002V340.819H409.416V299.433Z" fill="#ECECEC"/>
<path d="M404.622 299.433H409.416V340.819H404.622V299.433Z" fill="#E1E1E1"/>
<path d="M433.185 299.433H439.576V340.819H433.185V299.433Z" fill="#E1E1E1"/>
<path d="M429.99 299.433H433.185V340.819H429.99V299.433Z" fill="#F0F0F0"/>
<path d="M445.772 299.433H455.358V338.845H445.772V299.433Z" fill="#F5F5F5"/>
<path d="M499.898 299.433H506.093V341.824H499.898V299.433Z" fill="#ECECEC"/>
<path d="M506.094 299.433H510.888V341.824H506.094V299.433Z" fill="#E7E7E7"/>
<path d="M490.312 299.433H499.898V340.819H490.312V299.433Z" fill="#E1E1E1"/>
<path d="M485.52 299.433H490.313V340.819H485.52V299.433Z" fill="#ECECEC"/>
<path d="M514.082 299.433H520.473V340.819H514.082V299.433Z" fill="#ECECEC"/>
<path d="M510.886 299.433H514.082V340.819H510.886V299.433Z" fill="#FAFAFA"/>
<path d="M449.162 359.843H444.369V402.232H449.162V359.843Z" fill="#E7E7E7"/>
<path d="M444.369 359.843H439.576V402.232H444.369V359.843Z" fill="#E1E1E1"/>
<path d="M458.75 359.843H449.164V399.254H458.75V359.843Z" fill="#E7E7E7"/>
<path d="M469.738 359.843H463.544V402.232H469.738V359.843Z" fill="#F0F0F0"/>
<path d="M463.542 359.843H458.749V402.232H463.542V359.843Z" fill="#ECECEC"/>
<path d="M506.093 359.843H499.898V402.232H506.093V359.843Z" fill="#E7E7E7"/>
<path d="M499.898 359.843H495.105V402.232H499.898V359.843Z" fill="#ECECEC"/>
<path d="M485.52 359.843H479.325V402.232H485.52V359.843Z" fill="#E7E7E7"/>
<path d="M479.324 359.843H474.53V402.232H479.324V359.843Z" fill="#E1E1E1"/>
<path d="M515.68 359.843H506.093V401.229H515.68V359.843Z" fill="#ECECEC"/>
<path d="M520.474 359.843H515.681V401.229H520.474V359.843Z" fill="#E1E1E1"/>
<path d="M491.91 359.843H485.52V401.229H491.91V359.843Z" fill="#E1E1E1"/>
<path d="M495.106 359.843H491.91V401.229H495.106V359.843Z" fill="#F0F0F0"/>
<path d="M479.324 359.843H469.738V399.254H479.324V359.843Z" fill="#F5F5F5"/>
<path d="M425.197 359.843H419.002V402.232H425.197V359.843Z" fill="#ECECEC"/>
<path d="M419.002 359.843H414.209V402.232H419.002V359.843Z" fill="#E7E7E7"/>
<path d="M434.784 359.843H425.197V401.229H434.784V359.843Z" fill="#E1E1E1"/>
<path d="M439.577 359.843H434.784V401.229H439.577V359.843Z" fill="#ECECEC"/>
<path d="M411.013 359.843H404.622V401.229H411.013V359.843Z" fill="#ECECEC"/>
<path d="M414.209 359.843H411.013V401.229H414.209V359.843Z" fill="#FAFAFA"/>
<path d="M520.604 76.8472H436.43V47.4859H520.604V76.8472Z" fill="#E7E7E7"/>
<path d="M385.533 430.73H256.404V87.8799H385.533V430.73Z" fill="#E1E1E1"/>
<path d="M385.533 433.737H409.324V84.8716H385.533V433.737Z" fill="#E7E7E7"/>
<path d="M233.754 433.737H257.545V84.8716H233.754V433.737Z" fill="#E7E7E7"/>
<path d="M235.422 365.167H382.68V427.723H235.422V365.167ZM235.422 159.457H382.68V222.012H235.422V159.457ZM382.678 359.152H235.421V296.596H382.678V359.152ZM235.422 228.026H382.68V290.581H235.422V228.026ZM382.678 153.441H235.421V90.8855H382.678V153.441ZM229.714 433.737H388.386V84.8716H229.714V433.737Z" fill="#F5F5F5"/>
<path d="M331.234 154.017H336.722V105.479H331.234V154.017Z" fill="#E7E7E7"/>
<path d="M336.722 154.017H342.212V105.479H336.722V154.017Z" fill="#E1E1E1"/>
<path d="M320.257 154.017H331.234V108.889H320.257V154.017Z" fill="#E7E7E7"/>
<path d="M307.676 154.017H314.769V105.479H307.676V154.017Z" fill="#F0F0F0"/>
<path d="M314.769 154.017H320.257V105.479H314.769V154.017Z" fill="#ECECEC"/>
<path d="M266.046 154.017H273.14V105.479H266.046V154.017Z" fill="#E7E7E7"/>
<path d="M273.14 154.017H278.628V105.479H273.14V154.017Z" fill="#ECECEC"/>
<path d="M289.605 154.017H296.698V105.479H289.605V154.017Z" fill="#E7E7E7"/>
<path d="M296.698 154.017H302.186V105.479H296.698V154.017Z" fill="#E1E1E1"/>
<path d="M255.069 154.017H266.046V106.628H255.069V154.017Z" fill="#ECECEC"/>
<path d="M249.581 154.017H255.069V106.628H249.581V154.017Z" fill="#E1E1E1"/>
<path d="M282.286 154.017H289.605V106.628H282.286V154.017Z" fill="#E1E1E1"/>
<path d="M278.628 154.017H282.286V106.628H278.628V154.017Z" fill="#F0F0F0"/>
<path d="M296.698 154.017H307.676V108.889H296.698V154.017Z" fill="#F5F5F5"/>
<path d="M358.677 154.017H365.77V105.479H358.677V154.017Z" fill="#ECECEC"/>
<path d="M365.77 154.017H371.258V105.479H365.77V154.017Z" fill="#E7E7E7"/>
<path d="M347.7 154.017H358.677V106.628H347.7V154.017Z" fill="#E1E1E1"/>
<path d="M342.212 154.017H347.7V106.628H342.212V154.017Z" fill="#ECECEC"/>
<path d="M374.917 154.017H382.234V106.628H374.917V154.017Z" fill="#ECECEC"/>
<path d="M371.258 154.017H374.917V106.628H371.258V154.017Z" fill="#FAFAFA"/>
<path d="M300.582 221.986H295.094V173.447H300.582V221.986Z" fill="#E7E7E7"/>
<path d="M295.093 221.986H289.605V173.447H295.093V221.986Z" fill="#E1E1E1"/>
<path d="M311.56 221.986H300.582V176.857H311.56V221.986Z" fill="#E7E7E7"/>
<path d="M324.141 221.986H317.048V173.447H324.141V221.986Z" fill="#F0F0F0"/>
<path d="M317.048 221.986H311.56V173.447H317.048V221.986Z" fill="#ECECEC"/>
<path d="M365.769 221.986H358.676V173.447H365.769V221.986Z" fill="#E7E7E7"/>
<path d="M358.675 221.986H353.188V173.447H358.675V221.986Z" fill="#ECECEC"/>
<path d="M342.212 221.986H335.118V173.447H342.212V221.986Z" fill="#E7E7E7"/>
<path d="M335.117 221.986H329.629V173.447H335.117V221.986Z" fill="#E1E1E1"/>
<path d="M376.746 221.986H365.769V174.597H376.746V221.986Z" fill="#ECECEC"/>
<path d="M382.234 221.986H376.746V174.597H382.234V221.986Z" fill="#E1E1E1"/>
<path d="M349.529 221.986H342.212V174.597H349.529V221.986Z" fill="#E1E1E1"/>
<path d="M353.188 221.986H349.529V174.597H353.188V221.986Z" fill="#F0F0F0"/>
<path d="M335.117 221.986H324.141V176.857H335.117V221.986Z" fill="#F5F5F5"/>
<path d="M273.14 221.986H266.046V173.447H273.14V221.986Z" fill="#ECECEC"/>
<path d="M266.046 221.986H260.558V173.447H266.046V221.986Z" fill="#E7E7E7"/>
<path d="M284.117 221.986H273.141V174.597H284.117V221.986Z" fill="#E1E1E1"/>
<path d="M289.605 221.986H284.116V174.597H289.605V221.986Z" fill="#ECECEC"/>
<path d="M256.898 221.986H249.581V174.597H256.898V221.986Z" fill="#ECECEC"/>
<path d="M260.558 221.986H256.898V174.597H260.558V221.986Z" fill="#FAFAFA"/>
<path d="M300.582 291.157H295.094V242.618H300.582V291.157Z" fill="#E7E7E7"/>
<path d="M295.093 291.157H289.605V242.618H295.093V291.157Z" fill="#E1E1E1"/>
<path d="M311.56 291.157H300.582V246.03H311.56V291.157Z" fill="#E7E7E7"/>
<path d="M324.141 291.157H317.048V242.618H324.141V291.157Z" fill="#F0F0F0"/>
<path d="M317.048 291.157H311.56V242.618H317.048V291.157Z" fill="#ECECEC"/>
<path d="M365.769 291.157H358.676V242.618H365.769V291.157Z" fill="#E7E7E7"/>
<path d="M358.675 291.157H353.188V242.618H358.675V291.157Z" fill="#ECECEC"/>
<path d="M342.212 291.157H335.118V242.618H342.212V291.157Z" fill="#E7E7E7"/>
<path d="M335.117 291.157H329.629V242.618H335.117V291.157Z" fill="#E1E1E1"/>
<path d="M376.746 291.157H365.769V243.768H376.746V291.157Z" fill="#ECECEC"/>
<path d="M382.234 291.157H376.746V243.768H382.234V291.157Z" fill="#E1E1E1"/>
<path d="M349.529 291.157H342.212V243.768H349.529V291.157Z" fill="#E1E1E1"/>
<path d="M353.188 291.157H349.529V243.768H353.188V291.157Z" fill="#F0F0F0"/>
<path d="M335.117 291.157H324.141V246.03H335.117V291.157Z" fill="#F5F5F5"/>
<path d="M273.14 291.157H266.046V242.618H273.14V291.157Z" fill="#ECECEC"/>
<path d="M266.046 291.157H260.558V242.618H266.046V291.157Z" fill="#E7E7E7"/>
<path d="M284.117 291.157H273.141V243.768H284.117V291.157Z" fill="#E1E1E1"/>
<path d="M289.605 291.157H284.116V243.768H289.605V291.157Z" fill="#ECECEC"/>
<path d="M256.898 291.157H249.581V243.768H256.898V291.157Z" fill="#ECECEC"/>
<path d="M260.558 291.157H256.898V243.768H260.558V291.157Z" fill="#FAFAFA"/>
<path d="M331.234 311.789H336.722V360.328H331.234V311.789Z" fill="#E7E7E7"/>
<path d="M336.722 311.789H342.212V360.328H336.722V311.789Z" fill="#E1E1E1"/>
<path d="M320.257 311.789H331.234V356.916H320.257V311.789Z" fill="#E7E7E7"/>
<path d="M307.676 311.789H314.769V360.328H307.676V311.789Z" fill="#F0F0F0"/>
<path d="M314.769 311.789H320.257V360.328H314.769V311.789Z" fill="#ECECEC"/>
<path d="M266.046 311.789H273.14V360.328H266.046V311.789Z" fill="#E7E7E7"/>
<path d="M273.14 311.789H278.628V360.328H273.14V311.789Z" fill="#ECECEC"/>
<path d="M289.605 311.789H296.698V360.328H289.605V311.789Z" fill="#E7E7E7"/>
<path d="M296.698 311.789H302.186V360.328H296.698V311.789Z" fill="#E1E1E1"/>
<path d="M255.069 311.789H266.046V359.178H255.069V311.789Z" fill="#ECECEC"/>
<path d="M249.581 311.789H255.069V359.178H249.581V311.789Z" fill="#E1E1E1"/>
<path d="M282.286 311.789H289.605V359.178H282.286V311.789Z" fill="#E1E1E1"/>
<path d="M278.628 311.789H282.286V359.178H278.628V311.789Z" fill="#F0F0F0"/>
<path d="M296.698 311.789H307.676V356.916H296.698V311.789Z" fill="#F5F5F5"/>
<path d="M358.677 311.789H365.77V360.328H358.677V311.789Z" fill="#ECECEC"/>
<path d="M365.77 311.789H371.258V360.328H365.77V311.789Z" fill="#E7E7E7"/>
<path d="M347.7 311.789H358.677V359.178H347.7V311.789Z" fill="#E1E1E1"/>
<path d="M342.212 311.789H347.7V359.178H342.212V311.789Z" fill="#ECECEC"/>
<path d="M374.917 311.789H382.234V359.178H374.917V311.789Z" fill="#ECECEC"/>
<path d="M371.258 311.789H374.917V359.178H371.258V311.789Z" fill="#FAFAFA"/>
<path d="M300.582 380.96H295.094V429.5H300.582V380.96Z" fill="#E7E7E7"/>
<path d="M295.093 380.96H289.605V429.5H295.093V380.96Z" fill="#E1E1E1"/>
<path d="M311.56 380.96H300.582V426.089H311.56V380.96Z" fill="#E7E7E7"/>
<path d="M324.141 380.96H317.048V429.5H324.141V380.96Z" fill="#F0F0F0"/>
<path d="M317.048 380.96H311.56V429.5H317.048V380.96Z" fill="#ECECEC"/>
<path d="M365.769 380.96H358.676V429.5H365.769V380.96Z" fill="#E7E7E7"/>
<path d="M358.675 380.96H353.188V429.5H358.675V380.96Z" fill="#ECECEC"/>
<path d="M342.212 380.96H335.118V429.5H342.212V380.96Z" fill="#E7E7E7"/>
<path d="M335.117 380.96H329.629V429.5H335.117V380.96Z" fill="#E1E1E1"/>
<path d="M376.746 380.96H365.769V428.351H376.746V380.96Z" fill="#ECECEC"/>
<path d="M382.234 380.96H376.746V428.351H382.234V380.96Z" fill="#E1E1E1"/>
<path d="M349.529 380.96H342.212V428.351H349.529V380.96Z" fill="#E1E1E1"/>
<path d="M353.188 380.96H349.529V428.351H353.188V380.96Z" fill="#F0F0F0"/>
<path d="M335.117 380.96H324.141V426.089H335.117V380.96Z" fill="#F5F5F5"/>
<path d="M273.14 380.96H266.046V429.5H273.14V380.96Z" fill="#ECECEC"/>
<path d="M266.046 380.96H260.558V429.5H266.046V380.96Z" fill="#E7E7E7"/>
<path d="M284.117 380.96H273.141V428.351H284.117V380.96Z" fill="#E1E1E1"/>
<path d="M289.605 380.96H284.116V428.351H289.605V380.96Z" fill="#ECECEC"/>
<path d="M256.898 380.96H249.581V428.351H256.898V380.96Z" fill="#ECECEC"/>
<path d="M260.558 380.96H256.898V428.351H260.558V380.96Z" fill="#FAFAFA"/>
<path d="M527.616 97.1294C569.283 184.124 558.87 266.922 482.684 315.021C430.6 347.905 372.702 295.703 339.376 311.662C298.652 331.164 324.492 414.783 268.936 450.443C206.363 490.607 117.895 470.574 65.8109 414.783C7.57354 352.4 15.8976 246.587 50.1869 210.134C83.0762 175.167 177.747 194.082 218.794 170.568C257.579 148.349 255.047 79.8774 319.283 24.5819C361.766 -11.9863 472.024 -18.9388 527.616 97.1294Z" fill="#007CFF"/>
<g opacity="0.899994">
<path d="M527.616 97.1294C569.283 184.124 558.87 266.922 482.684 315.021C430.6 347.905 372.702 295.703 339.376 311.662C298.652 331.164 324.492 414.783 268.936 450.443C206.363 490.607 117.895 470.574 65.8109 414.783C7.57354 352.4 15.8976 246.587 50.1869 210.134C83.0762 175.167 177.747 194.082 218.794 170.568C257.579 148.349 255.047 79.8774 319.283 24.5819C361.766 -11.9863 472.024 -18.9388 527.616 97.1294Z" fill="white"/>
</g>
<path d="M534.308 485.589C534.308 494.377 418.565 501.499 275.789 501.499C133.013 501.499 17.2704 494.377 17.2704 485.589C17.2704 476.803 133.013 469.679 275.789 469.679C418.565 469.679 534.308 476.803 534.308 485.589Z" fill="#F5F5F5"/>
<path d="M502.932 384.916H510.412L523.252 476.807C523.581 479.161 521.849 480.092 519.592 480.092C517.756 480.092 516.199 479.856 515.931 477.943L502.932 384.916Z" fill="#1A2E35"/>
<g opacity="0.199997">
<path d="M502.932 384.916H510.412L523.252 476.807C523.581 479.161 521.849 480.092 519.592 480.092C517.756 480.092 516.199 479.856 515.931 477.943L502.932 384.916Z" fill="white"/>
</g>
<path d="M479.236 384.916H486.716L493.153 477.055C493.313 479.333 491.601 480.092 489.433 480.092C487.48 480.092 485.857 479.686 485.713 477.631L479.236 384.916Z" fill="#1A2E35"/>
<g opacity="0.199997">
<path d="M479.236 384.916H486.716L493.153 477.055C493.313 479.333 491.601 480.092 489.433 480.092C487.48 480.092 485.857 479.686 485.713 477.631L479.236 384.916Z" fill="white"/>
</g>
<path d="M461.499 384.916H454.019L447.581 477.055C447.421 479.333 449.133 480.092 451.301 480.092C453.255 480.092 454.877 479.686 455.021 477.631L461.499 384.916Z" fill="#1A2E35"/>
<g opacity="0.199997">
<path d="M461.499 384.916H454.019L447.581 477.055C447.421 479.333 449.133 480.092 451.301 480.092C453.255 480.092 454.877 479.686 455.021 477.631L461.499 384.916Z" fill="white"/>
</g>
<path d="M437.803 384.916H430.323L417.483 476.807C417.153 479.161 418.885 480.092 421.143 480.092C422.979 480.092 424.536 479.856 424.804 477.943L437.803 384.916Z" fill="#1A2E35"/>
<g opacity="0.199997">
<path d="M437.803 384.916H430.323L417.483 476.807C417.153 479.161 418.885 480.092 421.143 480.092C422.979 480.092 424.536 479.856 424.804 477.943L437.803 384.916Z" fill="white"/>
</g>
<path d="M490.401 278.874L459.226 379.077H527.417L539.199 273.498H497.441C494.238 273.498 491.398 275.667 490.401 278.874Z" fill="#1A2E35"/>
<g opacity="0.199997">
<path d="M490.401 278.874L459.226 379.077H527.417L539.199 273.498H497.441C494.238 273.498 491.398 275.667 490.401 278.874Z" fill="white"/>
</g>
<path d="M479.73 371.05H412.196C409.077 371.05 406.548 373.714 406.548 377.001V381.151C406.548 384.438 409.077 387.104 412.196 387.104H479.73V371.05Z" fill="#1A2E35"/>
<g opacity="0.100006">
<path d="M479.73 371.05H412.196C409.077 371.05 406.548 373.714 406.548 377.001V381.151C406.548 384.438 409.077 387.104 412.196 387.104H479.73V371.05Z" fill="white"/>
</g>
<path d="M533.509 279.362L524.713 359.857C524.016 366.236 518.892 371.05 512.8 371.05H465.742C462.624 371.05 460.094 373.714 460.094 377.001V381.152C460.094 384.438 462.624 387.104 465.742 387.104H522.724C528.89 387.104 534.05 382.176 534.657 375.708L544.248 273.497H539.752C536.56 273.497 533.874 276.021 533.509 279.362Z" fill="#1A2E35"/>
<g opacity="0.300003">
<path d="M533.509 279.362L524.713 359.857C524.016 366.236 518.892 371.05 512.8 371.05H465.742C462.624 371.05 460.094 373.714 460.094 377.001V381.152C460.094 384.438 462.624 387.104 465.742 387.104H522.724C528.89 387.104 534.05 382.176 534.657 375.708L544.248 273.497H539.752C536.56 273.497 533.874 276.021 533.509 279.362Z" fill="white"/>
</g>
<path d="M423.913 448.683L424.868 467.499L414.888 468.308L412.388 450.443L423.913 448.683Z" fill="#FF8C7B"/>
<path d="M408.787 467.329C408.627 467.338 408.47 467.37 408.319 467.425C408.116 467.476 407.946 467.622 407.858 467.821C407.694 468.157 407.767 468.309 407.843 468.393C408.368 469.075 410.995 468.917 412.916 468.535C411.624 467.862 410.223 467.454 408.787 467.329ZM410.57 469.353C409.276 469.44 407.924 469.28 407.46 468.722C407.218 468.394 407.198 467.941 407.411 467.591C407.567 467.279 407.832 467.041 408.151 466.932C409.859 466.311 413.622 468.255 413.787 468.342C413.88 468.39 413.935 468.496 413.923 468.604C413.908 468.712 413.835 468.802 413.735 468.83C412.698 469.103 411.638 469.278 410.57 469.353Z" fill="#007CFF"/>
<path d="M410.885 464.558L410.744 464.553C410.303 464.622 410.284 464.813 410.271 464.879C410.251 465.628 412.003 467.381 413.341 468.099C413.143 466.863 412.591 465.721 411.757 464.826C411.507 464.629 411.197 464.532 410.885 464.558ZM413.697 468.829C413.663 468.842 413.627 468.842 413.593 468.826C412.315 468.329 409.671 466.116 409.819 464.868C409.827 464.569 410.016 464.192 410.691 464.074C411.184 463.987 411.689 464.115 412.091 464.427C413.485 465.488 413.94 468.429 413.963 468.565C413.975 468.658 413.937 468.751 413.865 468.807C413.815 468.836 413.753 468.845 413.697 468.829Z" fill="#007CFF"/>
<path d="M414.707 467.224L426.068 466.468C426.497 466.438 426.887 466.726 427.008 467.16L429.645 476.766C429.885 477.616 429.425 478.51 428.619 478.763C428.515 478.795 428.409 478.816 428.301 478.826C424.201 479.022 420.544 479.028 415.445 479.375C409.428 479.78 411 480.435 403.931 481.012C399.672 481.356 398.585 476.302 400.377 475.93C408.585 474.28 409.287 471.591 412.291 468.258C412.948 467.613 413.808 467.246 414.707 467.224Z" fill="#1A2E35"/>
<g opacity="0.199997">
<path d="M412.388 450.443L413.635 459.353L424.414 458.528L423.914 448.684V448.683L412.388 450.443Z" fill="#1A2E35"/>
</g>
<path d="M465.559 331.271C465.559 331.271 409.212 339.923 401.654 359.397C394.095 378.868 410.472 451.64 410.472 451.64L425.888 450.313C425.888 450.313 425.77 405.553 422.65 372.228L465.559 370.017L504.955 327.73L465.559 331.271Z" fill="#007CFF"/>
<g opacity="0.5">
<path d="M465.559 331.271C465.559 331.271 409.212 339.923 401.654 359.397C394.095 378.868 410.472 451.64 410.472 451.64L425.888 450.313C425.888 450.313 425.77 405.553 422.65 372.228L465.559 370.017L504.955 327.73L465.559 331.271Z" fill="black"/>
</g>
<path d="M409.424 450.703L426.86 448.684V453.731L410.381 455.244L409.424 450.703Z" fill="#007CFF"/>
<path d="M462.209 450.795L463.163 469.611L453.183 470.418L450.683 452.555L462.209 450.795Z" fill="#FF8C7B"/>
<path d="M447.082 469.441C446.922 469.45 446.765 469.481 446.614 469.537C446.412 469.587 446.241 469.733 446.152 469.933C445.989 470.269 446.062 470.421 446.138 470.505C446.664 471.186 449.29 471.029 451.212 470.647C449.92 469.974 448.518 469.565 447.082 469.441ZM448.865 471.465C447.572 471.552 446.22 471.391 445.754 470.834C445.513 470.506 445.493 470.052 445.706 469.703C445.861 469.389 446.128 469.153 446.446 469.042C448.154 468.422 451.916 470.367 452.082 470.454C452.176 470.502 452.23 470.606 452.218 470.716C452.204 470.824 452.13 470.912 452.03 470.942C450.993 471.214 449.933 471.389 448.865 471.465Z" fill="#007CFF"/>
<path d="M449.181 466.668L449.039 466.665C448.598 466.734 448.579 466.924 448.566 466.991C448.546 467.74 450.298 469.491 451.637 470.21C451.438 468.974 450.885 467.832 450.053 466.938C449.802 466.741 449.493 466.644 449.181 466.668ZM451.993 470.941C451.958 470.954 451.922 470.952 451.889 470.938C450.61 470.439 447.965 468.226 448.113 466.98C448.121 466.679 448.311 466.303 448.986 466.186C449.479 466.099 449.985 466.227 450.385 466.539C451.779 467.6 452.235 470.539 452.258 470.677C452.269 470.77 452.233 470.862 452.161 470.917C452.109 470.948 452.049 470.956 451.993 470.941Z" fill="#007CFF"/>
<path d="M453.002 469.336L464.364 468.58C464.792 468.55 465.183 468.838 465.303 469.272L467.94 478.878C468.18 479.728 467.722 480.621 466.915 480.874C466.811 480.907 466.704 480.928 466.596 480.936C462.496 481.133 458.839 481.14 453.74 481.487C447.723 481.89 449.295 482.546 442.227 483.124C437.968 483.468 436.882 478.413 438.674 478.04C446.88 476.392 447.582 473.703 450.586 470.37C451.244 469.725 452.103 469.358 453.002 469.336Z" fill="#1A2E35"/>
<g opacity="0.199997">
<path d="M462.739 461.244L462.209 450.795V450.794L450.683 452.555L452.005 462.005L462.739 461.244Z" fill="#1A2E35"/>
</g>
<path d="M519.654 330.386C519.654 330.386 531.411 370.656 507.896 371.541C484.379 372.427 453.304 371.541 453.304 371.541C453.304 371.541 464.26 403.297 464.3 454.296L449.526 455.624C449.526 455.624 424.682 369.366 430.628 357.822C438.607 342.335 494.038 330.386 494.038 330.386H519.654Z" fill="#007CFF"/>
<g opacity="0.399994">
<path d="M519.654 330.386C519.654 330.386 531.411 370.656 507.896 371.541C484.379 372.427 453.304 371.541 453.304 371.541C453.304 371.541 464.26 403.297 464.3 454.296L449.526 455.624C449.526 455.624 424.682 369.366 430.628 357.822C438.607 342.335 494.038 330.386 494.038 330.386H519.654Z" fill="black"/>
</g>
<path d="M447.804 453.525L448.99 458.494L465.49 457.035V452.247L447.804 453.525Z" fill="#007CFF"/>
<path d="M482.685 234.101C482.685 234.101 468.311 230.792 461.688 253.793C457.748 267.481 458.403 286.226 458.403 286.226L434.627 286.721L431.687 296.9C431.687 296.9 462.356 297.338 470.335 296.232C478.313 295.125 482.685 234.101 482.685 234.101Z" fill="#007CFF"/>
<path d="M466.743 330.878C466.743 330.878 459.184 230.816 482.28 230.816H515.453C523.433 230.816 528.052 242.322 526.372 263.119C524.692 283.919 523.013 335.254 523.013 335.254L466.743 330.878Z" fill="#007CFF"/>
<g opacity="0.199997">
<path d="M466.743 330.878C466.743 330.878 459.184 230.816 482.28 230.816H515.453C523.433 230.816 528.052 242.322 526.372 263.119C524.692 283.919 523.013 335.254 523.013 335.254L466.743 330.878Z" fill="white"/>
</g>
<path d="M430.588 284.534L433.31 284.898C434.49 285.055 435.536 285.776 436.148 286.85L439.904 293.447C440.508 294.509 440.685 295.779 440.394 296.978L439.793 299.466C439.129 302.214 436.3 303.697 433.818 302.595L429.434 300.651C427.822 299.934 426.557 298.556 425.933 296.836L424.848 293.846C424.469 292.8 424.449 291.648 424.792 290.59L425.714 287.738C426.41 285.586 428.448 284.247 430.588 284.534Z" fill="#E77B62"/>
<path d="M432.54 286.299L440.729 306.213L453.326 311.303L470.122 302.452L470.033 282.319L461.381 280.989L454.218 284.684L450.341 288.621L445.242 281.819L438.629 280.989L434.377 282.981L432.54 286.299Z" fill="#007CFF"/>
<g opacity="0.100006">
<path d="M432.54 286.299L440.729 306.213L453.326 311.303L470.122 302.452L470.033 282.319L461.381 280.989L454.218 284.684L450.341 288.621L445.242 281.819L438.629 280.989L434.377 282.981L432.54 286.299Z" fill="black"/>
</g>
<g opacity="0.199997">
<path d="M455.651 310.077L453.036 285.884L450.342 288.621L446.82 283.925L451.075 310.393L453.326 311.302L455.651 310.077Z" fill="black"/>
</g>
<path d="M431.909 282.981C431.909 282.981 443.457 270.589 450.596 286.298C450.596 286.298 462.592 271.479 470.032 282.319L469.073 286.298C469.073 286.298 465.203 276.509 450.341 291.029C450.341 291.029 442.828 275.678 432.54 286.298L431.909 282.981Z" fill="#007CFF"/>
<g opacity="0.800003">
<path d="M431.909 282.981C431.909 282.981 443.457 270.589 450.596 286.298C450.596 286.298 462.592 271.479 470.032 282.319L469.073 286.298C469.073 286.298 465.203 276.509 450.341 291.029C450.341 291.029 442.828 275.678 432.54 286.298L431.909 282.981Z" fill="white"/>
</g>
<path d="M491.78 288.062H479.099L475.771 284.799C474.355 283.408 472.388 282.828 470.492 283.237L468.958 283.57C467.919 283.795 466.843 283.724 465.839 283.366C463.412 282.502 460.732 283.362 459.174 285.506L458.936 285.831C457.387 287.962 457.287 290.892 458.687 293.133L461.883 298.253C463.283 300.497 465.879 301.56 468.35 300.901L477.292 298.516L492.567 300.674L491.78 288.062Z" fill="#E77B62"/>
<path d="M513.354 255.154C512.369 248.871 508.314 230.816 519.233 230.816C530.152 230.816 531.936 248.517 532.566 259.469C533.196 270.422 535.12 303.889 527.858 303.916C520.598 303.944 489.418 301.288 489.418 301.288L489.733 286.685L517.133 284.362C517.133 284.362 514.602 263.123 513.354 255.154Z" fill="#007CFF"/>
<g opacity="0.300003">
<path d="M513.354 255.154C512.369 248.871 508.314 230.816 519.233 230.816C530.152 230.816 531.936 248.517 532.566 259.469C533.196 270.422 535.12 303.889 527.858 303.916C520.598 303.944 489.418 301.288 489.418 301.288L489.733 286.685L517.133 284.362C517.133 284.362 514.602 263.123 513.354 255.154Z" fill="white"/>
</g>
<path d="M484.364 231.35L484.56 232.249L491.503 236.89L504.964 231.535L505.134 231.4C499.938 225.86 501.886 215.705 503.616 207.512L497.152 213.165L488.342 220.924C488.614 222.166 488.81 223.426 488.931 224.696C489.344 228.706 488.304 230.078 484.364 231.35Z" fill="#E77B62"/>
<path d="M476.368 191.156C476.368 191.156 468.864 196.477 470.714 199.712C473.713 204.954 477.956 196.149 477.956 196.149L476.368 191.156Z" fill="#1A2E35"/>
<g opacity="0.199997">
<path d="M500.315 220.634C500.548 219.007 500.592 217.356 500.448 215.718L488.708 222.922C488.797 223.51 488.875 224.102 488.931 224.696C489.093 226.267 489.033 227.432 488.664 228.345C492.983 227.885 499.035 225.149 500.315 220.634Z" fill="black"/>
</g>
<path d="M502.959 194.944C504.3 206.095 505.642 212.525 501.35 219.364C494.994 229.638 481.328 227.491 476.916 217.061C472.894 207.691 471.471 191.03 480.819 184.36C487.167 179.624 495.954 181.209 500.447 187.899C501.844 189.981 502.71 192.407 502.959 194.944Z" fill="#E77B62"/>
<path d="M487.671 204.568C487.832 205.473 487.51 206.292 486.96 206.418C486.411 206.546 485.834 205.924 485.619 205.006C485.404 204.087 485.78 203.282 486.33 203.154C486.88 203.028 487.51 203.677 487.671 204.568Z" fill="#1A2E35"/>
<path d="M477.747 206.56C477.909 207.451 477.586 208.284 477.037 208.398C476.487 208.511 475.911 207.904 475.695 206.985C475.481 206.066 475.857 205.261 476.407 205.133C476.957 205.006 477.586 205.655 477.747 206.56Z" fill="#1A2E35"/>
<path d="M481.637 203.607C481.17 206.15 480.433 208.63 479.438 210.998C480.614 211.555 481.962 211.555 483.138 210.998L481.637 203.607Z" fill="#D64C38"/>
<path d="M489.877 197.981C489.958 197.974 490.037 197.945 490.105 197.896C490.329 197.731 490.383 197.404 490.226 197.168C490.222 197.161 490.217 197.154 490.211 197.148C489.297 195.757 487.794 194.928 486.189 194.929C485.915 194.951 485.71 195.201 485.731 195.49C485.731 195.496 485.731 195.501 485.733 195.508C485.754 195.799 485.993 196.02 486.269 196.003C487.545 195.995 488.742 196.658 489.461 197.769C489.554 197.913 489.711 197.993 489.877 197.981Z" fill="#1A2E35"/>
<path d="M473.124 200.285C473.291 200.267 473.439 200.167 473.527 200.017C474.141 198.799 475.264 197.956 476.557 197.741C476.837 197.718 477.048 197.461 477.027 197.165V197.162C476.999 196.874 476.764 196.659 476.489 196.667C474.857 196.903 473.433 197.956 472.668 199.494C472.524 199.747 472.601 200.076 472.843 200.228C472.929 200.271 473.027 200.291 473.124 200.285Z" fill="#1A2E35"/>
<path d="M489.278 213.515C489.679 213.094 490.044 212.636 490.367 212.146C490.463 212.005 490.432 211.812 490.3 211.712C490.298 211.71 490.295 211.708 490.292 211.706C490.16 211.609 489.979 211.64 489.884 211.776C488.464 214.001 486.13 215.388 483.587 215.513C483.423 215.506 483.283 215.639 483.275 215.813C483.267 215.988 483.394 216.135 483.559 216.144C485.716 216.079 487.766 215.137 489.278 213.515Z" fill="#1A2E35"/>
<path d="M498.656 178.679C498.656 178.679 500.824 166.027 495.739 166.55C490.652 167.071 498.656 178.679 498.656 178.679Z" fill="#1A2E35"/>
<path d="M487.976 206.746C485.95 206.746 484.3 205.008 484.3 202.872C484.3 200.738 485.95 199 487.976 199C490.003 199 491.651 200.738 491.651 202.872C491.651 205.008 490.003 206.746 487.976 206.746ZM475.602 208.739C473.574 208.739 471.926 207.002 471.926 204.866C471.926 202.731 473.574 200.992 475.602 200.992C477.627 200.992 479.276 202.731 479.276 204.866C479.276 207.002 477.627 208.739 475.602 208.739ZM491.839 199.542C490.919 198.359 489.538 197.586 487.976 197.586C485.395 197.586 483.288 199.66 483.014 202.303L480.28 203.006C479.563 201.009 477.744 199.58 475.602 199.58C472.835 199.58 470.584 201.951 470.584 204.866C470.584 207.781 472.835 210.152 475.602 210.152C478.367 210.152 480.618 207.781 480.618 204.866C480.618 204.702 480.586 204.547 480.571 204.387L483.044 203.751C483.444 206.248 485.496 208.16 487.976 208.16C490.742 208.16 492.992 205.787 492.992 202.872C492.992 202.121 492.838 201.408 492.568 200.761C497.619 198.684 504.77 196.358 506.124 197.265L506.84 196.069C504.476 194.497 494.751 198.334 491.839 199.542Z" fill="#1A2E35"/>
<g opacity="0.199997">
<path d="M487.976 206.746C485.95 206.746 484.3 205.008 484.3 202.872C484.3 200.738 485.95 199 487.976 199C490.003 199 491.651 200.738 491.651 202.872C491.651 205.008 490.003 206.746 487.976 206.746ZM475.602 208.739C473.574 208.739 471.926 207.002 471.926 204.866C471.926 202.731 473.574 200.992 475.602 200.992C477.627 200.992 479.276 202.731 479.276 204.866C479.276 207.002 477.627 208.739 475.602 208.739ZM491.839 199.542C490.919 198.359 489.538 197.586 487.976 197.586C485.395 197.586 483.288 199.66 483.014 202.303L480.28 203.006C479.563 201.009 477.744 199.58 475.602 199.58C472.835 199.58 470.584 201.951 470.584 204.866C470.584 207.781 472.835 210.152 475.602 210.152C478.367 210.152 480.618 207.781 480.618 204.866C480.618 204.702 480.586 204.547 480.571 204.387L483.044 203.751C483.444 206.248 485.496 208.16 487.976 208.16C490.742 208.16 492.992 205.787 492.992 202.872C492.992 202.121 492.838 201.408 492.568 200.761C497.619 198.684 504.77 196.358 506.124 197.265L506.84 196.069C504.476 194.497 494.751 198.334 491.839 199.542Z" fill="white"/>
</g>
<path d="M489.038 186.335C489.038 186.335 472.286 198.818 468.71 193.637C465.134 188.455 472.595 187.983 472.595 187.983C472.595 187.983 466.251 183.273 469.603 179.505C472.957 175.736 477.029 179.505 477.029 179.505C477.029 179.505 492.417 165.372 497.662 175.972C497.662 175.972 509.322 173.525 510.138 183.463C510.953 193.401 510.138 194.929 510.138 194.929C510.138 194.929 516.317 195.733 515.423 197.982C514.529 200.232 510.138 198.477 510.138 198.477C510.138 198.477 517.434 204.301 514.082 205.093C510.729 205.884 502.201 203.986 500.094 196.456C497.989 188.926 500.446 187.899 500.446 187.899C500.446 187.899 480.415 196.698 489.038 186.335Z" fill="#1A2E35"/>
<path d="M508.792 204.328C508.211 207.037 506.749 209.445 504.661 211.14C501.98 213.217 499.955 210.701 500.101 207.155C500.236 203.96 501.792 199.029 504.756 198.379C507.72 197.728 509.516 200.922 508.792 204.328Z" fill="#E77B62"/>
<path d="M485.821 230.816C485.821 230.816 484.557 234.471 491.626 234.582C498.694 234.691 505.238 230.155 505.238 230.155C505.238 230.155 508.083 229.152 508.953 230.816C508.953 230.816 501.669 238.231 491.626 238.01C481.582 237.789 483.138 230.678 483.138 230.678C483.138 230.678 484.967 230.155 485.821 230.816Z" fill="#007CFF"/>
<path d="M255.044 484H92.3396V52.0031H255.044V484Z" fill="#007CFF"/>
<g opacity="0.199997">
<path d="M255.044 484H92.3396V52.0031H255.044V484Z" fill="white"/>
</g>
<path d="M255.044 487.789H285.021V48.2136H255.044V487.789Z" fill="#007CFF"/>
<g opacity="0.300003">
<path d="M255.044 487.789H285.021V48.2136H255.044V487.789Z" fill="white"/>
</g>
<path d="M63.8009 487.789H93.7782V48.2136H63.8009V487.789Z" fill="#007CFF"/>
<g opacity="0.399994">
<path d="M63.8009 487.789H93.7782V48.2136H63.8009V487.789Z" fill="white"/>
</g>
<path d="M65.9023 401.391H251.449V480.211H65.9023V401.391ZM65.9023 142.192H251.449V221.012H65.9023V142.192ZM251.449 393.81H65.9023V314.99H251.449V393.81ZM65.9023 228.591H251.449V307.411H65.9023V228.591ZM251.449 134.613H65.9023V55.7927H251.449V134.613ZM58.7103 487.789H258.64V48.2136H58.7103V487.789Z" fill="#007CFF"/>
<g opacity="0.600006">
<path d="M65.9023 401.391H251.449V480.211H65.9023V401.391ZM65.9023 142.192H251.449V221.012H65.9023V142.192ZM251.449 393.81H65.9023V314.99H251.449V393.81ZM65.9023 228.591H251.449V307.411H65.9023V228.591ZM251.449 134.613H65.9023V55.7927H251.449V134.613ZM58.7103 487.789H258.64V48.2136H58.7103V487.789Z" fill="white"/>
</g>
<path d="M183.293 134.613H190.209V73.4537H183.293V134.613Z" fill="#007CFF"/>
<g opacity="0.100006">
<path d="M183.293 134.613H190.209V73.4537H183.293V134.613Z" fill="white"/>
</g>
<path d="M190.209 134.613H197.125V73.4537H190.209V134.613Z" fill="#007CFF"/>
<g opacity="0.399994">
<path d="M190.209 134.613H197.125V73.4537H190.209V134.613Z" fill="white"/>
</g>
<path d="M169.462 134.613H183.294V77.752H169.462V134.613Z" fill="#007CFF"/>
<g opacity="0.600006">
<path d="M169.462 134.613H183.294V77.752H169.462V134.613Z" fill="white"/>
</g>
<path d="M153.609 134.613H162.546V73.4537H153.609V134.613Z" fill="#007CFF"/>
<path d="M162.546 134.613H169.462V73.4537H162.546V134.613Z" fill="#007CFF"/>
<g opacity="0.699997">
<path d="M162.546 134.613H169.462V73.4537H162.546V134.613Z" fill="white"/>
</g>
<path d="M101.156 134.613H110.094V73.4537H101.156V134.613Z" fill="#007CFF"/>
<g opacity="0.699997">
<path d="M101.156 134.613H110.094V73.4537H101.156V134.613Z" fill="white"/>
</g>
<path d="M110.094 134.613H117.009V73.4537H110.094V134.613Z" fill="#007CFF"/>
<g opacity="0.600006">
<path d="M110.094 134.613H117.009V73.4537H110.094V134.613Z" fill="white"/>
</g>
<path d="M130.841 134.613H139.78V73.4537H130.841V134.613Z" fill="#007CFF"/>
<g opacity="0.600006">
<path d="M130.841 134.613H139.78V73.4537H130.841V134.613Z" fill="white"/>
</g>
<path d="M139.778 134.613H146.694V73.4537H139.778V134.613Z" fill="#007CFF"/>
<g opacity="0.100006">
<path d="M139.778 134.613H146.694V73.4537H139.778V134.613Z" fill="black"/>
</g>
<path d="M87.325 134.613H101.157V74.9024H87.325V134.613Z" fill="#007CFF"/>
<g opacity="0.100006">
<path d="M87.325 134.613H101.157V74.9024H87.325V134.613Z" fill="white"/>
</g>
<path d="M80.4089 134.613H87.3249V74.9024H80.4089V134.613Z" fill="#007CFF"/>
<g opacity="0.600006">
<path d="M80.4089 134.613H87.3249V74.9024H80.4089V134.613Z" fill="white"/>
</g>
<path d="M121.62 134.613H130.841V74.9024H121.62V134.613Z" fill="#007CFF"/>
<g opacity="0.100006">
<path d="M121.62 134.613H130.841V74.9024H121.62V134.613Z" fill="white"/>
</g>
<path d="M117.009 134.613H121.62V74.9024H117.009V134.613Z" fill="#007CFF"/>
<g opacity="0.300003">
<path d="M117.009 134.613H121.62V74.9024H117.009V134.613Z" fill="white"/>
</g>
<path d="M139.778 134.613H153.61V77.752H139.778V134.613Z" fill="#007CFF"/>
<g opacity="0.100006">
<path d="M139.778 134.613H153.61V77.752H139.778V134.613Z" fill="white"/>
</g>
<path d="M217.872 134.613H226.809V73.4537H217.872V134.613Z" fill="#007CFF"/>
<g opacity="0.300003">
<path d="M217.872 134.613H226.809V73.4537H217.872V134.613Z" fill="white"/>
</g>
<path d="M226.809 134.613H233.725V73.4537H226.809V134.613Z" fill="#007CFF"/>
<g opacity="0.199997">
<path d="M226.809 134.613H233.725V73.4537H226.809V134.613Z" fill="white"/>
</g>
<path d="M204.04 134.613H217.872V74.9024H204.04V134.613Z" fill="#007CFF"/>
<g opacity="0.100006">
<path d="M204.04 134.613H217.872V74.9024H204.04V134.613Z" fill="white"/>
</g>
<path d="M197.125 134.613H204.041V74.9024H197.125V134.613Z" fill="#007CFF"/>
<g opacity="0.600006">
<path d="M197.125 134.613H204.041V74.9024H197.125V134.613Z" fill="white"/>
</g>
<path d="M238.336 134.613H247.557V74.9024H238.336V134.613Z" fill="#007CFF"/>
<g opacity="0.100006">
<path d="M238.336 134.613H247.557V74.9024H238.336V134.613Z" fill="white"/>
</g>
<path d="M233.725 134.613H238.336V74.9024H233.725V134.613Z" fill="#007CFF"/>
<g opacity="0.600006">
<path d="M233.725 134.613H238.336V74.9024H233.725V134.613Z" fill="white"/>
</g>
<path d="M147.046 221.034H140.296V160.055H147.046V221.034Z" fill="#007CFF"/>
<g opacity="0.100006">
<path d="M147.046 221.034H140.296V160.055H147.046V221.034Z" fill="white"/>
</g>
<path d="M140.294 221.034H133.542V160.055H140.294V221.034Z" fill="#007CFF"/>
<g opacity="0.399994">
<path d="M140.294 221.034H133.542V160.055H140.294V221.034Z" fill="white"/>
</g>
<path d="M160.55 221.034H147.046V164.341H160.55V221.034Z" fill="#007CFF"/>
<g opacity="0.600006">
<path d="M160.55 221.034H147.046V164.341H160.55V221.034Z" fill="white"/>
</g>
<path d="M176.028 221.034H167.302V160.055H176.028V221.034Z" fill="#007CFF"/>
<path d="M167.302 221.034H160.55V160.055H167.302V221.034Z" fill="#007CFF"/>
<g opacity="0.100006">
<path d="M167.302 221.034H160.55V160.055H167.302V221.034Z" fill="black"/>
</g>
<path d="M227.238 221.034H218.513V160.055H227.238V221.034Z" fill="#007CFF"/>
<g opacity="0.100006">
<path d="M227.238 221.034H218.513V160.055H227.238V221.034Z" fill="black"/>
</g>
<path d="M218.512 221.034H211.76V160.055H218.512V221.034Z" fill="#007CFF"/>
<g opacity="0.600006">
<path d="M218.512 221.034H211.76V160.055H218.512V221.034Z" fill="white"/>
</g>
<path d="M198.257 221.034H189.532V160.055H198.257V221.034Z" fill="#007CFF"/>
<g opacity="0.600006">
<path d="M198.257 221.034H189.532V160.055H198.257V221.034Z" fill="white"/>
</g>
<path d="M189.532 221.034H182.781V160.055H189.532V221.034Z" fill="#007CFF"/>
<g opacity="0.100006">
<path d="M189.532 221.034H182.781V160.055H189.532V221.034Z" fill="black"/>
</g>
<path d="M240.742 221.034H227.238V161.5H240.742V221.034Z" fill="#007CFF"/>
<g opacity="0.100006">
<path d="M240.742 221.034H227.238V161.5H240.742V221.034Z" fill="white"/>
</g>
<path d="M247.493 221.034H240.742V161.5H247.493V221.034Z" fill="#007CFF"/>
<g opacity="0.600006">
<path d="M247.493 221.034H240.742V161.5H247.493V221.034Z" fill="white"/>
</g>
<path d="M207.26 221.034H198.257V161.5H207.26V221.034Z" fill="#007CFF"/>
<g opacity="0.100006">
<path d="M207.26 221.034H198.257V161.5H207.26V221.034Z" fill="white"/>
</g>
<path d="M211.761 221.034H207.26V161.5H211.761V221.034Z" fill="#007CFF"/>
<g opacity="0.300003">
<path d="M211.761 221.034H207.26V161.5H211.761V221.034Z" fill="white"/>
</g>
<path d="M189.532 221.034H176.029V164.341H189.532V221.034Z" fill="#007CFF"/>
<g opacity="0.100006">
<path d="M189.532 221.034H176.029V164.341H189.532V221.034Z" fill="white"/>
</g>
<path d="M113.288 221.034H104.561V160.055H113.288V221.034Z" fill="#007CFF"/>
<g opacity="0.100006">
<path d="M113.288 221.034H104.561V160.055H113.288V221.034Z" fill="white"/>
</g>
<path d="M104.561 221.034H97.8103V160.055H104.561V221.034Z" fill="#007CFF"/>
<g opacity="0.199997">
<path d="M104.561 221.034H97.8103V160.055H104.561V221.034Z" fill="white"/>
</g>
<path d="M126.79 221.034H113.288V161.5H126.79V221.034Z" fill="#007CFF"/>
<g opacity="0.100006">
<path d="M126.79 221.034H113.288V161.5H126.79V221.034Z" fill="white"/>
</g>
<path d="M133.542 221.034H126.79V161.5H133.542V221.034Z" fill="#007CFF"/>
<g opacity="0.600006">
<path d="M133.542 221.034H126.79V161.5H133.542V221.034Z" fill="white"/>
</g>
<path d="M93.3089 221.034H84.3076V161.5H93.3089V221.034Z" fill="#007CFF"/>
<g opacity="0.100006">
<path d="M93.3089 221.034H84.3076V161.5H93.3089V221.034Z" fill="white"/>
</g>
<path d="M97.8103 221.034H93.309V161.5H97.8103V221.034Z" fill="#007CFF"/>
<g opacity="0.600006">
<path d="M97.8103 221.034H93.309V161.5H97.8103V221.034Z" fill="white"/>
</g>
<path d="M184.709 393.817H191.461V333.432H184.709V393.817Z" fill="#007CFF"/>
<g opacity="0.100006">
<path d="M184.709 393.817H191.461V333.432H184.709V393.817Z" fill="white"/>
</g>
<path d="M191.461 393.817H198.212V333.432H191.461V393.817Z" fill="#007CFF"/>
<g opacity="0.399994">
<path d="M191.461 393.817H198.212V333.432H191.461V393.817Z" fill="white"/>
</g>
<path d="M171.205 393.817H184.708V337.676H171.205V393.817Z" fill="#007CFF"/>
<g opacity="0.600006">
<path d="M171.205 393.817H184.708V337.676H171.205V393.817Z" fill="white"/>
</g>
<path d="M155.728 393.817H164.453V333.432H155.728V393.817Z" fill="#007CFF"/>
<path d="M164.453 393.817H171.205V333.432H164.453V393.817Z" fill="#007CFF"/>
<g opacity="0.600006">
<path d="M164.453 393.817H171.205V333.432H164.453V393.817Z" fill="white"/>
</g>
<path d="M104.517 393.817H113.244V333.432H104.517V393.817Z" fill="#007CFF"/>
<g opacity="0.300003">
<path d="M104.517 393.817H113.244V333.432H104.517V393.817Z" fill="white"/>
</g>
<path d="M113.244 393.817H119.994V333.432H113.244V393.817Z" fill="#007CFF"/>
<g opacity="0.600006">
<path d="M113.244 393.817H119.994V333.432H113.244V393.817Z" fill="white"/>
</g>
<path d="M133.498 393.817H142.225V333.432H133.498V393.817Z" fill="#007CFF"/>
<g opacity="0.600006">
<path d="M133.498 393.817H142.225V333.432H133.498V393.817Z" fill="white"/>
</g>
<path d="M142.225 393.817H148.976V333.432H142.225V393.817Z" fill="#007CFF"/>
<g opacity="0.100006">
<path d="M142.225 393.817H148.976V333.432H142.225V393.817Z" fill="black"/>
</g>
<path d="M91.0129 393.817H104.516V334.863H91.0129V393.817Z" fill="#007CFF"/>
<g opacity="0.100006">
<path d="M91.0129 393.817H104.516V334.863H91.0129V393.817Z" fill="white"/>
</g>
<path d="M84.261 393.817H91.013V334.863H84.261V393.817Z" fill="#007CFF"/>
<g opacity="0.600006">
<path d="M84.261 393.817H91.013V334.863H84.261V393.817Z" fill="white"/>
</g>
<path d="M124.496 393.817H133.498V334.863H124.496V393.817Z" fill="#007CFF"/>
<g opacity="0.100006">
<path d="M124.496 393.817H133.498V334.863H124.496V393.817Z" fill="white"/>
</g>
<path d="M119.994 393.817H124.494V334.863H119.994V393.817Z" fill="#007CFF"/>
<g opacity="0.300003">
<path d="M119.994 393.817H124.494V334.863H119.994V393.817Z" fill="white"/>
</g>
<path d="M142.224 393.817H155.728V337.676H142.224V393.817Z" fill="#007CFF"/>
<g opacity="0.100006">
<path d="M142.224 393.817H155.728V337.676H142.224V393.817Z" fill="white"/>
</g>
<path d="M218.468 393.817H227.193V333.432H218.468V393.817Z" fill="#007CFF"/>
<g opacity="0.100006">
<path d="M218.468 393.817H227.193V333.432H218.468V393.817Z" fill="black"/>
</g>
<path d="M227.194 393.817H233.945V333.432H227.194V393.817Z" fill="#007CFF"/>
<g opacity="0.199997">
<path d="M227.194 393.817H233.945V333.432H227.194V393.817Z" fill="white"/>
</g>
<path d="M204.964 393.817H218.468V334.863H204.964V393.817Z" fill="#007CFF"/>
<g opacity="0.100006">
<path d="M204.964 393.817H218.468V334.863H204.964V393.817Z" fill="white"/>
</g>
<path d="M198.212 393.817H204.964V334.863H198.212V393.817Z" fill="#007CFF"/>
<g opacity="0.600006">
<path d="M198.212 393.817H204.964V334.863H198.212V393.817Z" fill="white"/>
</g>
<path d="M238.446 393.817H247.448V334.863H238.446V393.817Z" fill="#007CFF"/>
<g opacity="0.100006">
<path d="M238.446 393.817H247.448V334.863H238.446V393.817Z" fill="white"/>
</g>
<path d="M233.945 393.817H238.446V334.863H233.945V393.817Z" fill="#007CFF"/>
<g opacity="0.600006">
<path d="M233.945 393.817H238.446V334.863H233.945V393.817Z" fill="white"/>
</g>
<path d="M184.754 480.239H191.506V420.611H184.754V480.239Z" fill="#007CFF"/>
<g opacity="0.100006">
<path d="M184.754 480.239H191.506V420.611H184.754V480.239Z" fill="white"/>
</g>
<path d="M191.506 480.239H198.257V420.611H191.506V480.239Z" fill="#007CFF"/>
<g opacity="0.399994">
<path d="M191.506 480.239H198.257V420.611H191.506V480.239Z" fill="white"/>
</g>
<path d="M171.25 480.239H184.753V424.803H171.25V480.239Z" fill="#007CFF"/>
<g opacity="0.600006">
<path d="M171.25 480.239H184.753V424.803H171.25V480.239Z" fill="white"/>
</g>
<path d="M155.773 480.239H164.498V420.611H155.773V480.239Z" fill="#007CFF"/>
<path d="M164.498 480.239H171.25V420.611H164.498V480.239Z" fill="#007CFF"/>
<g opacity="0.100006">
<path d="M164.498 480.239H171.25V420.611H164.498V480.239Z" fill="black"/>
</g>
<path d="M104.562 480.239H113.289V420.611H104.562V480.239Z" fill="#007CFF"/>
<g opacity="0.399994">
<path d="M104.562 480.239H113.289V420.611H104.562V480.239Z" fill="white"/>
</g>
<path d="M113.288 480.239H120.038V420.611H113.288V480.239Z" fill="#007CFF"/>
<g opacity="0.600006">
<path d="M113.288 480.239H120.038V420.611H113.288V480.239Z" fill="white"/>
</g>
<path d="M133.542 480.239H142.269V420.611H133.542V480.239Z" fill="#007CFF"/>
<g opacity="0.600006">
<path d="M133.542 480.239H142.269V420.611H133.542V480.239Z" fill="white"/>
</g>
<path d="M142.269 480.239H149.02V420.611H142.269V480.239Z" fill="#007CFF"/>
<g opacity="0.100006">
<path d="M142.269 480.239H149.02V420.611H142.269V480.239Z" fill="black"/>
</g>
<path d="M91.0582 480.239H104.561V422.024H91.0582V480.239Z" fill="#007CFF"/>
<g opacity="0.100006">
<path d="M91.0582 480.239H104.561V422.024H91.0582V480.239Z" fill="white"/>
</g>
<path d="M84.3063 480.239H91.0583V422.024H84.3063V480.239Z" fill="#007CFF"/>
<g opacity="0.600006">
<path d="M84.3063 480.239H91.0583V422.024H84.3063V480.239Z" fill="white"/>
</g>
<path d="M124.541 480.239H133.542V422.024H124.541V480.239Z" fill="#007CFF"/>
<g opacity="0.100006">
<path d="M124.541 480.239H133.542V422.024H124.541V480.239Z" fill="white"/>
</g>
<path d="M120.04 480.239H124.541V422.024H120.04V480.239Z" fill="#007CFF"/>
<g opacity="0.300003">
<path d="M120.04 480.239H124.541V422.024H120.04V480.239Z" fill="white"/>
</g>
<path d="M142.269 480.239H155.773V424.803H142.269V480.239Z" fill="#007CFF"/>
<g opacity="0.100006">
<path d="M142.269 480.239H155.773V424.803H142.269V480.239Z" fill="white"/>
</g>
<path d="M218.513 480.239H227.238V420.611H218.513V480.239Z" fill="#007CFF"/>
<g opacity="0.100006">
<path d="M218.513 480.239H227.238V420.611H218.513V480.239Z" fill="black"/>
</g>
<path d="M227.238 480.239H233.989V420.611H227.238V480.239Z" fill="#007CFF"/>
<g opacity="0.199997">
<path d="M227.238 480.239H233.989V420.611H227.238V480.239Z" fill="white"/>
</g>
<path d="M205.009 480.239H218.513V422.024H205.009V480.239Z" fill="#007CFF"/>
<g opacity="0.100006">
<path d="M205.009 480.239H218.513V422.024H205.009V480.239Z" fill="white"/>
</g>
<path d="M198.257 480.239H205.009V422.024H198.257V480.239Z" fill="#007CFF"/>
<g opacity="0.600006">
<path d="M198.257 480.239H205.009V422.024H198.257V480.239Z" fill="white"/>
</g>
<path d="M238.492 480.239H247.493V422.024H238.492V480.239Z" fill="#007CFF"/>
<g opacity="0.100006">
<path d="M238.492 480.239H247.493V422.024H238.492V480.239Z" fill="white"/>
</g>
<path d="M233.99 480.239H238.492V422.024H233.99V480.239Z" fill="#007CFF"/>
<g opacity="0.600006">
<path d="M233.99 480.239H238.492V422.024H233.99V480.239Z" fill="white"/>
</g>
<path d="M143.65 307.411H136.67V245.429H143.65V307.411Z" fill="#007CFF"/>
<g opacity="0.100006">
<path d="M143.65 307.411H136.67V245.429H143.65V307.411Z" fill="white"/>
</g>
<path d="M136.67 307.411H129.69V245.429H136.67V307.411Z" fill="#007CFF"/>
<g opacity="0.399994">
<path d="M136.67 307.411H129.69V245.429H136.67V307.411Z" fill="white"/>
</g>
<path d="M157.61 307.411H143.65V249.783H157.61V307.411Z" fill="#007CFF"/>
<g opacity="0.600006">
<path d="M157.61 307.411H143.65V249.783H157.61V307.411Z" fill="white"/>
</g>
<path d="M173.612 307.411H164.59V245.429H173.612V307.411Z" fill="#007CFF"/>
<path d="M164.59 307.411H157.61V245.429H164.59V307.411Z" fill="#007CFF"/>
<g opacity="0.100006">
<path d="M164.59 307.411H157.61V245.429H164.59V307.411Z" fill="black"/>
</g>
<path d="M226.553 307.411H217.532V245.429H226.553V307.411Z" fill="#007CFF"/>
<g opacity="0.100006">
<path d="M226.553 307.411H217.532V245.429H226.553V307.411Z" fill="black"/>
</g>
<path d="M217.533 307.411H210.553V245.429H217.533V307.411Z" fill="#007CFF"/>
<g opacity="0.600006">
<path d="M217.533 307.411H210.553V245.429H217.533V307.411Z" fill="white"/>
</g>
<path d="M196.592 307.411H187.57V245.429H196.592V307.411Z" fill="#007CFF"/>
<g opacity="0.600006">
<path d="M196.592 307.411H187.57V245.429H196.592V307.411Z" fill="white"/>
</g>
<path d="M187.572 307.411H180.592V245.429H187.572V307.411Z" fill="#007CFF"/>
<g opacity="0.100006">
<path d="M187.572 307.411H180.592V245.429H187.572V307.411Z" fill="black"/>
</g>
<path d="M240.513 307.411H226.553V246.897H240.513V307.411Z" fill="#007CFF"/>
<g opacity="0.100006">
<path d="M240.513 307.411H226.553V246.897H240.513V307.411Z" fill="white"/>
</g>
<path d="M247.493 307.411H240.513V246.897H247.493V307.411Z" fill="#007CFF"/>
<g opacity="0.600006">
<path d="M247.493 307.411H240.513V246.897H247.493V307.411Z" fill="white"/>
</g>
<path d="M205.9 307.411H196.593V246.897H205.9V307.411Z" fill="#007CFF"/>
<g opacity="0.100006">
<path d="M205.9 307.411H196.593V246.897H205.9V307.411Z" fill="white"/>
</g>
<path d="M210.553 307.411H205.9V246.897H210.553V307.411Z" fill="#007CFF"/>
<g opacity="0.300003">
<path d="M210.553 307.411H205.9V246.897H210.553V307.411Z" fill="white"/>
</g>
<path d="M187.572 307.411H173.612V249.783H187.572V307.411Z" fill="#007CFF"/>
<g opacity="0.100006">
<path d="M187.572 307.411H173.612V249.783H187.572V307.411Z" fill="white"/>
</g>
<path d="M108.75 307.411H99.7289V245.429H108.75V307.411Z" fill="#007CFF"/>
<g opacity="0.199997">
<path d="M108.75 307.411H99.7289V245.429H108.75V307.411Z" fill="white"/>
</g>
<path d="M99.7289 307.411H92.7489V245.429H99.7289V307.411Z" fill="#007CFF"/>
<g opacity="0.199997">
<path d="M99.7289 307.411H92.7489V245.429H99.7289V307.411Z" fill="white"/>
</g>
<path d="M122.71 307.411H108.75V246.897H122.71V307.411Z" fill="#007CFF"/>
<g opacity="0.100006">
<path d="M122.71 307.411H108.75V246.897H122.71V307.411Z" fill="white"/>
</g>
<path d="M129.69 307.411H122.71V246.897H129.69V307.411Z" fill="#007CFF"/>
<g opacity="0.600006">
<path d="M129.69 307.411H122.71V246.897H129.69V307.411Z" fill="white"/>
</g>
<path d="M88.0956 307.411H78.7889V246.897H88.0956V307.411Z" fill="#007CFF"/>
<g opacity="0.100006">
<path d="M88.0956 307.411H78.7889V246.897H88.0956V307.411Z" fill="white"/>
</g>
<path d="M92.7503 307.411H88.0969V246.897H92.7503V307.411Z" fill="#007CFF"/>
<g opacity="0.600006">
<path d="M92.7503 307.411H88.0969V246.897H92.7503V307.411Z" fill="white"/>
</g>
<g opacity="0.199997">
<path d="M77.906 470.184L77.6354 411.916H163.587L163.858 470.184H77.906ZM162.374 150.78L162.645 209.046H76.6927L76.422 150.78H162.374ZM162.981 281.347L163.251 339.615H77.2994L77.0287 281.347H162.981ZM76.7247 216.063H162.677L162.947 274.33H76.9954L76.7247 216.063ZM163.555 404.899H77.602L77.3314 346.63H163.283L163.555 404.899ZM73.7647 487.725C76.0994 488.134 77.982 486.532 77.9714 484.145L77.9394 477.199H163.891L163.917 482.662C163.927 485.048 165.827 487.315 168.161 487.725C170.495 488.134 172.378 486.532 172.367 484.145L170.767 139.74C170.755 137.354 168.855 135.087 166.522 134.677C164.187 134.267 162.305 135.871 162.315 138.259L162.341 143.761H76.3887L76.37 139.74C76.3594 137.354 74.4594 135.087 72.126 134.677C69.7914 134.267 67.9074 135.871 67.9194 138.259L69.5194 482.662C69.5314 485.048 71.4314 487.315 73.7647 487.725Z" fill="black"/>
</g>
<path d="M22.8469 470.184L32.3255 411.916H118.278L108.799 470.184H22.8469ZM160.758 150.78L151.279 209.046H65.3269L74.8055 150.78H160.758ZM139.516 281.347L130.039 339.615H44.0869L53.5655 281.347H139.516ZM64.1842 216.063H150.136L140.658 274.33H54.7069L64.1842 216.063ZM119.419 404.899H33.4669L42.9455 346.63H128.898L119.419 404.899ZM15.7695 487.725C18.0362 488.134 20.1869 486.532 20.5762 484.145L21.7055 477.199H107.658L106.768 482.662C106.38 485.048 107.902 487.315 110.167 487.725C112.432 488.134 114.584 486.532 114.972 484.145L170.996 139.74C171.384 137.354 169.864 135.087 167.599 134.677C165.334 134.267 163.182 135.871 162.794 138.259L161.899 143.761H75.9469L76.6002 139.74C76.9882 137.354 75.4669 135.087 73.2029 134.677C70.9375 134.267 68.7855 135.871 68.3975 138.259L12.3722 482.662C11.9842 485.048 13.5055 487.315 15.7695 487.725Z" fill="#1A2E35"/>
<g opacity="0.199997">
<path d="M22.8469 470.184L32.3255 411.916H118.278L108.799 470.184H22.8469ZM160.758 150.78L151.279 209.046H65.3269L74.8055 150.78H160.758ZM139.516 281.347L130.039 339.615H44.0869L53.5655 281.347H139.516ZM64.1842 216.063H150.136L140.658 274.33H54.7069L64.1842 216.063ZM119.419 404.899H33.4669L42.9455 346.63H128.898L119.419 404.899ZM15.7695 487.725C18.0362 488.134 20.1869 486.532 20.5762 484.145L21.7055 477.199H107.658L106.768 482.662C106.38 485.048 107.902 487.315 110.167 487.725C112.432 488.134 114.584 486.532 114.972 484.145L170.996 139.74C171.384 137.354 169.864 135.087 167.599 134.677C165.334 134.267 163.182 135.871 162.794 138.259L161.899 143.761H75.9469L76.6002 139.74C76.9882 137.354 75.4669 135.087 73.2029 134.677C70.9375 134.267 68.7855 135.871 68.3975 138.259L12.3722 482.662C11.9842 485.048 13.5055 487.315 15.7695 487.725Z" fill="white"/>
</g>
<path d="M183.848 164.319H155.101C153.616 164.319 152.411 163.05 152.411 161.485V123.8C152.411 125.365 153.616 126.634 155.101 126.634H183.848V164.319Z" fill="#007CFF"/>
<g opacity="0.300003">
<path d="M183.848 164.319H155.101C153.616 164.319 152.411 163.05 152.411 161.485V123.8C152.411 125.365 153.616 126.634 155.101 126.634H183.848V164.319Z" fill="black"/>
</g>
<path d="M183.848 126.633H155.101C153.616 126.633 152.411 125.364 152.411 123.799C152.411 122.234 153.616 120.965 155.101 120.965H183.848V126.633Z" fill="#1A2E35"/>
<g opacity="0.5">
<path d="M183.848 126.633H155.101C153.616 126.633 152.411 125.364 152.411 123.799C152.411 122.234 153.616 120.965 155.101 120.965H183.848V126.633Z" fill="white"/>
</g>
<path d="M152.411 123.799C152.411 125.364 153.615 126.633 155.102 126.633H183.848V125.65H155.102C154.132 125.65 153.346 124.819 153.346 123.799C153.346 122.778 154.132 121.95 155.102 121.95H183.848V120.965H155.102C153.615 120.965 152.411 122.234 152.411 123.799Z" fill="#007CFF"/>
<path d="M177.47 147.207H158.79V134.739H177.47V147.207Z" fill="#007CFF"/>
<g opacity="0.5">
<path d="M177.47 147.207H158.79V134.739H177.47V147.207Z" fill="white"/>
</g>
<path d="M14.3696 356.476L7.87891 375.447L17.8696 379.523L25.6656 362.029L14.3696 356.476Z" fill="#FF8C7B"/>
<path d="M19.824 380.399C21.6813 381.415 24.3267 382.431 25.0653 381.902C25.1667 381.84 25.288 381.71 25.2173 381.312C25.1853 381.079 25.0533 380.875 24.86 380.757C24.7213 380.65 24.5707 380.566 24.408 380.506C22.9013 380.167 21.3453 380.129 19.824 380.399ZM18.8973 380.434C18.804 380.371 18.7547 380.257 18.772 380.142C18.792 380.026 18.8787 379.936 18.9893 379.917C19.184 379.883 23.608 379.114 25.1773 380.305C25.472 380.521 25.6747 380.85 25.7427 381.222C25.8587 381.649 25.7067 382.107 25.3613 382.364C24.7227 382.785 23.2893 382.511 21.9893 382.001C20.916 381.575 19.8827 381.051 18.8973 380.434Z" fill="#007CFF"/>
<path d="M23.0708 376.982C22.7588 376.856 22.4122 376.853 22.0988 376.975C20.9828 377.62 20.0815 378.611 19.5162 379.812C21.0988 379.511 23.4068 378.287 23.6068 377.513C23.6122 377.439 23.6495 377.239 23.2175 377.024L23.0708 376.982ZM18.7722 380.367C18.7148 380.288 18.7042 380.179 18.7442 380.089C18.8068 379.955 20.1348 377.09 21.8748 376.458C22.3775 376.267 22.9322 376.301 23.4108 376.551C24.0682 376.892 24.1535 377.338 24.0735 377.648C23.8588 378.975 20.5015 380.381 19.0442 380.477C19.0068 380.481 18.9682 380.47 18.9375 380.446C18.8748 380.443 18.8162 380.415 18.7722 380.367Z" fill="#007CFF"/>
<path d="M18.3735 378.472L6.95081 374C6.52014 373.831 6.03614 374 5.78547 374.406L0.26814 383.392C-0.226527 384.184 -0.0171932 385.249 0.734807 385.77C0.83214 385.838 0.934807 385.894 1.04281 385.938C5.18681 387.475 8.93214 388.671 14.0575 390.684C20.1055 393.056 18.3015 393.217 25.3761 396.109C29.6415 397.846 32.2348 393.019 30.5081 392.055C22.5801 387.695 22.6495 384.711 20.5468 380.319C20.0615 379.443 19.2881 378.787 18.3735 378.472Z" fill="#1A2E35"/>
<g opacity="0.199997">
<path d="M11.2576 365.571L21.7349 370.849L25.6656 362.029L14.3696 356.476L11.2576 365.571Z" fill="#1A2E35"/>
</g>
<path d="M74.1215 374.633L75.8521 394.718L86.5415 393.96L86.5868 374.633H74.1215Z" fill="#FF8C7B"/>
<path d="M89.2257 393.218C91.3111 393.41 94.1244 393.285 94.6151 392.501C94.6871 392.403 94.7511 392.234 94.5431 391.894C94.4284 391.692 94.2324 391.556 94.0111 391.525C93.8444 391.483 93.6737 391.464 93.5031 391.474C91.9857 391.766 90.5351 392.358 89.2257 393.218ZM88.3831 393.624C88.2737 393.603 88.1871 393.517 88.1617 393.403C88.1377 393.288 88.1844 393.172 88.2791 393.108C88.4484 392.999 92.2591 390.509 94.1417 390.978C94.4911 391.061 94.7977 391.283 94.9951 391.599C95.2577 391.949 95.2817 392.432 95.0564 392.809C94.6177 393.455 93.1937 393.776 91.8071 393.829C90.6617 393.866 89.5164 393.797 88.3831 393.624Z" fill="#007CFF"/>
<path d="M90.9906 388.754C90.6559 388.764 90.3346 388.9 90.0893 389.138C89.2919 390.184 88.8173 391.462 88.7293 392.799C90.0826 391.886 91.7733 389.825 91.6786 389.029C91.6559 388.959 91.6173 388.758 91.1413 388.734L90.9906 388.754ZM88.2413 393.613C88.1599 393.561 88.1119 393.467 88.1146 393.364C88.1253 393.218 88.3159 390.035 89.6946 388.75C90.0906 388.373 90.6159 388.181 91.1493 388.219C91.8799 388.269 92.1199 388.649 92.1573 388.966C92.4413 390.28 89.8466 392.93 88.5333 393.603C88.4999 393.623 88.4613 393.628 88.4239 393.617C88.3653 393.641 88.2999 393.64 88.2413 393.613Z" fill="#007CFF"/>
<path d="M87.1879 392.02L75.0105 392.479C74.5505 392.496 74.1639 392.846 74.0799 393.322L72.2332 403.845C72.0625 404.778 72.6412 405.679 73.5265 405.859C73.6399 405.881 73.7559 405.893 73.8705 405.888C78.2585 405.642 82.1532 405.243 87.6185 405.045C94.0679 404.805 92.4599 405.679 100.047 405.508C104.617 405.398 105.268 399.894 103.321 399.697C94.4145 398.856 93.3985 396.069 89.8652 392.854C89.0999 392.239 88.1465 391.943 87.1879 392.02Z" fill="#1A2E35"/>
<g opacity="0.199997">
<path d="M86.5864 374.633H74.1224L75.0264 385.125L86.5624 384.782L86.5864 374.633Z" fill="#1A2E35"/>
</g>
<path d="M64.9523 188.572C64.9523 188.572 45.8336 201.835 48.9576 240.866L45.7776 285.065C45.7776 285.065 26.8123 298.466 11.7096 360.233C11.7096 360.233 16.7723 364.907 25.0149 367.054L70.6229 293.539L87.5029 216.993L89.4776 191.51L64.9523 188.572Z" fill="#1A2E35"/>
<g opacity="0.399994">
<path d="M79.0512 255.322L72.1658 227.223L61.2072 221.54C61.2072 221.54 61.1925 276.334 66.1232 300.792L70.6232 293.539L79.0512 255.322Z" fill="black"/>
</g>
<path d="M55.0401 141.203C55.0401 141.203 41.2894 159.393 45.0174 167.161C48.7468 174.929 60.4961 175.688 60.4961 175.688C60.4961 175.688 61.3334 178.151 64.9294 178.908L67.2481 167.729C67.2481 167.729 64.9774 166.174 62.0761 167.899L54.3734 162.992L64.9734 148.198L55.0401 141.203Z" fill="#FF8C7B"/>
<path d="M74.6757 128.667C74.6757 128.667 64.0303 129.077 58.277 134.193C52.5237 139.309 51.6237 142.34 51.6237 142.34C51.6237 142.34 55.4157 148.163 66.7343 151.316L74.6757 128.667Z" fill="#007CFF"/>
<g opacity="0.100006">
<path d="M66.7342 151.316L71.0222 139.087L66.4222 134.107C66.4222 134.107 62.0889 140.505 61.2075 149.346C62.8089 150.058 64.6409 150.733 66.7342 151.316Z" fill="black"/>
</g>
<path d="M69.4985 188.572C69.4985 188.572 53.7212 206.761 63.3732 242.382L70.1478 287.097C70.1478 287.097 61.5158 329.69 72.1198 380.318C72.1198 380.318 80.3545 381.706 88.2105 379.939L98.0678 284.613L103.004 193.498L69.4985 188.572Z" fill="#1A2E35"/>
<path d="M80.1704 128.021C80.1704 128.021 85.9891 127.39 85.8944 116.107C85.8944 116.107 91.2691 113.518 94.7504 116.853C98.2317 120.186 91.6117 127.976 95.9357 131.251C95.9357 131.251 92.1384 133.945 80.1704 128.021Z" fill="#FF8C7B"/>
<path d="M105.646 100.274C105.699 99.5185 106.122 98.9368 106.591 98.9733C107.06 99.0112 107.395 99.6534 107.342 100.408C107.288 101.164 106.866 101.746 106.396 101.709C105.928 101.673 105.592 101.03 105.646 100.274Z" fill="#1A2E35"/>
<path d="M106.136 101.642L109.919 106.912C109.919 106.912 108.276 108.421 105.757 107.704L106.136 101.642Z" fill="#FF5551"/>
<path d="M80.8682 99.0936C81.3029 108.648 81.2922 112.711 85.8056 117.675C92.7349 122.763 103.654 122.496 105.934 112.987C107.99 104.433 106.934 90.2779 98.1056 86.3C91.8109 83.4673 84.5296 86.5487 81.8402 93.1809C81.0856 95.0454 80.7522 97.0702 80.8682 99.0936Z" fill="#FF8C7B"/>
<path d="M104.303 98.0391C104.439 98.0771 104.583 98.0434 104.692 97.9506C105.479 97.1834 106.568 96.8616 107.618 97.0893C107.839 97.1525 108.067 97.0176 108.131 96.7858C108.192 96.5497 108.064 96.3066 107.844 96.2336C106.523 95.9272 105.14 96.3137 104.139 97.2733C103.96 97.4195 103.928 97.6907 104.067 97.879C104.071 97.8846 104.075 97.8902 104.08 97.8958C104.135 97.9703 104.215 98.0223 104.303 98.0391Z" fill="#1A2E35"/>
<path d="M106.416 99.0093L108.391 98.7058C108.391 98.7058 107.211 100.126 106.416 99.0093Z" fill="#1A2E35"/>
<g opacity="0.199997">
<path d="M90.0525 119.95C90.6552 120.997 92.1565 123.166 94.8992 124.612C95.1938 123.372 95.5338 122.117 95.6952 120.946C93.8312 120.967 91.9005 120.629 90.0525 119.95Z" fill="black"/>
</g>
<path d="M97.0623 104.637C97.0623 104.637 102.512 98.4822 100.309 92.3911C100.309 92.3911 106.529 93.1737 106.136 88.1378C105.744 83.1018 99.2556 84.5983 99.2556 84.5983C99.2556 84.5983 102.77 78.701 99.885 77.0823C97.001 75.4636 91.8663 80.2832 91.8663 80.2832C91.8663 80.2832 79.189 78.2345 75.3636 93.4547C71.537 108.676 63.1436 99.633 62.5343 106.253C61.861 113.582 71.885 112.592 71.885 112.592C71.885 112.592 70.2903 117.679 75.6116 119.312C80.933 120.943 83.7236 117.115 83.7236 117.115C83.7236 117.115 83.381 122.289 89.0636 121.671C95.6956 120.947 94.2903 116.368 94.8583 113.989C95.4156 111.652 98.0716 109.231 97.0623 104.637Z" fill="#1A2E35"/>
<path d="M91.977 81.5405C91.977 81.5405 89.5196 73.9178 93.8156 73.4934C98.1116 73.0705 91.8196 75.9749 91.977 81.5405Z" fill="#1A2E35"/>
<path d="M96.9913 102.335C98.366 103.648 99.1886 105.481 99.2766 107.435C99.3753 110.026 97.0313 110.745 95.0033 109.548C93.166 108.463 90.9246 105.81 91.79 103.434C92.6566 101.057 95.2926 100.752 96.9913 102.335Z" fill="#FF8C7B"/>
<path d="M77.3754 129.646C77.3754 129.646 75.3568 120.551 88.3021 124.53C101.247 128.509 100.169 136.277 100.169 136.277L77.3754 129.646Z" fill="#007CFF"/>
<g opacity="0.5">
<path d="M77.3754 129.646C77.3754 129.646 75.3568 120.551 88.3021 124.53C101.247 128.509 100.169 136.277 100.169 136.277L77.3754 129.646Z" fill="white"/>
</g>
<path d="M60.063 193.119C60.063 193.119 66.091 171.26 65.5657 157.084C65.0403 142.909 60.2297 126.046 82.4817 128.699C104.734 131.352 109.488 139.499 109.488 152.382C109.488 165.267 103.236 201.835 103.236 201.835C103.236 201.835 80.6163 208.086 60.063 193.119Z" fill="#007CFF"/>
<g opacity="0.100006">
<path d="M109.489 152.382C109.489 149.298 109.211 146.487 108.49 143.956L101.098 140.327L96.9127 146.836C96.9127 146.836 102.911 161.049 108.361 166.859C109.029 161.097 109.489 155.87 109.489 152.382Z" fill="black"/>
</g>
<path d="M117.167 146.818C117.167 146.818 124.395 154.398 127.338 157.451L149.791 150.937L151.723 144.808L155.094 144.613L165.32 141.391L169.123 145.342L165.426 153.719L153.312 156.226C153.312 156.226 133.567 167.717 126.327 166.999C119.086 166.281 109.574 157.106 109.574 157.106L117.167 146.818Z" fill="#FF8C7B"/>
<path d="M99.1321 133.038C105.348 133.997 111.701 139.205 121.564 148.405C121.564 148.405 118.327 156.266 111.135 161.098C111.135 161.098 105.381 158.446 98.5347 149.263C90.2494 138.153 95.3214 132.451 99.1321 133.038Z" fill="#007CFF"/>
<path d="M344.454 487.789C342.343 487.789 340.65 487.131 340.718 484.907L345.083 340.017H352.563L348.19 485.157C348.126 487.284 346.473 487.789 344.454 487.789Z" fill="#1A2E35"/>
<g opacity="0.199997">
<path d="M344.454 487.789C342.343 487.789 340.65 487.131 340.718 484.907L345.083 340.017H352.563L348.19 485.157C348.126 487.284 346.473 487.789 344.454 487.789Z" fill="white"/>
</g>
<path d="M418.086 360.688H324.888V340.017H418.086V360.688Z" fill="#1A2E35"/>
<g opacity="0.199997">
<path d="M418.086 360.688H324.888V340.017H418.086V360.688Z" fill="white"/>
</g>
<path d="M441.998 360.688H418.086V340.017H441.998V360.688Z" fill="#007CFF"/>
<path d="M441.998 360.688H418.086V340.017H441.998V360.688Z" fill="#1A2E35"/>
<g opacity="0.199997">
<path d="M441.998 360.688H418.086V340.017H441.998V360.688Z" fill="white"/>
</g>
<path d="M449.6 487.789C451.744 487.789 453.448 487.073 453.328 484.818L445.693 340.017H438.213L445.872 485.254C445.981 487.34 447.619 487.789 449.6 487.789Z" fill="#1A2E35"/>
<g opacity="0.199997">
<path d="M449.6 487.789C451.744 487.789 453.448 487.073 453.328 484.818L445.693 340.017H438.213L445.872 485.254C445.981 487.34 447.619 487.789 449.6 487.789Z" fill="white"/>
</g>
<path d="M422.386 487.789C424.497 487.789 426.19 487.131 426.122 484.907L421.757 340.017H414.275L418.65 485.157C418.714 487.284 420.367 487.789 422.386 487.789Z" fill="#1A2E35"/>
<g opacity="0.199997">
<path d="M422.386 487.789C424.497 487.789 426.19 487.131 426.122 484.907L421.757 340.017H414.275L418.65 485.157C418.714 487.284 420.367 487.789 422.386 487.789Z" fill="white"/>
</g>
<path d="M317.24 487.789C315.096 487.789 313.392 487.073 313.512 484.818L321.147 340.017H328.627L320.968 485.254C320.859 487.34 319.221 487.789 317.24 487.789Z" fill="#1A2E35"/>
<g opacity="0.199997">
<path d="M317.24 487.789C315.096 487.789 313.392 487.073 313.512 484.818L321.147 340.017H328.627L320.968 485.254C320.859 487.34 319.221 487.789 317.24 487.789Z" fill="white"/>
</g>
<path d="M472.558 346.532H294.282C292.306 346.532 290.702 344.843 290.702 342.759V337.275C290.702 335.191 292.306 333.502 294.283 333.502H472.558C474.535 333.502 476.138 335.191 476.138 337.275V342.759C476.138 344.843 474.535 346.532 472.558 346.532Z" fill="#1A2E35"/>
<g opacity="0.5">
<path d="M472.558 346.532H294.282C292.306 346.532 290.702 344.843 290.702 342.759V337.275C290.702 335.191 292.306 333.502 294.283 333.502H472.558C474.535 333.502 476.138 335.191 476.138 337.275V342.759C476.138 344.843 474.535 346.532 472.558 346.532Z" fill="white"/>
</g>
<path d="M391.403 293.144V303.534C392.617 303.534 392.62 305.523 391.403 305.523C387.645 305.523 383.885 305.55 380.125 305.574V291.155H391.403C392.617 291.155 392.62 293.144 391.403 293.144Z" fill="#007CFF"/>
<g opacity="0.300003">
<path d="M391.403 293.144V303.534C392.617 303.534 392.62 305.523 391.403 305.523C387.645 305.523 383.885 305.55 380.125 305.574V291.155H391.403C392.617 291.155 392.62 293.144 391.403 293.144Z" fill="white"/>
</g>
<path d="M382.642 293.158H391.404V303.533H382.642V293.158Z" fill="#007CFF"/>
<g opacity="0.600006">
<path d="M382.642 293.158H391.404V303.533H382.642V293.158Z" fill="white"/>
</g>
<path d="M384.48 292.15H336.119C334.031 292.15 332.339 294.921 332.339 298.339C332.339 301.758 334.031 304.529 336.119 304.529H384.48V292.15Z" fill="#007CFF"/>
<g opacity="0.899994">
<path d="M384.48 292.15H336.119C334.031 292.15 332.339 294.921 332.339 298.339C332.339 301.758 334.031 304.529 336.119 304.529H384.48V292.15Z" fill="white"/>
</g>
<path d="M384.48 305.523C374.536 305.523 346.587 305.713 336.646 305.523C329.836 305.394 329.47 291.638 336.15 291.154C340.806 290.817 345.595 291.154 350.26 291.154H384.48C385.695 291.154 385.698 293.144 384.48 293.144H338.218C336.036 293.144 334.476 293.169 333.634 295.881C332.903 298.228 333.134 303.016 336.119 303.533C336.44 303.589 336.819 303.533 337.143 303.533H352.558H384.48C385.695 303.533 385.698 305.523 384.48 305.523Z" fill="#007CFF"/>
<g opacity="0.199997">
<path d="M384.48 305.523C374.536 305.523 346.587 305.713 336.646 305.523C329.836 305.394 329.47 291.638 336.15 291.154C340.806 290.817 345.595 291.154 350.26 291.154H384.48C385.695 291.154 385.698 293.144 384.48 293.144H338.218C336.036 293.144 334.476 293.169 333.634 295.881C332.903 298.228 333.134 303.016 336.119 303.533C336.44 303.589 336.819 303.533 337.143 303.533H352.558H384.48C385.695 303.533 385.698 305.523 384.48 305.523Z" fill="white"/>
</g>
<path d="M389.721 307.167V316.789C390.846 316.789 390.848 318.631 389.721 318.631C386.241 318.631 382.758 318.656 379.277 318.677V305.323H389.721C390.846 305.323 390.848 307.167 389.721 307.167Z" fill="#007CFF"/>
<g opacity="0.300003">
<path d="M389.721 307.167V316.789C390.846 316.789 390.848 318.631 389.721 318.631C386.241 318.631 382.758 318.656 379.277 318.677V305.323H389.721C390.846 305.323 390.848 307.167 389.721 307.167Z" fill="white"/>
</g>
<path d="M381.608 307.181H389.721V316.789H381.608V307.181Z" fill="#007CFF"/>
<g opacity="0.600006">
<path d="M381.608 307.181H389.721V316.789H381.608V307.181Z" fill="white"/>
</g>
<path d="M383.31 306.245H338.522C336.588 306.245 335.021 308.812 335.021 311.978C335.021 315.143 336.588 317.71 338.522 317.71H383.31V306.245Z" fill="#007CFF"/>
<g opacity="0.899994">
<path d="M383.31 306.245H338.522C336.588 306.245 335.021 308.812 335.021 311.978C335.021 315.143 336.588 317.71 338.522 317.71H383.31V306.245Z" fill="white"/>
</g>
<path d="M383.31 318.631C374.101 318.631 348.217 318.807 339.009 318.631C332.702 318.512 332.364 305.772 338.55 305.324C342.862 305.013 347.298 305.324 351.618 305.324H383.31C384.436 305.324 384.437 307.167 383.31 307.167H340.465C338.445 307.167 337.001 307.19 336.22 309.702C335.544 311.874 335.757 316.309 338.522 316.788C338.82 316.841 339.17 316.788 339.469 316.788H353.746H383.31C384.436 316.788 384.437 318.631 383.31 318.631Z" fill="#007CFF"/>
<path d="M394.927 320.655V332.106C396.266 332.106 396.268 334.299 394.927 334.299C390.786 334.299 386.642 334.329 382.498 334.355V318.462H394.927C396.266 318.462 396.268 320.655 394.927 320.655Z" fill="#007CFF"/>
<g opacity="0.300003">
<path d="M394.927 320.655V332.106C396.266 332.106 396.268 334.299 394.927 334.299C390.786 334.299 386.642 334.329 382.498 334.355V318.462H394.927C396.266 318.462 396.268 320.655 394.927 320.655Z" fill="white"/>
</g>
<path d="M385.272 320.671H394.926V332.106H385.272V320.671Z" fill="#007CFF"/>
<g opacity="0.600006">
<path d="M385.272 320.671H394.926V332.106H385.272V320.671Z" fill="white"/>
</g>
<path d="M387.297 319.559H333.997C331.696 319.559 329.831 322.614 329.831 326.381C329.831 330.148 331.696 333.203 333.997 333.203H387.297V319.559Z" fill="#007CFF"/>
<g opacity="0.899994">
<path d="M387.297 319.559H333.997C331.696 319.559 329.831 322.614 329.831 326.381C329.831 330.148 331.696 333.203 333.997 333.203H387.297V319.559Z" fill="white"/>
</g>
<path d="M387.297 334.299C376.339 334.299 345.535 334.507 334.579 334.299C327.073 334.156 326.669 318.994 334.031 318.462C339.163 318.092 344.441 318.462 349.584 318.462H387.297C388.636 318.462 388.639 320.655 387.297 320.655H336.311C333.907 320.655 332.187 320.685 331.257 323.673C330.453 326.257 330.707 331.535 333.997 332.106C334.352 332.167 334.769 332.106 335.125 332.106H352.115H387.297C388.636 332.106 388.639 334.299 387.297 334.299Z" fill="#007CFF"/>
<g opacity="0.199997">
<path d="M387.297 334.299C376.339 334.299 345.535 334.507 334.579 334.299C327.073 334.156 326.669 318.994 334.031 318.462C339.163 318.092 344.441 318.462 349.584 318.462H387.297C388.636 318.462 388.639 320.655 387.297 320.655H336.311C333.907 320.655 332.187 320.685 331.257 323.673C330.453 326.257 330.707 331.535 333.997 332.106C334.352 332.167 334.769 332.106 335.125 332.106H352.115H387.297C388.636 332.106 388.639 334.299 387.297 334.299Z" fill="black"/>
</g>
</svg>
