<svg width="86" height="86" viewBox="0 0 86 86" fill="none" xmlns="http://www.w3.org/2000/svg">
<g filter="url(#filter0_d_171_392)">
<rect x="4.44312" width="77.5" height="77.5" rx="38.75" fill="white"/>
</g>
<path d="M43.2222 44.9107C38.5115 44.9107 36.7246 42.8695 35.8951 41.7223M35.4294 35.6861C35.4094 34.6221 34.9726 33.6084 34.2131 32.863C33.4535 32.1177 32.4318 31.7001 31.3676 31.7001C30.3035 31.7001 29.2817 32.1177 28.5222 32.863C27.7627 33.6084 27.3259 34.6221 27.3059 35.6861M31.3669 56.9659C33.8136 57.1585 33.4398 63.567 30.3147 63.2162C27.1895 62.8655 27.7314 56.6784 31.3669 56.9659Z" stroke="#1A2E40" stroke-width="2.875" stroke-linecap="round" stroke-linejoin="round"/>
<path d="M22.6441 16.7969C24.0139 15.4272 24.5186 13.711 23.7714 12.9638C23.0242 12.2166 21.308 12.7213 19.9382 14.0911C18.5684 15.4609 18.0637 17.177 18.811 17.9242C19.5582 18.6714 21.2743 18.1667 22.6441 16.7969Z" stroke="#1A2E40" stroke-width="2.875" stroke-linecap="round" stroke-linejoin="round"/>
<path d="M29.5632 21.1095C27.7953 18.2816 25.8608 15.5613 23.77 12.963M27.0361 23.5504C24.8366 21.1109 18.8091 17.9239 18.8091 17.9239M43.2226 44.9107C47.9334 44.9107 49.7203 42.8694 50.5497 41.7222M51.0155 35.686C51.0355 34.622 51.4722 33.6084 52.2318 32.863C52.9913 32.1176 54.013 31.7 55.0772 31.7C56.1414 31.7 57.1631 32.1176 57.9227 32.863C58.6822 33.6084 59.119 34.622 59.139 35.686M43.2226 66.5326C50.5497 66.5326 51.3777 64.1721 51.3777 62.6412C51.3777 61.1102 49.7835 55.9883 43.2226 55.9883C36.6618 55.9883 35.0675 61.1131 35.0675 62.644C35.0675 64.175 35.8956 66.5326 43.2226 66.5326ZM55.078 56.9658C52.6313 57.1584 53.005 63.5669 56.1302 63.2162C59.2554 62.8654 58.7135 56.6783 55.078 56.9658Z" stroke="#1A2E40" stroke-width="2.875" stroke-linecap="round" stroke-linejoin="round"/>
<path d="M67.6359 17.9242C68.3831 17.177 67.8784 15.4608 66.5086 14.091C65.1388 12.7212 63.4227 12.2165 62.6755 12.9637C61.9282 13.7109 62.4329 15.4271 63.8027 16.7969C65.1725 18.1667 66.8887 18.6714 67.6359 17.9242Z" stroke="#1A2E40" stroke-width="2.875" stroke-linecap="round" stroke-linejoin="round"/>
<path d="M56.8816 21.1095C58.6495 18.2816 60.584 15.5613 62.6748 12.963M59.4088 23.5504C61.6082 21.1109 67.6358 17.9239 67.6358 17.9239" stroke="#1A2E40" stroke-width="2.875" stroke-linecap="round" stroke-linejoin="round"/>
<path d="M49.4498 16.8617H49.4857C50.3693 16.3173 51.0597 15.5093 51.4595 14.5516C49.391 14.5452 47.3458 14.9876 45.465 15.8482C47.0684 14.1547 48.559 12.3578 49.9271 10.469C49.9271 10.469 40.9986 12.7015 37.9797 16.5541H38.0027C25.6184 19.9423 18.4624 34.8667 18.4624 43.571C18.4624 53.4368 36.5178 55.9869 43.2224 55.9869C49.927 55.9869 67.9824 53.4368 67.9824 43.571C67.9824 35.1054 61.2131 20.7617 49.4498 16.8617V16.8617Z" stroke="#1A2E40" stroke-width="2.875" stroke-linecap="round" stroke-linejoin="round"/>
<defs>
<filter id="filter0_d_171_392" x="0.443115" y="0" width="85.5" height="85.5" filterUnits="userSpaceOnUse" color-interpolation-filters="sRGB">
<feFlood flood-opacity="0" result="BackgroundImageFix"/>
<feColorMatrix in="SourceAlpha" type="matrix" values="0 0 0 0 0 0 0 0 0 0 0 0 0 0 0 0 0 0 127 0" result="hardAlpha"/>
<feOffset dy="4"/>
<feGaussianBlur stdDeviation="2"/>
<feComposite in2="hardAlpha" operator="out"/>
<feColorMatrix type="matrix" values="0 0 0 0 0 0 0 0 0 0 0 0 0 0 0 0 0 0 0.25 0"/>
<feBlend mode="normal" in2="BackgroundImageFix" result="effect1_dropShadow_171_392"/>
<feBlend mode="normal" in="SourceGraphic" in2="effect1_dropShadow_171_392" result="shape"/>
</filter>
</defs>
</svg>
