<svg width="22" height="24" viewBox="0 0 22 24" fill="none" xmlns="http://www.w3.org/2000/svg">
<path d="M10.75 11.9905C11.4719 11.9905 12.0901 11.7555 12.6046 11.2855C13.1182 10.8162 13.375 10.2519 13.375 9.5924C13.375 8.93293 13.1182 8.36817 12.6046 7.89814C12.0901 7.42892 11.4719 7.1943 10.75 7.1943C10.0281 7.1943 9.41038 7.42892 8.89675 7.89814C8.38225 8.36817 8.125 8.93293 8.125 9.5924C8.125 10.2519 8.38225 10.8162 8.89675 11.2855C9.41038 11.7555 10.0281 11.9905 10.75 11.9905ZM10.75 23.981C7.22813 21.2432 4.59787 18.7 2.85925 16.3514C1.11975 14.0037 0.25 11.8306 0.25 9.83221C0.25 6.83459 1.30569 4.44648 3.41706 2.66789C5.52756 0.889296 7.97188 0 10.75 0C13.5281 0 15.9724 0.889296 18.0829 2.66789C20.1943 4.44648 21.25 6.83459 21.25 9.83221C21.25 11.8306 20.3807 14.0037 18.6421 16.3514C16.9026 18.7 14.2719 21.2432 10.75 23.981Z" fill="white"/>
</svg>
