<svg width="1440" height="956" viewBox="0 0 1440 956" fill="none" xmlns="http://www.w3.org/2000/svg">
<g clip-path="url(#clip0_404_227)">
<rect width="1440" height="956" fill="white"/>
<rect width="1440" height="956" fill="#335675"/>
<path d="M853.994 850.978L1661.93 500.577L1480.97 1439.29L67 1166.72L853.994 850.978Z" fill="#395D7C"/>
<path d="M1093.91 751.204L1732.71 145L1884.61 1088.85L462.905 1317.67L1093.91 751.204Z" fill="#395D7C"/>
<path d="M539.723 1098.54L1337.39 725.367L1183.13 1668.84L-238 1436.47L539.723 1098.54Z" fill="#466F93"/>
<path d="M952.958 1058.92L1552.64 414L1763.2 1346.52L358.567 1663.69L952.958 1058.92Z" fill="#466F93"/>
<path d="M507.972 1237.4L1305.5 867.241L1165.53 1791.32L-261 1594.79L507.972 1237.4Z" fill="#61A9EB"/>
<path d="M1147.71 1037.87L1715.86 365L1970.79 1286.38L582.932 1670.38L1147.71 1037.87Z" fill="#61A9EB"/>
</g>
<defs>
<clipPath id="clip0_404_227">
<rect width="1440" height="956" fill="white"/>
</clipPath>
</defs>
</svg>
