<svg xmlns="http://www.w3.org/2000/svg" width="964" height="180" fill="none" viewBox="0 0 964 180">
  <path fill="#1B8EF2" fill-rule="evenodd" d="M0 25.333c0-4.553 1.756-8.92 4.882-12.138 3.125-3.22 7.364-5.028 11.785-5.028h16.666c3.034 0 5.884.832 8.334 2.3A16.213 16.213 0 0 1 50 8.167h16.667c6.058 0 11.366 3.33 14.283 8.317a16.45 16.45 0 0 1 6.1-3.176l16.1-4.438a16.198 16.198 0 0 1 6.49-.44 16.343 16.343 0 0 1 6.159 2.153 16.832 16.832 0 0 1 4.891 4.416 17.399 17.399 0 0 1 2.877 6.008l34.5 132.656a17.67 17.67 0 0 1 .427 6.684 17.534 17.534 0 0 1-2.09 6.344 17 17 0 0 1-4.288 5.037 16.47 16.47 0 0 1-5.833 2.964l-16.1 4.437a16.178 16.178 0 0 1-6.49.44 16.347 16.347 0 0 1-6.159-2.152 16.823 16.823 0 0 1-4.89-4.416 17.373 17.373 0 0 1-2.877-6.008L83.333 65.357v97.31c0 4.552-1.756 8.919-4.881 12.138-3.126 3.22-7.365 5.028-11.785 5.028H50a16.218 16.218 0 0 1-8.333-2.3 16.219 16.219 0 0 1-8.334 2.3H16.667c-4.42 0-8.66-1.808-11.785-5.028C1.756 171.586 0 167.219 0 162.667V25.333Zm16.667 0h16.666v137.334H16.667V25.333Zm50 137.334H50V25.333h16.667v137.334ZM91.358 29.891l16.1-4.438 34.517 132.656-16.1 4.437L91.358 29.891Z" clip-rule="evenodd"/>
  <path fill="#fff" d="M241.189 102.657c5.16.922 9.537 3.64 13.13 8.155 3.594 4.515 5.391 9.629 5.391 15.342 0 4.884-1.29 9.306-3.87 13.268-2.488 3.87-6.128 6.957-10.919 9.261-4.792 2.211-10.366 3.317-16.724 3.317h-38.424V55.941H226.4c6.542 0 12.163 1.106 16.862 3.317 4.7 2.212 8.247 5.206 10.643 8.984 2.396 3.686 3.593 7.832 3.593 12.44 0 5.528-1.474 10.135-4.422 13.82-2.949 3.687-6.911 6.405-11.887 8.155ZM205.53 96.3h19.488c5.16 0 9.168-1.152 12.025-3.456 2.948-2.395 4.423-5.805 4.423-10.228 0-4.33-1.475-7.694-4.423-10.09-2.857-2.487-6.865-3.731-12.025-3.731H205.53V96.3Zm21.285 42.846c5.344 0 9.537-1.29 12.577-3.87 3.041-2.58 4.561-6.174 4.561-10.781 0-4.699-1.612-8.431-4.837-11.195-3.225-2.764-7.51-4.146-12.854-4.146H205.53v29.992h21.285Zm93.831 13.821c-8.938 0-17.185-2.073-24.74-6.219-7.464-4.239-13.407-10.09-17.83-17.553-4.331-7.556-6.496-16.033-6.496-25.432 0-9.398 2.165-17.83 6.496-25.293 4.423-7.464 10.366-13.269 17.83-17.415 7.555-4.239 15.802-6.358 24.74-6.358 9.03 0 17.277 2.12 24.74 6.358 7.556 4.146 13.499 9.951 17.83 17.415 4.331 7.464 6.496 15.895 6.496 25.293 0 9.399-2.165 17.876-6.496 25.432-4.331 7.463-10.274 13.314-17.83 17.553-7.463 4.146-15.71 6.219-24.74 6.219Zm0-13.683c6.358 0 12.025-1.428 17-4.284 4.976-2.949 8.846-7.095 11.61-12.44 2.857-5.436 4.285-11.702 4.285-18.797 0-7.095-1.428-13.314-4.285-18.659-2.764-5.344-6.634-9.444-11.61-12.3-4.975-2.857-10.642-4.285-17-4.285-6.358 0-12.025 1.428-17 4.284-4.976 2.857-8.892 6.957-11.748 12.301-2.765 5.345-4.147 11.564-4.147 18.659 0 7.095 1.382 13.361 4.147 18.797 2.856 5.345 6.772 9.491 11.748 12.44 4.975 2.856 10.642 4.284 17 4.284Zm108.385 13.683c-8.938 0-17.185-2.073-24.74-6.219-7.464-4.239-13.407-10.09-17.83-17.553-4.331-7.556-6.496-16.033-6.496-25.432 0-9.398 2.165-17.83 6.496-25.293 4.423-7.464 10.366-13.269 17.83-17.415 7.555-4.239 15.802-6.358 24.74-6.358 9.03 0 17.277 2.12 24.74 6.358 7.556 4.146 13.499 9.951 17.83 17.415 4.331 7.464 6.496 15.895 6.496 25.293 0 9.399-2.165 17.876-6.496 25.432-4.331 7.463-10.274 13.314-17.83 17.553-7.463 4.146-15.71 6.219-24.74 6.219Zm0-13.683c6.358 0 12.025-1.428 17-4.284 4.976-2.949 8.846-7.095 11.61-12.44 2.857-5.436 4.285-11.702 4.285-18.797 0-7.095-1.428-13.314-4.285-18.659-2.764-5.344-6.634-9.444-11.61-12.3-4.975-2.857-10.642-4.285-17-4.285-6.358 0-12.025 1.428-17 4.284-4.976 2.857-8.892 6.957-11.749 12.301-2.764 5.345-4.146 11.564-4.146 18.659 0 7.095 1.382 13.361 4.146 18.797 2.857 5.345 6.773 9.491 11.749 12.44 4.975 2.856 10.642 4.284 17 4.284ZM546.538 152l-37.18-42.985V152h-15.756V55.941h15.756v43.814l37.318-43.814h19.765L524.7 104.04 567.132 152h-20.594Zm66.179.967c-6.45 0-12.255-1.105-17.415-3.317-5.16-2.303-9.215-5.528-12.163-9.675-2.949-4.146-4.423-8.984-4.423-14.512h16.862c.369 4.146 1.981 7.556 4.838 10.228 2.948 2.672 7.048 4.008 12.301 4.008 5.436 0 9.675-1.29 12.715-3.87 3.041-2.672 4.561-6.082 4.561-10.228 0-3.225-.967-5.851-2.902-7.878-1.843-2.027-4.193-3.594-7.049-4.699-2.764-1.106-6.634-2.304-11.61-3.594-6.266-1.659-11.38-3.317-15.342-4.976-3.87-1.75-7.187-4.423-9.951-8.016-2.765-3.594-4.147-8.385-4.147-14.374 0-5.529 1.382-10.366 4.147-14.513 2.764-4.146 6.634-7.325 11.61-9.537 4.975-2.211 10.734-3.317 17.277-3.317 9.306 0 16.908 2.35 22.805 7.05 5.989 4.606 9.306 10.964 9.951 19.073h-17.415c-.276-3.502-1.935-6.496-4.975-8.984-3.041-2.488-7.049-3.732-12.025-3.732-4.515 0-8.201 1.152-11.057 3.455-2.857 2.304-4.285 5.621-4.285 9.952 0 2.948.876 5.39 2.626 7.325 1.843 1.843 4.147 3.317 6.911 4.423 2.764 1.106 6.542 2.303 11.334 3.594 6.357 1.75 11.517 3.501 15.48 5.252 4.054 1.75 7.463 4.469 10.227 8.154 2.857 3.594 4.285 8.431 4.285 14.513 0 4.883-1.336 9.49-4.008 13.821-2.58 4.331-6.404 7.832-11.472 10.504-4.976 2.58-10.873 3.87-17.691 3.87Zm128.472-97.026V152h-15.756v-42.017h-45.197V152H664.48V55.941h15.756V97.13h45.197V55.94h15.756Zm36.499 12.716v28.196h33.172v12.853h-33.172v29.44h37.318V152h-53.074V55.803h53.074v12.854h-37.318Zm72.482 70.627h32.48V152h-48.237V55.941h15.757v83.343Zm102.187-83.343v12.854h-40.774v28.334h31.79v12.854h-31.79V152h-15.756V55.941h56.53Z"/>
</svg>
