<svg width="1440" height="861" viewBox="0 0 1440 861" fill="none" xmlns="http://www.w3.org/2000/svg">
<g clip-path="url(#clip0_171_649)">
<rect width="1440" height="861" fill="white"/>
<rect width="1440" height="861" fill="white"/>
<rect width="1440" height="861" fill="#61A9EB"/>
<path d="M1278.73 662.369C1231.35 564.214 983.485 730.452 940.074 482.104C896.662 233.756 726.869 34.6993 473.06 306.545C385.865 404.083 162.645 564.32 10.6383 474.74C-141.368 385.155 -150.954 823.979 43.5052 903L1231.35 901.147C1231.35 901.147 1326.11 760.524 1278.73 662.369Z" fill="white"/>
<path d="M213.578 852.227H230.139V776.273H213.578V852.227Z" fill="#A53D38"/>
<path d="M130.887 852.227H147.449V753.062H130.887V852.227Z" fill="#35488B"/>
<path d="M197.016 852.227H213.578V776.273H197.016V852.227Z" fill="#35488B"/>
<path d="M147.449 852.227H164.01V765.853H147.449V852.227Z" fill="#F1A34F"/>
<path d="M263.224 852.227H279.785V759.878H263.224V852.227Z" fill="#F1A34F"/>
<path d="M230.113 852.227H246.675V759.878H230.113V852.227Z" fill="#F1A34F"/>
<path d="M246.662 852.227H263.224V786.49H246.662V852.227Z" fill="#A53D38"/>
<path d="M279.777 852.168H296.339V765.799H279.777V852.168Z" fill="#A53D38"/>
<path d="M114.326 852.232H130.887V776.273H114.326V852.232Z" fill="#A53D38"/>
<path d="M180.572 852.227H197.134V793.613H180.572V852.227Z" fill="#F1A34F"/>
<path d="M164.01 852.227H180.572V754.211H164.01V852.227Z" fill="#A53D38"/>
<path d="M74.5851 846.97L90.3536 852.168L116.073 769.932L100.304 764.734L74.5851 846.97Z" fill="#F1A34F"/>
<path d="M132.822 849.856H145.344V835.382H132.822V849.856Z" fill="#A53D38"/>
<path d="M166.312 762.878H178.95V759.433H166.312V762.878Z" fill="#F1A34F"/>
<path d="M166.312 768.68H178.95V765.234H166.312V768.68Z" fill="#F1A34F"/>
<path d="M148.849 775.862H162.693V774.14H148.849V775.862Z" fill="white"/>
<path d="M288.096 784.955C291.475 784.955 294.214 782.218 294.214 778.837V769.447H281.978V778.837C281.978 782.218 284.717 784.955 288.096 784.955Z" fill="#35488B"/>
<path d="M231.656 764.447H245.673V762.551H231.656V764.447Z" fill="#35488B"/>
<path d="M248.047 850.599H261.987V847.609H248.047V850.599Z" fill="#35488B"/>
<path d="M248.047 846.614H261.987V843.629H248.047V846.614Z" fill="white"/>
<path d="M255.017 840.946C258.348 840.946 261.049 838.243 261.049 834.917V834.912C261.049 831.58 258.348 828.883 255.017 828.883C251.686 828.883 248.985 831.58 248.985 834.912V834.917C248.985 838.243 251.686 840.946 255.017 840.946Z" fill="white"/>
<path d="M265.407 817.715H277.586V788.648H265.407V817.715Z" fill="#A53D38"/>
<path d="M215.495 785.416H228.516V782.426H215.495V785.416Z" fill="white"/>
<path d="M215.348 800.504H228.369V797.519H215.348V800.504Z" fill="white"/>
<path d="M118.332 788.708H127.45C128.698 788.708 129.71 787.698 129.71 786.45C129.71 785.203 128.698 784.188 127.45 784.188H118.332C117.084 784.188 116.073 785.203 116.073 786.45C116.073 787.698 117.084 788.708 118.332 788.708Z" fill="white"/>
<path d="M944.199 730.396H960.762V654.442H944.199V730.396Z" fill="#A53D38"/>
<path d="M861.463 730.465H878.021V631.3H861.463V730.465Z" fill="#35488B"/>
<path d="M927.636 730.435H944.199V654.481H927.636V730.435Z" fill="#35488B"/>
<path d="M878.021 730.396H894.584V644.022H878.021V730.396Z" fill="#F1A34F"/>
<path d="M993.828 730.43H1010.39V638.082H993.828V730.43Z" fill="#F1A34F"/>
<path d="M960.703 730.396H977.266V638.052H960.703V730.396Z" fill="#F1A34F"/>
<path d="M977.266 730.396H993.828V664.659H977.266V730.396Z" fill="#A53D38"/>
<path d="M1010.39 730.396H1026.95V644.022H1010.39V730.396Z" fill="#A53D38"/>
<path d="M844.9 730.465H861.463V654.506H844.9V730.465Z" fill="#A53D38"/>
<path d="M911.078 730.435H927.636V671.821H911.078V730.435Z" fill="#F1A34F"/>
<path d="M894.515 730.396H911.078V632.384H894.515V730.396Z" fill="#A53D38"/>
<path d="M805.206 725.06L820.977 730.257L846.692 648.021L830.926 642.819L805.206 725.06Z" fill="#F1A34F"/>
<path d="M863.443 727.945H875.967V713.471H863.443V727.945Z" fill="#A53D38"/>
<path d="M896.931 640.968H909.573V637.517H896.931V640.968Z" fill="#F1A34F"/>
<path d="M896.931 646.769H909.573V643.319H896.931V646.769Z" fill="#F1A34F"/>
<path d="M879.472 653.947H893.312V652.224H879.472V653.947Z" fill="white"/>
<path d="M1018.72 663.045C1022.1 663.045 1024.84 660.303 1024.84 656.927V647.531H1012.6V656.927C1012.6 660.303 1015.34 663.045 1018.72 663.045Z" fill="#35488B"/>
<path d="M962.277 642.537H976.295V640.641H962.277V642.537Z" fill="#35488B"/>
<path d="M978.667 728.683H992.611V725.698H978.667V728.683Z" fill="#35488B"/>
<path d="M978.667 724.703H992.611V721.713H978.667V724.703Z" fill="white"/>
<path d="M985.636 719.035C988.967 719.035 991.67 716.333 991.67 713.001C991.67 709.67 988.967 706.972 985.636 706.972C982.305 706.972 979.607 709.67 979.607 713.001C979.607 716.333 982.305 719.035 985.636 719.035Z" fill="white"/>
<path d="M996.026 695.805H1008.21V666.738H996.026V695.805Z" fill="#A53D38"/>
<path d="M946.115 663.505H959.138V660.515H946.115V663.505Z" fill="white"/>
<path d="M945.971 678.593H958.99V675.603H945.971V678.593Z" fill="white"/>
<path d="M848.954 666.797H858.072C859.32 666.797 860.33 665.787 860.33 664.54C860.33 663.287 859.32 662.278 858.072 662.278H848.954C847.707 662.278 846.692 663.287 846.692 664.54C846.692 665.787 847.707 666.797 848.954 666.797Z" fill="white"/>
<path d="M153.818 609.168H137.962V538.956H153.818V609.168Z" fill="#A53D38"/>
<path d="M280.559 609.188H264.704V538.976H280.559V609.188Z" fill="#F1A34F"/>
<path d="M232.993 609.168H217.138V536.452H232.993V609.168Z" fill="#35488B"/>
<path d="M169.674 609.168H153.818V536.452H169.674V609.168Z" fill="#F1A34F"/>
<path d="M217.139 609.168H201.283V546.248H217.139V609.168Z" fill="#A53D38"/>
<path d="M106.296 609.168H90.4407V514.146H106.296V609.168Z" fill="#35488B"/>
<path d="M264.704 609.168H248.848V514.146H264.704V609.168Z" fill="#35488B"/>
<path d="M137.999 609.168H122.143V520.76H137.999V609.168Z" fill="#35488B"/>
<path d="M122.143 609.168H106.288V544.07H122.143V609.168Z" fill="#A53D38"/>
<path d="M90.4408 609.168H74.5851V526.477H90.4408V609.168Z" fill="#F1A34F"/>
<path d="M296.339 609.04H280.483V526.348H296.339V609.04Z" fill="#35488B"/>
<path d="M248.848 609.168H232.993V523.68H248.848V609.168Z" fill="#F1A34F"/>
<path d="M185.429 609.168H169.573V520.76H185.429V609.168Z" fill="#35488B"/>
<path d="M201.284 609.168H185.429V515.33H201.284V609.168Z" fill="#F1A34F"/>
<path d="M231.131 554.41H219.142V540.55H231.131V554.41Z" fill="#F1A34F"/>
<path d="M199.068 523.557H186.969V520.255H199.068V523.557Z" fill="#F1A34F"/>
<path d="M199.068 529.111H186.969V525.809H199.068V529.111Z" fill="#F1A34F"/>
<path d="M82.476 544.693C79.2411 544.693 76.6191 542.07 76.6191 538.838V529.843H88.3334V538.838C88.3334 542.07 85.7109 544.693 82.476 544.693Z" fill="#35488B"/>
<path d="M136.51 525.056H123.091V523.245H136.51V525.056Z" fill="#35488B"/>
<path d="M120.818 607.535H107.472V604.674H120.818V607.535Z" fill="#35488B"/>
<path d="M120.818 603.723H107.472V600.862H120.818V603.723Z" fill="#35488B"/>
<path d="M114.145 598.293C110.956 598.293 108.37 595.709 108.37 592.521C108.37 589.333 110.956 586.744 114.145 586.744C117.334 586.744 119.919 589.333 119.919 592.521C119.919 595.709 117.334 598.293 114.145 598.293Z" fill="#35488B"/>
<path d="M104.198 576.057H92.5391V548.228H104.198V576.057Z" fill="#A53D38"/>
<path d="M151.983 545.134H139.516V542.273H151.983V545.134Z" fill="white"/>
<path d="M152.123 559.578H139.657V556.717H152.123V559.578Z" fill="white"/>
<path d="M245.003 531.566H236.274C235.079 531.566 234.11 530.596 234.11 529.403C234.11 528.21 235.079 527.239 236.274 527.239H245.003C246.197 527.239 247.166 528.21 247.166 529.403C247.166 530.596 246.197 531.566 245.003 531.566Z" fill="white"/>
<path d="M183.606 596.758H171.396V607.535H183.606V596.758Z" fill="white"/>
<path d="M215.577 606.104H202.649V603.723H215.577V606.104Z" fill="#A53D38"/>
<path d="M294.21 565.84H282.803V562.123H294.21V565.84Z" fill="#A53D38"/>
<path d="M294.21 571.889H282.803V568.172H294.21V571.889Z" fill="#A53D38"/>
<path d="M279.895 730.698H296.339V644.938H279.895V730.698Z" fill="#A53D38"/>
<path d="M173.24 730.698H189.684V644.938H173.24V730.698Z" fill="#A53D38"/>
<path d="M263.452 730.698H279.895V633.379H263.452V730.698Z" fill="#35488B"/>
<path d="M247.008 730.698H263.452V655.283H247.008V730.698Z" fill="#F1A34F"/>
<path d="M91.0258 730.698H107.469V655.283H91.0258V730.698Z" fill="#A53D38"/>
<path d="M74.5851 730.698H91.0283V644.938H74.5851V730.698Z" fill="#35488B"/>
<path d="M156.797 730.698H173.24V639.007H156.797V730.698Z" fill="#F1A34F"/>
<path d="M107.469 730.698H123.913V639.007H107.469V730.698Z" fill="#F1A34F"/>
<path d="M140.353 730.698H156.797V633.379H140.353V730.698Z" fill="#A53D38"/>
<path d="M123.91 730.698H140.353V655.283H123.91V730.698Z" fill="#35488B"/>
<path d="M230.565 730.698H247.008V644.938H230.565V730.698Z" fill="#A53D38"/>
<path d="M189.681 725.535L205.337 730.698L230.565 650.031C230.736 649.482 230.437 648.903 229.893 648.724L216.227 644.215C215.671 644.032 215.074 644.339 214.9 644.898L189.681 725.535Z" fill="#F1A34F"/>
<path d="M281.234 655.585H294.999V651.784H281.234V655.585Z" fill="#F1A34F"/>
<path d="M281.234 658.476H294.999V656.877H281.234V658.476Z" fill="#F1A34F"/>
<path d="M231.904 724.941H245.669V721.139H231.904V724.941Z" fill="#F1A34F"/>
<path d="M231.904 727.832H245.669V726.233H231.904V727.832Z" fill="#F1A34F"/>
<path d="M175.423 697.413H187.286V648.591H175.423V697.413Z" fill="#F1A34F"/>
<path d="M98.2346 668.361H99.9078C101.882 668.361 103.482 666.762 103.482 664.787C103.482 662.812 101.882 661.213 99.9078 661.213H98.2346C96.2611 661.213 94.6607 662.812 94.6607 664.787C94.6607 666.762 96.2611 668.361 98.2346 668.361Z" fill="#F1A34F"/>
<path d="M141.962 640.606H155.27V639.007H141.962V640.606Z" fill="#F1A34F"/>
<path d="M141.962 643.571H155.27V641.972H141.962V643.571Z" fill="#F1A34F"/>
<path d="M141.962 646.536H155.27V644.938H141.962V646.536Z" fill="#F1A34F"/>
<path d="M248.015 675.965H262.445V660.679H248.015V675.965Z" fill="white"/>
<path d="M248.015 679.643H262.445V677.593H248.015V679.643Z" fill="white"/>
<path d="M76.181 728.554H89.7556V726.158H76.181V728.554Z" fill="white"/>
<path d="M76.181 724.56H89.7556V722.164H76.181V724.56Z" fill="white"/>
<path d="M76.181 720.223H89.7556V707.219H76.181V720.223Z" fill="white"/>
<path d="M131.848 700.294H132.418C136.009 700.294 138.92 697.384 138.92 693.79C138.92 690.201 136.009 687.29 132.418 687.29H131.848C128.257 687.29 125.346 690.201 125.346 693.79C125.346 697.384 128.257 700.294 131.848 700.294Z" fill="#A53D38"/>
<path d="M265.083 728.554H278.428V721.139H265.083V728.554Z" fill="#F1A34F"/>
<path d="M212.999 654.981L226.487 659.238L227.346 656.521L213.858 652.259L212.999 654.981Z" fill="#A53D38"/>
<path d="M157.856 650.759H172.343V648.591H157.856V650.759Z" fill="#A53D38"/>
<path d="M157.775 647.789H172.262V645.626H157.775V647.789Z" fill="#A53D38"/>
<path d="M165.099 664.728C169.1 664.728 172.343 661.486 172.343 657.486V651.556H157.856V657.486C157.856 661.486 161.099 664.728 165.099 664.728Z" fill="#A53D38"/>
<path d="M74.5851 852.227H296.339V379.331H74.5851V852.227ZM302.27 373.633V858.38H68.6534V373.633H302.27Z" fill="#699FF0"/>
<path d="M33.0634 858.256H68.6534V373.633H33.0634V858.256Z" fill="#466AA5"/>
<path d="M71.3909 500.865H299.533V487.634H71.3909V500.865Z" fill="#699FF0"/>
<path d="M71.3909 622.395H299.533V609.163H71.3909V622.395Z" fill="#699FF0"/>
<path d="M71.3909 743.929H299.533V730.698H71.3909V743.929Z" fill="#699FF0"/>
<path d="M156.755 487.683H140.312V412.269H156.755V487.683Z" fill="#35488B"/>
<path d="M238.866 487.683H222.422V412.269H238.866V487.683Z" fill="#35488B"/>
<path d="M173.199 487.683H156.755V412.269H173.199V487.683Z" fill="#A53D38"/>
<path d="M222.424 487.683H205.98V401.923H222.424V487.683Z" fill="#35488B"/>
<path d="M107.472 487.718H91.0283V396.033H107.472V487.718Z" fill="#F1A34F"/>
<path d="M140.35 487.718H123.907V396.033H140.35V487.718Z" fill="#F1A34F"/>
<path d="M123.907 487.703H107.464V390.385H123.907V487.703Z" fill="#A53D38"/>
<path d="M91.0283 487.683H74.5851V401.923H91.0283V487.683Z" fill="#A53D38"/>
<path d="M255.309 487.683H238.866V412.269H255.309V487.683Z" fill="#A53D38"/>
<path d="M189.538 487.683H173.095V395.993H189.538V487.683Z" fill="#F1A34F"/>
<path d="M205.982 487.683H189.538V390.365H205.982V487.683Z" fill="#A53D38"/>
<path d="M294.756 482.52L279.1 487.683L253.565 406.032L269.22 400.869L294.756 482.52Z" fill="#F1A34F"/>
<path d="M236.935 431.025H224.502V416.65H236.935V431.025Z" fill="#F1A34F"/>
<path d="M203.684 399.027H191.136V395.607H203.684V399.027Z" fill="#F1A34F"/>
<path d="M203.684 404.789H191.136V401.364H203.684V404.789Z" fill="#F1A34F"/>
<path d="M221.022 411.917H207.277V410.205H221.022V411.917Z" fill="white"/>
<path d="M82.7686 420.946C79.4139 420.946 76.6943 418.229 76.6943 414.873V405.547H88.8428V414.873C88.8428 418.229 86.1232 420.946 82.7686 420.946Z" fill="#35488B"/>
<path d="M138.806 400.587H124.889V398.706H138.806V400.587Z" fill="#35488B"/>
<path d="M122.532 486.119H108.691V483.154H122.532V486.119Z" fill="#35488B"/>
<path d="M122.532 482.169H108.691V479.199H122.532V482.169Z" fill="#35488B"/>
<path d="M115.611 476.541C112.304 476.541 109.623 473.858 109.623 470.551C109.623 467.245 112.304 464.562 115.611 464.562C118.919 464.562 121.601 467.245 121.601 470.551C121.601 473.858 118.919 476.541 115.611 476.541Z" fill="#35488B"/>
<path d="M105.296 453.473H93.2043V424.614H105.296V453.473Z" fill="#A53D38"/>
<path d="M154.852 421.407H141.924V418.437H154.852V421.407Z" fill="white"/>
<path d="M154.998 436.386H142.07V433.421H154.998V436.386Z" fill="white"/>
<path d="M251.321 424.674H242.268C241.029 424.674 240.025 423.669 240.025 422.431C240.025 421.194 241.029 420.189 242.268 420.189H251.321C252.56 420.189 253.565 421.194 253.565 422.431C253.565 423.669 252.56 424.674 251.321 424.674Z" fill="white"/>
<path d="M1179.72 741.251H1192.82V672.935H1179.72V741.251Z" fill="#A53D38"/>
<path d="M1094.76 741.251H1107.85V672.935H1094.76V741.251Z" fill="#A53D38"/>
<path d="M1166.62 741.251H1179.72V663.728H1166.62V741.251Z" fill="#F1A34F"/>
<path d="M1153.52 741.251H1166.62V681.172H1153.52V741.251Z" fill="#35488B"/>
<path d="M1081.65 741.251H1094.76V668.208H1081.65V741.251Z" fill="#F1A34F"/>
<path d="M1068.12 741.251H1081.65V663.728H1068.12V741.251Z" fill="#A53D38"/>
<path d="M1140.42 741.251H1153.52V672.935H1140.42V741.251Z" fill="#A53D38"/>
<path d="M1107.9 737.138L1120.37 741.251L1140.39 677.252C1140.57 676.672 1140.25 676.054 1139.67 675.861L1129.32 672.45C1128.73 672.252 1128.09 672.579 1127.91 673.173L1107.9 737.138Z" fill="#F1A34F"/>
<path d="M1180.79 681.415H1191.75V678.385H1180.79V681.415Z" fill="#F1A34F"/>
<path d="M1180.79 683.721H1191.75V682.444H1180.79V683.721Z" fill="#F1A34F"/>
<path d="M1141.49 736.667H1152.45V733.638H1141.49V736.667Z" fill="#F1A34F"/>
<path d="M1141.49 738.969H1152.45V737.697H1141.49V738.969Z" fill="#F1A34F"/>
<path d="M1096.49 714.739H1105.94V675.841H1096.49V714.739Z" fill="#F1A34F"/>
<path d="M1069.84 669.48H1080.44V668.208H1069.84V669.48Z" fill="#F1A34F"/>
<path d="M1069.84 671.846H1080.44V670.574H1069.84V671.846Z" fill="#F1A34F"/>
<path d="M1069.84 674.207H1080.44V672.935H1069.84V674.207Z" fill="#F1A34F"/>
<path d="M1154.32 697.651H1165.82V685.474H1154.32V697.651Z" fill="white"/>
<path d="M1154.32 700.581H1165.82V698.948H1154.32V700.581Z" fill="white"/>
<path d="M1167.92 739.543H1178.55V733.638H1167.92V739.543Z" fill="#A53D38"/>
<path d="M1126.16 680.85L1136.91 684.241L1137.59 682.073L1126.84 678.682L1126.16 680.85Z" fill="#A53D38"/>
<path d="M1082.5 677.568H1094.04V675.841H1082.5V677.568Z" fill="#A53D38"/>
<path d="M1082.43 675.207H1093.97V673.48H1082.43V675.207Z" fill="#A53D38"/>
<path d="M1088.27 688.701C1091.45 688.701 1094.04 686.117 1094.04 682.929V678.207H1082.5V682.929C1082.5 686.117 1085.08 688.701 1088.27 688.701Z" fill="#A53D38"/>
<path d="M1230.92 858.885H1198.28V413.818H1230.92V858.885Z" fill="#466AA5"/>
<path d="M1195.77 530.492H1050.69V518.359H1195.77V530.492Z" fill="#699FF0"/>
<path d="M1195.77 641.938H1050.69V629.493H1195.77V641.938Z" fill="#699FF0"/>
<path d="M1195.77 753.389H1050.69V741.103H1195.77V753.389Z" fill="#699FF0"/>
<path d="M1026.96 851.93H805.206V379.034H1026.96V851.93ZM799.275 373.337V858.142H1032.89V373.337H799.275Z" fill="#699FF0"/>
<path d="M1068.48 858.316H1032.89V373.336H1068.48V858.316Z" fill="#466AA5"/>
<path d="M1030.15 500.568H802.013V487.332H1030.15V500.568Z" fill="#699FF0"/>
<path d="M1030.15 622.098H802.013V608.866H1030.15V622.098Z" fill="#699FF0"/>
<path d="M1030.15 743.627H802.013V730.396H1030.15V743.627Z" fill="#699FF0"/>
<path d="M1068.48 413.818V419.041H1192.84V852.702H1068.48V858.529H1198.28V413.818H1068.48Z" fill="#699FF0"/>
<path d="M527.13 763.898C527.135 765.695 528.016 766.927 529.521 767.759C529.526 767.764 529.536 767.769 529.546 767.769C532.327 769.298 537.213 769.452 542.525 769.219C543.208 769.194 543.817 769.175 544.366 769.175C544.51 769.175 544.653 769.175 544.792 769.18C544.901 769.18 545.015 769.185 545.118 769.185C550.38 769.313 549.821 770.887 559.82 771.744C571.21 772.719 575.408 769.229 576.081 767.64C576.646 766.294 571.755 764.769 566.295 763.022C566.033 762.938 565.765 762.853 565.498 762.769C564.77 762.537 564.038 762.294 563.315 762.061C556.811 759.898 550.405 757.334 548.811 750.75C547.113 743.766 552.207 724.282 552.207 724.282L534.154 722.332C534.154 722.332 532.412 742.702 531.278 749.053C530.664 752.438 529.13 755.131 528.229 758.037C528.164 758.24 528.105 758.443 528.051 758.646C527.59 760.349 527.125 762.096 527.13 763.898Z" fill="#E49963"/>
<path d="M527.13 763.898C527.135 765.695 528.016 766.927 529.521 767.759C529.526 767.764 529.536 767.769 529.546 767.769C532.511 769.135 537.312 769.338 542.52 769.189C543.198 769.17 543.812 769.165 544.366 769.175C544.51 769.175 544.653 769.175 544.792 769.18C544.901 769.18 545.015 769.185 545.118 769.185C550.38 769.313 549.821 770.887 559.82 771.744C571.21 772.719 575.408 769.229 576.081 767.64C576.646 766.294 571.755 764.769 566.295 763.022C564.76 763.616 557.459 766.15 548.816 764.512C541.213 763.081 533.664 759.299 528.229 758.037C528.164 758.24 528.105 758.443 528.051 758.646C527.59 760.349 527.125 762.096 527.13 763.898Z" fill="#C65447"/>
<path d="M644.284 740.85C645.288 745.865 652.436 745.028 660.421 743.078C668.405 741.127 666.509 743.444 677.875 742.187C689.235 740.929 692.68 736.692 693.027 735.004C693.339 733.504 687.72 732.975 681.696 732.282C680.939 732.198 680.182 732.103 679.419 732.009C672.618 731.153 667.638 726.767 661.46 723.164C655.609 719.748 646.877 705.843 646.877 705.843L631.295 707.076C631.295 707.076 639.472 719.496 642.635 724.901C644.496 728.074 644.397 732.277 644.165 735.519C644.046 737.281 643.932 739.083 644.284 740.85Z" fill="#E49963"/>
<path d="M660.421 743.078C668.405 741.127 666.509 743.444 677.875 742.187C689.235 740.929 692.68 736.692 693.027 735.004C693.339 733.504 687.72 732.975 681.696 732.282L681.642 732.396C681.642 732.396 674.826 737.227 665.366 737.455C657.659 737.643 649.491 735.435 644.165 735.519C644.046 737.281 643.932 739.083 644.284 740.85C645.288 745.865 652.436 745.028 660.421 743.078Z" fill="#C65447"/>
<path d="M609.603 511.934C609.603 511.934 613.321 502.836 617.405 502.464C621.488 502.093 634.487 500.054 635.413 501.91C636.344 503.766 635.413 510.449 632.631 512.864C629.844 515.275 612.578 519.176 612.578 519.176L609.603 511.934Z" fill="#FFB27D"/>
<path d="M584.556 641.19L550.965 731.589C550.965 731.589 545.807 732.089 540.857 730.663C536.307 729.351 531.09 725.906 531.09 725.906C531.09 725.906 539.421 639.106 554.697 621.053C569.973 603 584.556 641.19 584.556 641.19Z" fill="#365DA4"/>
<path d="M451.701 604.619C451.701 604.619 548.217 571.988 569.745 578.928C591.268 585.873 655.901 714.461 655.901 714.461C655.901 714.461 654.441 716.402 650.461 717.897C646.758 719.283 637.794 719.194 637.794 719.194C637.794 719.194 579.462 669.198 572.522 654.615C565.577 640.037 562.8 626.147 555.855 627.538C548.91 628.924 466.279 661.56 447.533 642.116C428.787 622.677 433.687 597.412 433.687 597.412L451.701 604.619Z" fill="#466AA5"/>
<path d="M510.681 452.795C512.22 449.612 513.948 443.959 514.789 433.886C514.661 434.886 512.923 447.593 508.037 454.785C487.965 467.967 449.488 511.968 450.25 520.309C450.25 520.309 436.697 497.326 436.464 497.187C436.464 497.187 411.466 465.398 441.093 447.187C456.151 437.935 456.076 426.055 455.448 415.739C454.814 405.418 459.556 361.006 489.717 372.629C489.717 372.629 494.558 370.475 496.727 370.797C496.727 370.797 494.954 371.139 494.058 372.069C497.553 371.861 502.553 372.119 506.726 374.49C517.784 380.776 527.679 437.153 510.681 452.795Z" fill="#35488B"/>
<path d="M506.849 455.444C506.948 455.488 497.157 460.572 489.791 458.557C482.861 456.671 478.337 447.687 478.431 447.667C481.366 447.083 482.213 443.048 482.149 425.723L483.475 425.986L505.78 430.401C505.78 430.401 505.27 437.42 505.256 444.034C505.241 449.583 505.577 454.85 506.849 455.444Z" fill="#FFB27D"/>
<path d="M505.78 430.401C505.78 430.401 505.27 437.42 505.256 444.034C492.776 443.682 486.178 432.297 483.475 425.986L505.78 430.401Z" fill="#E8945B"/>
<path d="M481.173 423.56C481.173 423.56 474.629 413.224 473.06 404.388C471.941 398.077 475.154 374.693 498.652 378.064C498.652 378.064 505.478 378.732 511.894 383.068C516.997 386.514 524.358 393.954 516.126 414.358L513.987 421.253L481.173 423.56Z" fill="#35488B"/>
<path d="M509.948 436.663C509.948 436.663 480.416 437.148 480.396 418.758C480.376 400.364 476.55 388.038 495.405 386.949C514.255 385.86 517.928 392.875 519.428 399.013C520.927 405.151 517.626 436.064 509.948 436.663Z" fill="#FFB27D"/>
<path d="M482.064 390.375C482.064 390.375 502.231 376.589 508.612 386.123C510.547 384.464 513.992 383.261 518.551 388.786C525.392 397.082 519.304 411.749 519.304 411.749C516.492 412.081 515.829 402.438 514.359 397.75C513.25 394.221 509.542 390.612 507.79 389.053C505.211 394.859 498.127 408.759 488.361 411.269C475.951 414.462 470.57 411.135 470.57 411.135C470.57 411.135 480.089 403.577 482.064 390.375Z" fill="#35488B"/>
<path d="M441.093 534.882C438.182 522.671 448.092 498.975 458.433 479.352C467.818 461.572 477.555 447.147 478.431 447.667C503.181 462.354 505.414 450.142 505.414 450.142C505.414 450.142 527.897 453.127 534.263 464.086C543.069 479.239 552.652 524.71 562.077 524.037C566.399 523.725 609.915 507.37 609.915 507.37C609.915 507.37 617.167 514.161 615.776 522.497C615.776 522.497 594.293 536.882 576.121 546.065C566.513 550.921 557.825 554.316 553.742 553.356C545.465 551.406 532.535 532.219 525.551 520.923C525.531 520.893 525.516 520.874 525.501 520.844C516.586 571.32 528.709 582.814 522.571 588.135C516.091 593.754 506.835 585.462 486.465 594.288C473.105 600.085 454.562 608.465 442.083 609.921C435.534 610.688 430.653 609.549 429.059 605.129C424.431 592.284 446.651 558.168 441.093 534.882Z" fill="#699DEE"/>
<path d="M503.379 425.515C503.379 425.515 503.934 427.852 509.745 427.49C509.745 427.49 514.626 427.188 514.477 424.619C514.477 424.619 509.745 422.793 503.379 425.515Z" fill="white"/>
<path d="M429.059 605.129C430.653 609.549 435.534 610.688 442.083 609.921C450.72 606.159 488.039 591.699 487.618 581.903C487 567.399 480.446 566.939 485.074 549.035C488.792 534.66 463.521 505.108 458.022 499.296C447.681 518.918 438.182 522.671 441.093 534.882C446.651 558.168 424.431 592.284 429.059 605.129Z" fill="#3B76CA"/>
<path d="M525.551 520.923C532.535 532.219 545.465 551.406 553.742 553.356C557.825 554.316 566.513 550.921 576.121 546.065C569.107 547.876 562.295 547.822 555.672 547.183C548.499 546.49 546.415 537.694 535.07 524.502C527.714 515.943 525.912 518.097 525.551 520.923Z" fill="#3B76CA"/>
<path d="M490.975 548.688C490.975 548.688 497.226 543.827 503.127 544.985C509.032 546.144 511.923 550.193 511.696 552.044C511.463 553.896 508.339 559.103 503.825 559.568C499.31 560.029 486.465 556.791 486.465 556.791L490.975 548.688Z" fill="#FFB27D"/>
<path d="M478.431 447.667C478.431 447.667 454.364 449.147 446.033 460.77C434.306 477.125 413.936 543.906 419.49 559.182L492.712 558.875C492.712 558.875 494.489 550.579 492.019 546.565C489.549 542.555 449.428 536.075 447.577 534.224C445.726 532.373 470.724 498.113 470.724 492.559C470.724 487 478.431 447.667 478.431 447.667Z" fill="#699DEE"/>
<path d="M278.95 859.667H736.89V709.274L278.95 707.774V859.667Z" fill="#A53D38"/>
<path d="M278.95 587.497V626.825H736.89V587.497H278.95Z" fill="#B64C41"/>
<path d="M747.374 587.497H269.339C262.346 587.497 256.677 581.829 256.677 574.834V571.81C256.677 564.816 262.346 559.148 269.339 559.148H747.374C754.363 559.148 760.031 564.816 760.031 571.81V574.834C760.031 581.829 754.363 587.497 747.374 587.497Z" fill="#A53D38"/>
<path d="M285.03 707.774L730.811 709.274V626.825H285.03V707.774Z" fill="#F1A34F"/>
<path d="M356.654 490.96L371.331 559.148H314.131L301.57 492.203L302.954 490.96H356.654Z" fill="#35488B"/>
<path d="M358.278 490.96L372.955 559.148H315.756L302.961 490.96H358.278Z" fill="#82B378"/>
<path d="M356.313 493.128L369.569 554.722H317.904L306.347 493.128H356.313Z" fill="white"/>
<path d="M313.121 498.074H352.447C353.169 498.074 353.763 498.668 353.763 499.395C353.763 500.118 353.169 500.712 352.447 500.712H313.121C312.397 500.712 311.804 500.118 311.804 499.395C311.804 498.668 312.397 498.074 313.121 498.074Z" fill="#82B378"/>
<path d="M315.128 504.286H354.451C355.179 504.286 355.768 504.88 355.768 505.603C355.768 506.325 355.179 506.919 354.451 506.919H315.128C314.404 506.919 313.811 506.325 313.811 505.603C313.811 504.88 314.404 504.286 315.128 504.286Z" fill="#82B378"/>
<path d="M316.383 510.241H355.709C356.431 510.241 357.025 510.835 357.025 511.563C357.025 512.285 356.431 512.879 355.709 512.879H316.383C315.658 512.879 315.065 512.285 315.065 511.563C315.065 510.835 315.658 510.241 316.383 510.241Z" fill="#82B378"/>
<path d="M318.202 522.527H357.525C358.253 522.527 358.842 523.121 358.842 523.844C358.842 524.571 358.253 525.165 357.525 525.165H318.202C317.477 525.165 316.884 524.571 316.884 523.844C316.884 523.121 317.477 522.527 318.202 522.527Z" fill="#82B378"/>
<path d="M320.209 528.739H359.535C360.258 528.739 360.852 529.328 360.852 530.056C360.852 530.779 360.258 531.373 359.535 531.373H320.209C319.484 531.373 318.891 530.779 318.891 530.056C318.891 529.328 319.484 528.739 320.209 528.739Z" fill="#82B378"/>
<path d="M321.462 534.694H360.787C361.51 534.694 362.104 535.288 362.104 536.016C362.104 536.739 361.51 537.333 360.787 537.333H321.462C320.738 537.333 320.146 536.739 320.146 536.016C320.146 535.288 320.738 534.694 321.462 534.694Z" fill="#82B378"/>
<path d="M382.622 528.957L391.136 557.178L389.577 557.648L381.058 529.427L382.622 528.957Z" fill="#35488B"/>
<path d="M390.047 554.46C392.968 554.46 395.379 556.504 395.75 559.148H384.345C384.716 556.504 387.122 554.46 390.047 554.46Z" fill="#699FF0"/>
<path d="M382.573 558.395C384.756 558.395 386.924 558.029 387.097 557.999L387.033 557.633C384.855 558.004 379.048 558.569 378.4 556.742C378.113 555.93 378.38 554.569 378.756 552.678C379.434 549.243 380.464 544.05 379.256 536.803C378.311 531.135 379.014 529.418 379.771 528.977C380.558 528.512 381.622 529.358 381.632 529.368L381.87 529.071C381.82 529.031 380.588 528.056 379.578 528.65C378.33 529.378 378.098 532.145 378.885 536.867C380.083 544.045 379.063 549.198 378.385 552.604C378.004 554.554 377.722 555.96 378.048 556.871C378.474 558.074 380.528 558.395 382.573 558.395Z" fill="#699FF0"/>
<path d="M349.872 673.099L357.337 675.465C356.194 679.628 354.288 682.721 351.625 684.741C348.967 686.766 345.586 687.776 341.492 687.776C336.427 687.776 332.264 686.043 329.002 682.583C325.741 679.123 324.11 674.391 324.11 668.391C324.11 662.04 325.75 657.11 329.028 653.595C332.307 650.086 336.618 648.328 341.961 648.328C346.627 648.328 350.417 649.704 353.333 652.467C355.065 654.095 356.367 656.437 357.233 659.491L349.61 661.312C349.16 659.332 348.219 657.773 346.789 656.63C345.357 655.481 343.618 654.912 341.57 654.912C338.743 654.912 336.448 655.927 334.688 657.956C332.927 659.986 332.047 663.273 332.047 667.817C332.047 672.638 332.914 676.074 334.649 678.123C336.383 680.167 338.639 681.192 341.414 681.192C343.461 681.192 345.222 680.539 346.696 679.242C348.17 677.94 349.229 675.89 349.872 673.099Z" fill="#A53D38"/>
<path d="M363.713 687.122V648.977H371.415V687.122H363.713Z" fill="#A53D38"/>
<path d="M387.34 687.122V655.432H376.024V648.977H406.338V655.432H395.042V687.122H387.34Z" fill="#A53D38"/>
<path d="M421.322 687.122V671.069L407.353 648.977H416.382L425.356 664.07L434.152 648.977H443.023L428.999 671.119V687.122H421.322Z" fill="#A53D38"/>
<path d="M460.903 687.122V649.289H468.605V680.697H487.757V687.122H460.903Z" fill="#A53D38"/>
<path d="M493.009 687.122V648.977H500.711V687.122H493.009Z" fill="#A53D38"/>
<path d="M515.779 670.495V680.697H522.907C525.684 680.697 527.447 680.618 528.189 680.464C529.338 680.256 530.268 679.747 530.986 678.94C531.709 678.133 532.07 677.054 532.07 675.702C532.07 674.554 531.793 673.584 531.233 672.787C530.679 671.99 529.877 671.406 528.828 671.044C527.778 670.678 525.501 670.495 521.997 670.495H515.779ZM515.779 655.328V664.149H520.828C523.828 664.149 525.694 664.104 526.422 664.015C527.739 663.862 528.778 663.406 529.531 662.649C530.288 661.897 530.664 660.906 530.664 659.674C530.664 658.491 530.338 657.535 529.689 656.798C529.036 656.06 528.07 655.615 526.783 655.456C526.021 655.367 523.828 655.328 520.205 655.328H515.779ZM508.077 648.977H523.323C526.343 648.977 528.595 649.106 530.075 649.353C531.56 649.605 532.887 650.13 534.06 650.927C535.228 651.729 536.203 652.788 536.986 654.115C537.768 655.442 538.159 656.932 538.159 658.58C538.159 660.367 537.674 662.005 536.713 663.495C535.748 664.99 534.446 666.109 532.798 666.852C535.119 667.53 536.906 668.683 538.159 670.317C539.406 671.945 540.03 673.861 540.03 676.064C540.03 677.801 539.629 679.489 538.822 681.128C538.015 682.766 536.911 684.078 535.515 685.053C534.119 686.033 532.397 686.637 530.352 686.865C529.065 687.003 525.972 687.087 521.061 687.122H508.077V648.977Z" fill="#A53D38"/>
<path d="M554.266 665.109H559.964C563.656 665.109 565.963 664.956 566.884 664.644C567.805 664.332 568.522 663.792 569.042 663.03C569.562 662.268 569.824 661.312 569.824 660.164C569.824 658.882 569.483 657.847 568.795 657.055C568.112 656.268 567.146 655.768 565.894 655.56C565.27 655.476 563.399 655.432 560.276 655.432H554.266V665.109ZM546.564 687.122V648.977H562.77C566.849 648.977 569.809 649.318 571.661 650.006C573.507 650.69 574.987 651.907 576.096 653.66C577.205 655.412 577.759 657.417 577.759 659.674C577.759 662.535 576.918 664.896 575.235 666.762C573.557 668.629 571.037 669.802 567.691 670.287C569.354 671.262 570.73 672.326 571.814 673.49C572.898 674.653 574.359 676.717 576.2 679.682L580.858 687.122H571.646L566.077 678.826C564.102 675.856 562.746 673.99 562.018 673.217C561.29 672.445 560.518 671.915 559.701 671.628C558.885 671.341 557.593 671.198 555.825 671.198H554.266V687.122H546.564Z" fill="#A53D38"/>
<path d="M605.237 672.029L599.985 657.877L594.832 672.029H605.237ZM619.419 687.122H611.044L607.712 678.459H592.461L589.313 687.122H581.145L596 648.977H604.148L619.419 687.122Z" fill="#A53D38"/>
<path d="M631.235 665.109H636.933C640.625 665.109 642.932 664.956 643.853 664.644C644.774 664.332 645.491 663.792 646.011 663.03C646.536 662.268 646.793 661.312 646.793 660.164C646.793 658.882 646.452 657.847 645.769 657.055C645.08 656.268 644.115 655.768 642.863 655.56C642.239 655.476 640.368 655.432 637.245 655.432H631.235V665.109ZM623.533 687.122V648.977H639.744C643.818 648.977 646.783 649.318 648.63 650.006C650.476 650.69 651.956 651.907 653.065 653.66C654.174 655.412 654.728 657.417 654.728 659.674C654.728 662.535 653.887 664.896 652.209 666.762C650.526 668.629 648.006 669.802 644.66 670.287C646.328 671.262 647.699 672.326 648.783 673.49C649.867 674.653 651.332 676.717 653.169 679.682L657.827 687.122H648.615L643.046 678.826C641.071 675.856 639.715 673.99 638.987 673.217C638.259 672.445 637.487 671.915 636.67 671.628C635.858 671.341 634.562 671.198 632.794 671.198H631.235V687.122H623.533Z" fill="#A53D38"/>
<path d="M670.029 687.122V671.069L656.06 648.977H665.089L674.063 664.07L682.859 648.977H691.73L677.706 671.119V687.122H670.029Z" fill="#A53D38"/>
<path d="M821.65 487.332H805.206V401.577H821.65V487.332Z" fill="#A53D38"/>
<path d="M928.304 487.332H911.86V401.577H928.304V487.332Z" fill="#A53D38"/>
<path d="M838.094 487.332H821.65V390.018H838.094V487.332Z" fill="#F1A34F"/>
<path d="M854.538 487.332H838.094V411.917H854.538V487.332Z" fill="#35488B"/>
<path d="M1010.52 487.332H994.076V411.917H1010.52V487.332Z" fill="#A53D38"/>
<path d="M1026.96 487.332H1010.52V401.577H1026.96V487.332Z" fill="#35488B"/>
<path d="M944.748 487.332H928.304V395.646H944.748V487.332Z" fill="#F1A34F"/>
<path d="M994.076 487.332H977.632V395.646H994.076V487.332Z" fill="#F1A34F"/>
<path d="M961.193 487.332H944.748V390.018H961.193V487.332Z" fill="#A53D38"/>
<path d="M977.637 487.332H961.193V411.917H977.637V487.332Z" fill="#35488B"/>
<path d="M870.982 487.332H854.538V401.577H870.982V487.332Z" fill="#A53D38"/>
<path d="M912.172 482.174L896.515 487.332L870.982 405.685L886.634 400.522L912.172 482.174Z" fill="#F1A34F"/>
<path d="M820.308 412.224H806.547V408.423H820.308V412.224Z" fill="#F1A34F"/>
<path d="M820.308 415.115H806.547V413.516H820.308V415.115Z" fill="#F1A34F"/>
<path d="M869.641 481.58H855.875V477.778H869.641V481.58Z" fill="#F1A34F"/>
<path d="M869.641 484.471H855.875V482.872H869.641V484.471Z" fill="#F1A34F"/>
<path d="M655.758 559.148V542.704H741.513V559.148H655.758Z" fill="#F1A34F"/>
<path d="M661.51 557.811V544.045H665.316V557.811H661.51Z" fill="#35488B"/>
<path d="M658.624 557.811V544.045H660.218V557.811H658.624Z" fill="#35488B"/>
<path d="M664.425 542.703V526.264H750.186V542.703H664.425Z" fill="#A53D38"/>
<path d="M739.592 539.466V529.502C739.592 528.452 740.444 527.601 741.493 527.601C742.548 527.601 743.394 528.452 743.394 529.502V539.466C743.394 540.516 742.548 541.367 741.493 541.367C740.444 541.367 739.592 540.516 739.592 539.466Z" fill="#F1A34F"/>
<path d="M736.706 541.367V527.601H738.3V541.367H736.706Z" fill="#F1A34F"/>
<path d="M744.726 541.367V527.601H746.324V541.367H744.726Z" fill="#F1A34F"/>
<path d="M648.456 526.264V509.82H734.212V526.264H648.456Z" fill="#35488B"/>
<path d="M651.322 524.923V511.157H677.79C681.592 511.157 684.671 514.241 684.671 518.042C684.671 521.844 681.592 524.923 677.79 524.923H651.322Z" fill="#F1A34F"/>
<path d="M926.121 454.052H914.256V405.225H926.121V454.052Z" fill="#F1A34F"/>
<path d="M1003.31 425H1001.63C999.665 425 998.061 423.402 998.061 421.426C998.061 419.451 999.665 417.853 1001.63 417.853H1003.31C1005.28 417.853 1006.88 419.451 1006.88 421.426C1006.88 423.402 1005.28 425 1003.31 425Z" fill="#F1A34F"/>
<path d="M959.584 397.24H946.273V395.647H959.584V397.24Z" fill="#F1A34F"/>
<path d="M959.584 400.211H946.273V398.612H959.584V400.211Z" fill="#F1A34F"/>
<path d="M959.584 403.176H946.273V401.577H959.584V403.176Z" fill="#F1A34F"/>
<path d="M853.528 432.604H839.099V417.318H853.528V432.604Z" fill="white"/>
<path d="M853.528 436.282H839.099V434.227H853.528V436.282Z" fill="white"/>
<path d="M1025.37 485.189H1011.79V482.798H1025.37V485.189Z" fill="white"/>
<path d="M1025.37 481.199H1011.79V478.803H1025.37V481.199Z" fill="white"/>
<path d="M1025.37 476.863H1011.79V463.859H1025.37V476.863Z" fill="white"/>
<path d="M969.697 456.933H969.127C965.534 456.933 962.623 454.023 962.623 450.429C962.623 446.84 965.534 443.93 969.127 443.93H969.697C973.286 443.93 976.196 446.84 976.196 450.429C976.196 454.023 973.286 456.933 969.697 456.933Z" fill="#A53D38"/>
<path d="M836.46 485.189H823.115V477.778H836.46V485.189Z" fill="#A53D38"/>
<path d="M888.882 411.512L875.398 415.769L874.537 413.051L888.026 408.789L888.882 411.512Z" fill="#A53D38"/>
<path d="M943.689 407.393H929.2V405.225H943.689V407.393Z" fill="#A53D38"/>
<path d="M943.768 404.428H929.284V402.26H943.768V404.428Z" fill="#A53D38"/>
<path d="M936.447 421.367C932.443 421.367 929.2 418.125 929.2 414.125V408.195H943.689V414.125C943.689 418.125 940.447 421.367 936.447 421.367Z" fill="#A53D38"/>
<path d="M887.263 608.846H870.819V533.432H887.263V608.846Z" fill="#35488B"/>
<path d="M969.375 608.846H952.931V533.432H969.375V608.846Z" fill="#35488B"/>
<path d="M903.707 608.846H887.263V533.432H903.707V608.846Z" fill="#A53D38"/>
<path d="M952.931 608.846H936.487V523.091H952.931V608.846Z" fill="#35488B"/>
<path d="M837.98 608.886H821.536V517.196H837.98V608.886Z" fill="#F1A34F"/>
<path d="M870.858 608.886H854.414V517.196H870.858V608.886Z" fill="#F1A34F"/>
<path d="M854.414 608.866H837.97V511.548H854.414V608.866Z" fill="#A53D38"/>
<path d="M821.536 608.846H805.092V523.091H821.536V608.846Z" fill="#A53D38"/>
<path d="M985.819 608.846H969.375V533.432H985.819V608.846Z" fill="#A53D38"/>
<path d="M920.047 608.846H903.603V517.156H920.047V608.846Z" fill="#F1A34F"/>
<path d="M936.492 608.846H920.047V511.533H936.492V608.846Z" fill="#A53D38"/>
<path d="M1025.27 603.684L1009.61 608.846L984.072 527.195L999.729 522.037L1025.27 603.684Z" fill="#F1A34F"/>
<path d="M967.444 552.188H955.01V537.818H967.444V552.188Z" fill="#F1A34F"/>
<path d="M934.195 520.191H921.646V516.77H934.195V520.191Z" fill="#F1A34F"/>
<path d="M934.195 525.952H921.646V522.532H934.195V525.952Z" fill="#F1A34F"/>
<path d="M951.53 533.081H937.784V531.373H951.53V533.081Z" fill="white"/>
<path d="M813.279 542.114C809.923 542.114 807.205 539.392 807.205 536.041V526.715H819.353V536.041C819.353 539.392 816.63 542.114 813.279 542.114Z" fill="#35488B"/>
<path d="M869.314 521.75H855.399V519.869H869.314V521.75Z" fill="#35488B"/>
<path d="M853.038 607.287H839.198V604.317H853.038V607.287Z" fill="#35488B"/>
<path d="M853.038 603.332H839.198V600.367H853.038V603.332Z" fill="#35488B"/>
<path d="M846.118 597.704C842.811 597.704 840.134 595.021 840.134 591.714C840.134 588.408 842.811 585.725 846.118 585.725C849.43 585.725 852.108 588.408 852.108 591.714C852.108 595.021 849.43 597.704 846.118 597.704Z" fill="#35488B"/>
<path d="M835.802 574.636H823.714V545.778H835.802V574.636Z" fill="#A53D38"/>
<path d="M885.362 542.57H872.433V539.605H885.362V542.57Z" fill="white"/>
<path d="M885.506 557.549H872.576V554.584H885.506V557.549Z" fill="white"/>
<path d="M981.829 545.837H972.776C971.538 545.837 970.533 544.832 970.533 543.595C970.533 542.357 971.538 541.352 972.776 541.352H981.829C983.067 541.352 984.072 542.357 984.072 543.595C984.072 544.832 983.067 545.837 981.829 545.837Z" fill="white"/>
<path d="M1090.88 629.775H1078.73V574.038H1090.88V629.775Z" fill="#A53D38"/>
<path d="M1151.57 629.775H1139.42V557.009H1151.57V629.775Z" fill="#35488B"/>
<path d="M1103.04 629.775H1090.88V574.038H1103.04V629.775Z" fill="#35488B"/>
<path d="M1139.42 629.775H1127.27V566.395H1139.42V629.775Z" fill="#F1A34F"/>
<path d="M1078.76 629.805H1068.48V562.039H1078.76V629.805Z" fill="#F1A34F"/>
<path d="M1163.73 629.775H1151.57V574.038H1163.73V629.775Z" fill="#A53D38"/>
<path d="M1115.12 629.775H1102.96V586.764H1115.12V629.775Z" fill="#F1A34F"/>
<path d="M1127.27 629.775H1115.12V557.851H1127.27V629.775Z" fill="#A53D38"/>
<path d="M1192.88 625.959L1181.31 629.775L1162.43 569.429L1174.01 565.617L1192.88 625.959Z" fill="#F1A34F"/>
<path d="M1150.14 628.082H1140.95V617.46H1150.14V628.082Z" fill="#A53D38"/>
<path d="M1125.57 564.251H1116.29V561.722H1125.57V564.251Z" fill="#F1A34F"/>
<path d="M1125.57 568.508H1116.29V565.984H1125.57V568.508Z" fill="#F1A34F"/>
<path d="M1138.38 573.78H1128.22V572.513H1138.38V573.78Z" fill="white"/>
<path d="M1077.62 565.405H1068.46V564.014H1077.62V565.405Z" fill="#35488B"/>
<path d="M1089.48 580.789H1079.92V578.602H1089.48V580.789Z" fill="white"/>
<path d="M1089.59 591.863H1080.03V589.67H1089.59V591.863Z" fill="white"/>
<path d="M1160.77 583.21H1154.09C1153.17 583.21 1152.43 582.467 1152.43 581.552C1152.43 580.636 1153.17 579.893 1154.09 579.893H1160.77C1161.69 579.893 1162.43 580.636 1162.43 581.552C1162.43 582.467 1161.69 583.21 1160.77 583.21Z" fill="white"/>
<path d="M1129.33 852.98H1142.18V794.034H1129.33V852.98Z" fill="#35488B"/>
<path d="M1068.48 852.98H1078V794.034H1068.48V852.98Z" fill="#A53D38"/>
<path d="M1116.47 852.98H1129.33V794.034H1116.47V852.98Z" fill="#A53D38"/>
<path d="M1078 852.98H1090.85V785.951H1078V852.98Z" fill="#35488B"/>
<path d="M1167.84 853.009H1180.7V781.342H1167.84V853.009Z" fill="#F1A34F"/>
<path d="M1142.15 853.009H1155V781.342H1142.15V853.009Z" fill="#F1A34F"/>
<path d="M1155 852.994H1167.85V776.927H1155V852.994Z" fill="#A53D38"/>
<path d="M1180.7 852.98H1193.55V785.951H1180.7V852.98Z" fill="#A53D38"/>
<path d="M1103.7 852.98H1116.56V781.312H1103.7V852.98Z" fill="#F1A34F"/>
<path d="M1090.85 852.98H1103.7V776.912H1090.85V852.98Z" fill="#A53D38"/>
<path d="M1068.48 808.691H1076.37V797.459H1068.48V808.691Z" fill="#F1A34F"/>
<path d="M1092.65 783.683H1102.45V781.01H1092.65V783.683Z" fill="#F1A34F"/>
<path d="M1092.65 788.188H1102.45V785.51H1092.65V788.188Z" fill="#F1A34F"/>
<path d="M1079.09 793.757H1089.84V792.42H1079.09V793.757Z" fill="white"/>
<path d="M1187.15 800.816C1189.78 800.816 1191.9 798.692 1191.9 796.068V788.782H1182.41V796.068C1182.41 798.692 1184.53 800.816 1187.15 800.816Z" fill="#35488B"/>
<path d="M1143.36 784.901H1154.23V783.431H1143.36V784.901Z" fill="#35488B"/>
<path d="M1156.07 851.757H1166.89V849.44H1156.07V851.757Z" fill="#35488B"/>
<path d="M1156.07 848.668H1166.89V846.346H1156.07V848.668Z" fill="#35488B"/>
<path d="M1161.48 844.267C1164.07 844.267 1166.17 842.174 1166.17 839.585C1166.17 837.001 1164.07 834.907 1161.48 834.907C1158.9 834.907 1156.8 837.001 1156.8 839.585C1156.8 842.174 1158.9 844.267 1161.48 844.267Z" fill="#35488B"/>
<path d="M1169.55 826.239H1179V803.682H1169.55V826.239Z" fill="#A53D38"/>
<path d="M1130.81 801.172H1140.92V798.855H1130.81V801.172Z" fill="white"/>
<path d="M1130.7 812.884H1140.8V810.567H1130.7V812.884Z" fill="white"/>
<path d="M884.437 851.891H868.581V781.679H884.437V851.891Z" fill="#A53D38"/>
<path d="M1011.18 851.891H995.323V781.679H1011.18V851.891Z" fill="#35488B"/>
<path d="M963.613 851.891H947.758V779.174H963.613V851.891Z" fill="#35488B"/>
<path d="M900.297 851.891H884.437V779.174H900.297V851.891Z" fill="#F1A34F"/>
<path d="M947.758 851.891H931.903V788.975H947.758V851.891Z" fill="#A53D38"/>
<path d="M836.916 851.93H821.061V756.908H836.916V851.93Z" fill="#35488B"/>
<path d="M995.323 851.93H979.468V756.908H995.323V851.93Z" fill="#A53D38"/>
<path d="M868.621 851.93H852.766V763.517H868.621V851.93Z" fill="#35488B"/>
<path d="M852.766 851.91H836.911V786.812H852.766V851.91Z" fill="#A53D38"/>
<path d="M821.061 851.891H805.206V769.199H821.061V851.891Z" fill="#F1A34F"/>
<path d="M1026.96 851.891H1011.1V769.199H1026.96V851.891Z" fill="#F1A34F"/>
<path d="M979.468 851.891H963.613V766.408H979.468V851.891Z" fill="#F1A34F"/>
<path d="M916.048 851.891H900.193V763.482H916.048V851.891Z" fill="#35488B"/>
<path d="M931.903 851.891H916.048V758.057H931.903V851.891Z" fill="#F1A34F"/>
<path d="M961.752 797.261H949.763V783.401H961.752V797.261Z" fill="#F1A34F"/>
<path d="M929.69 766.408H917.592V763.106H929.69V766.408Z" fill="#F1A34F"/>
<path d="M929.69 771.962H917.592V768.66H929.69V771.962Z" fill="#F1A34F"/>
<path d="M813.096 787.544C809.864 787.544 807.24 784.921 807.24 781.688V772.694H818.952V781.688C818.952 784.921 816.333 787.544 813.096 787.544Z" fill="#35488B"/>
<path d="M867.131 767.912H853.712V766.096H867.131V767.912Z" fill="#35488B"/>
<path d="M851.439 850.386H838.094V847.525H851.439V850.386Z" fill="#35488B"/>
<path d="M851.439 846.574H838.094V843.713H851.439V846.574Z" fill="#35488B"/>
<path d="M844.767 841.149C841.579 841.149 838.99 838.56 838.99 835.372C838.99 832.184 841.579 829.6 844.767 829.6C847.955 829.6 850.538 832.184 850.538 835.372C850.538 838.56 847.955 841.149 844.767 841.149Z" fill="#35488B"/>
<path d="M834.817 818.908H823.16V791.079H834.817V818.908Z" fill="#A53D38"/>
<path d="M882.605 787.985H870.136V785.124H882.605V787.985Z" fill="white"/>
<path d="M882.744 802.429H870.279V799.568H882.744V802.429Z" fill="white"/>
<path d="M975.622 774.417H966.895C965.697 774.417 964.732 773.452 964.732 772.254C964.732 771.061 965.697 770.09 966.895 770.09H975.622C976.82 770.09 977.785 771.061 977.785 772.254C977.785 773.452 976.82 774.417 975.622 774.417Z" fill="white"/>
<path d="M914.226 839.609H902.019V850.386H914.226V839.609Z" fill="white"/>
<path d="M946.199 848.955H933.269V846.574H946.199V848.955Z" fill="#A53D38"/>
<path d="M1024.83 808.691H1013.43V804.974H1024.83V808.691Z" fill="#A53D38"/>
<path d="M1024.83 814.745H1013.43V811.023H1024.83V814.745Z" fill="#A53D38"/>
<path d="M1113.61 518.319H1129.47V448.107H1113.61V518.319Z" fill="#A53D38"/>
<path d="M1097.76 518.319H1113.61V445.603H1097.76V518.319Z" fill="#F1A34F"/>
<path d="M1161.14 518.359H1176.99V423.337H1161.14V518.359Z" fill="#35488B"/>
<path d="M1129.43 518.359H1145.29V429.946H1129.43V518.359Z" fill="#35488B"/>
<path d="M1145.29 518.339H1161.14V453.236H1145.29V518.339Z" fill="#A53D38"/>
<path d="M1176.99 518.319H1192.85V435.628H1176.99V518.319Z" fill="#F1A34F"/>
<path d="M1082 518.319H1097.86V429.911H1082V518.319Z" fill="#35488B"/>
<path d="M1068.48 518.319H1082V424.481H1068.48V518.319Z" fill="#F1A34F"/>
<path d="M1068.48 432.836H1080.46V429.535H1068.48V432.836Z" fill="#A53D38"/>
<path d="M1068.48 438.39H1080.46V435.089H1068.48V438.39Z" fill="#A53D38"/>
<path d="M1184.96 453.973C1188.19 453.973 1190.81 451.35 1190.81 448.112V439.123H1179.1V448.112C1179.1 451.35 1181.72 453.973 1184.96 453.973Z" fill="#35488B"/>
<path d="M1130.92 434.336H1144.34V432.525H1130.92V434.336Z" fill="#35488B"/>
<path d="M1146.61 516.815H1159.96V513.953H1146.61V516.815Z" fill="#35488B"/>
<path d="M1146.61 513.003H1159.96V510.142H1146.61V513.003Z" fill="#35488B"/>
<path d="M1153.29 507.573C1156.47 507.573 1159.06 504.989 1159.06 501.801C1159.06 498.613 1156.47 496.024 1153.29 496.024C1150.1 496.024 1147.51 498.613 1147.51 501.801C1147.51 504.989 1150.1 507.573 1153.29 507.573Z" fill="#35488B"/>
<path d="M1163.23 485.332H1174.89V457.508H1163.23V485.332Z" fill="#A53D38"/>
<path d="M1115.45 454.409H1127.91V451.553H1115.45V454.409Z" fill="white"/>
<path d="M1115.31 468.858H1127.77V465.997H1115.31V468.858Z" fill="white"/>
<path d="M1083.83 506.038H1096.03V516.815H1083.83V506.038Z" fill="white"/>
<path d="M1265.26 861.187H-1.27838C-2.11593 861.187 -2.80103 860.504 -2.80103 859.667C-2.80103 858.831 -2.11593 858.142 -1.27838 858.142H1265.26C1266.1 858.142 1266.78 858.831 1266.78 859.667C1266.78 860.504 1266.1 861.187 1265.26 861.187Z" fill="#283250"/>
<path d="M832.728 307.931C832.728 307.931 843.588 295.259 833.396 287.215C833.396 287.215 825.956 282.71 819.888 283.077C819.888 283.077 828.486 297.496 825.704 298.927C822.922 300.362 817.279 282.171 817.279 282.171C817.279 282.171 800.345 280.527 794.895 283.146C794.895 283.146 809.374 294.996 806.324 295.699C803.275 296.407 787.638 284.78 787.638 284.78C787.638 284.78 771.877 287.458 772.713 297.076C773.555 306.694 778.985 309.659 781.376 309.406C783.762 309.149 797.726 303.817 798.028 305.773C798.335 307.728 789.93 314.124 784.044 314.421C784.044 314.421 795.157 326.677 802.542 323.143C809.928 319.603 810.557 313.995 815.16 311.896C819.764 309.792 823.694 309.797 821.793 311.941C819.892 314.084 811.561 316.168 808.928 320.826C806.295 325.484 803.933 328.627 811.576 327.479C819.214 326.326 831.639 320.737 832.183 314.331C832.728 307.931 832.728 307.931 832.728 307.931Z" fill="#82B378"/>
<path d="M780.46 297.333C780.46 297.333 823.273 295.685 832.728 307.931C832.728 307.931 834.817 314.193 841.252 319.895L842.257 322.628C842.257 322.628 834.837 314.807 832.184 314.331C832.184 314.331 836.332 299.164 780.46 297.333Z" fill="#82B378"/>
<path d="M841.252 319.895C841.252 319.895 850.444 326.692 851.083 338.834L849.415 338.983C849.415 338.983 846.479 326.425 841.173 321.519C835.866 316.609 841.252 319.895 841.252 319.895Z" fill="#82B378"/>
<path d="M870.695 291.997C870.695 291.997 853.419 282.324 861.483 269.197C861.483 269.197 867.928 261.138 874.839 259.064C874.839 259.064 871.156 278.641 874.839 279.102C878.521 279.562 877.373 256.99 877.373 256.99C877.373 256.99 895.565 248.238 902.707 248.931C902.707 248.931 891.421 268.048 895.104 267.583C898.792 267.123 911.459 247.778 911.459 247.778C911.459 247.778 930.111 244.323 933.106 255.381C936.101 266.435 931.264 271.964 928.502 272.652C925.735 273.345 908.004 273.112 908.464 275.414C908.925 277.721 920.899 281.404 927.577 279.33C927.577 279.33 920.211 297.526 910.538 296.605C900.861 295.685 897.871 289.695 891.882 289.235C885.892 288.774 881.516 290.388 884.511 291.997C887.506 293.611 897.639 292.526 902.475 296.64C907.311 300.749 911.227 303.283 902.247 305.124C893.263 306.966 877.14 305.817 873.918 298.907C870.695 291.997 870.695 291.997 870.695 291.997Z" fill="#A8D29F"/>
<path d="M924.587 258.831C924.587 258.831 876.219 274.493 870.695 291.997C870.695 291.997 870.923 299.828 866.087 308.812V312.267C866.087 312.267 871.156 300.521 873.918 298.907C873.918 298.907 863.092 283.705 924.587 258.831Z" fill="#82B378"/>
<path d="M866.087 308.812C866.087 308.812 858.627 320.138 862.879 333.924L864.8 333.409C864.8 333.409 862.938 318.222 866.839 310.584C870.74 302.946 866.087 308.812 866.087 308.812Z" fill="#82B378"/>
<path d="M843.212 278.656C843.212 278.656 865.983 265.905 855.355 248.604C855.355 248.604 846.856 237.977 837.747 235.244C837.747 235.244 842.603 261.049 837.747 261.658C832.891 262.262 834.411 232.512 834.411 232.512C834.411 232.512 810.428 220.978 801.013 221.889C801.013 221.889 815.888 247.085 811.032 246.476C806.176 245.872 789.479 220.369 789.479 220.369C789.479 220.369 764.887 215.815 760.942 230.388C756.992 244.961 763.367 252.248 767.011 253.158C770.654 254.069 794.033 253.762 793.424 256.802C792.815 259.836 777.03 264.692 768.228 261.96C768.228 261.96 777.941 285.943 790.692 284.73C803.443 283.517 807.389 275.622 815.284 275.013C823.174 274.409 828.946 276.533 824.996 278.656C821.051 280.785 807.695 279.354 801.32 284.775C794.944 290.195 789.781 293.531 801.622 295.962C813.462 298.392 834.713 296.873 838.965 287.764C843.212 278.656 843.212 278.656 843.212 278.656Z" fill="#A8D29F"/>
<path d="M772.174 234.942C772.174 234.942 835.926 255.584 843.212 278.656C843.212 278.656 842.91 288.982 849.286 300.818V305.372C849.286 305.372 842.603 289.893 838.965 287.764C838.965 287.764 853.231 267.727 772.174 234.942Z" fill="#82B378"/>
<path d="M849.286 300.818C849.286 300.818 859.117 315.752 853.514 333.924L850.984 333.246C850.984 333.246 853.439 313.228 848.296 303.159C843.148 293.091 849.286 300.818 849.286 300.818Z" fill="#82B378"/>
<path d="M843.98 373.336C819.348 373.336 799.379 353.368 799.379 328.736H888.58C888.58 353.368 868.611 373.336 843.98 373.336Z" fill="#F1A34F"/>
<path d="M833.743 372.153C835.277 372.485 836.916 373.035 838.792 373.035C863.428 373.035 883.145 353.368 883.145 328.736H872.066C872.066 351.492 855.761 369.426 833.743 372.153Z" fill="#FFB973"/>
<path d="M798.365 330.102H890.05V328.736H798.365V330.102Z" fill="#D86713"/>
<path d="M865.389 373.336H822.571C821.843 373.336 821.254 372.747 821.254 372.02C821.254 371.292 821.843 370.703 822.571 370.703H865.389C866.116 370.703 866.705 371.292 866.705 372.02C866.705 372.747 866.116 373.336 865.389 373.336Z" fill="#F1A34F"/>
</g>
<defs>
<clipPath id="clip0_171_649">
<rect width="1440" height="861" fill="white"/>
</clipPath>
</defs>
</svg>
