<svg width="1440" height="861" viewBox="0 0 1440 861" fill="none" xmlns="http://www.w3.org/2000/svg">
<g clip-path="url(#clip0_171_649)">
<rect width="1440" height="861" fill="white"/>
<rect width="1440" height="861" fill="white"/>
<rect width="1440" height="940" fill="#61A9EB"/>
<path d="M1474.02 729.692C1417.64 612.906 1122.72 810.698 1071.07 515.209C1019.42 219.72 817.395 -17.1226 515.408 306.325C411.662 422.379 146.071 613.031 -34.7907 506.447C-215.651 399.857 -227.057 921.98 4.31497 1016L1417.64 1013.8C1417.64 1013.8 1530.39 846.479 1474.02 729.692Z" fill="white"/>
<path d="M108.284 955.589H127.989V837.601H108.284V955.589Z" fill="#35488B"/>
<path d="M127.989 955.589H147.694V852.82H127.989V955.589Z" fill="#F1A34F"/>
<path d="M265.741 955.589H285.446V845.711H265.741V955.589Z" fill="#F1A34F"/>
<path d="M226.345 955.589H246.05V845.711H226.345V955.589Z" fill="#F1A34F"/>
<path d="M285.437 955.519H305.142V852.755H285.437V955.519Z" fill="#A53D38"/>
<path d="M147.694 955.589H167.4V838.967H147.694V955.589Z" fill="#A53D38"/>
<path d="M41.2946 949.334L60.0562 955.519L90.658 857.673L71.8957 851.489L41.2946 949.334Z" fill="#F1A34F"/>
<path d="M150.433 849.28H165.47V845.181H150.433V849.28Z" fill="#F1A34F"/>
<path d="M150.433 856.183H165.47V852.084H150.433V856.183Z" fill="#F1A34F"/>
<path d="M295.335 875.548C299.354 875.548 302.614 872.291 302.614 868.268V857.096H288.055V868.268C288.055 872.291 291.314 875.548 295.335 875.548Z" fill="#35488B"/>
<path d="M228.181 851.147H244.858V848.891H228.181V851.147Z" fill="#35488B"/>
<path d="M1075.98 810.632H1095.69V720.26H1075.98V810.632Z" fill="#A53D38"/>
<path d="M977.539 810.714H997.24V692.726H977.539V810.714Z" fill="#35488B"/>
<path d="M1056.27 810.679H1075.98V720.307H1056.27V810.679Z" fill="#35488B"/>
<path d="M997.24 810.632H1016.95V707.862H997.24V810.632Z" fill="#F1A34F"/>
<path d="M1135.03 810.673H1154.74V700.795H1135.03V810.673Z" fill="#F1A34F"/>
<path d="M1095.62 810.632H1115.32V700.759H1095.62V810.632Z" fill="#F1A34F"/>
<path d="M1115.32 810.632H1135.03V732.416H1115.32V810.632Z" fill="#A53D38"/>
<path d="M1154.74 810.632H1174.44V707.862H1154.74V810.632Z" fill="#A53D38"/>
<path d="M957.832 810.714H977.539V720.337H957.832V810.714Z" fill="#A53D38"/>
<path d="M1036.57 810.679H1056.27V740.939H1036.57V810.679Z" fill="#F1A34F"/>
<path d="M1016.86 810.632H1036.57V694.015H1016.86V810.632Z" fill="#A53D38"/>
<path d="M910.602 804.283L929.367 810.467L959.964 712.621L941.205 706.431L910.602 804.283Z" fill="#F1A34F"/>
<path d="M979.895 807.716H994.796V790.495H979.895V807.716Z" fill="#A53D38"/>
<path d="M1019.74 704.228H1034.78V700.123H1019.74V704.228Z" fill="#F1A34F"/>
<path d="M1019.74 711.131H1034.78V707.026H1019.74V711.131Z" fill="#F1A34F"/>
<path d="M998.966 719.671H1015.43V717.621H998.966V719.671Z" fill="white"/>
<path d="M1164.64 730.496C1168.67 730.496 1171.92 727.233 1171.92 723.217V712.038H1157.36V723.217C1157.36 727.233 1160.62 730.496 1164.64 730.496" fill="#35488B"/>
<path d="M1097.49 706.095H1114.17V703.84H1097.49V706.095Z" fill="#35488B"/>
<path d="M1116.99 808.594H1133.58V805.042H1116.99V808.594Z" fill="#35488B"/>
<path d="M1116.99 803.859H1133.58V800.301H1116.99V803.859Z" fill="white"/>
<path d="M1125.28 797.115C1129.25 797.115 1132.46 793.899 1132.46 789.935C1132.46 785.972 1129.25 782.762 1125.28 782.762C1121.32 782.762 1118.11 785.972 1118.11 789.935C1118.11 793.899 1121.32 797.115 1125.28 797.115Z" fill="white"/>
<path d="M1137.64 769.474H1152.14V734.89H1137.64V769.474Z" fill="#A53D38"/>
<path d="M1078.26 731.044H1093.75V727.487H1078.26V731.044Z" fill="white"/>
<path d="M1078.09 748.996H1093.58V745.439H1078.09V748.996Z" fill="white"/>
<path d="M962.656 734.961H973.504C974.989 734.961 976.19 733.759 976.19 732.275C976.19 730.785 974.989 729.583 973.504 729.583H962.656C961.171 729.583 959.964 730.785 959.964 732.275C959.964 733.759 961.171 734.961 962.656 734.961Z" fill="white"/>
<path d="M135.567 666.393H116.702V582.853H135.567V666.393Z" fill="#A53D38"/>
<path d="M286.367 666.416H267.502V582.877H286.367V666.416Z" fill="#F1A34F"/>
<path d="M229.771 666.393H210.906V579.873H229.771V666.393" fill="#35488B"/>
<path d="M154.433 666.393H135.568V579.873H154.433V666.393" fill="#F1A34F"/>
<path d="M210.908 666.393H192.042V591.529H210.908V666.393Z" fill="#A53D38"/>
<path d="M79.0252 666.393H60.1599V553.334H79.0252V666.393Z" fill="#35488B"/>
<path d="M267.502 666.393H248.636V553.334H267.502V666.393Z" fill="#35488B"/>
<path d="M116.746 666.393H97.8804V561.203H116.746V666.393" fill="#35488B"/>
<path d="M97.8805 666.393H79.0151V588.937H97.8805V666.393Z" fill="#A53D38"/>
<path d="M60.1599 666.393H41.2946V568.005H60.1599V666.393Z" fill="#F1A34F"/>
<path d="M305.142 666.24H286.276V567.852H305.142V666.24Z" fill="#35488B"/>
<path d="M248.636 666.393H229.771V564.677H248.636V666.393" fill="#F1A34F"/>
<path d="M173.179 666.393H154.313V561.203H173.179V666.393" fill="#35488B"/>
<path d="M192.044 666.393H173.179V554.742H192.044V666.393Z" fill="#F1A34F"/>
<path d="M227.557 601.241H213.291V584.75H227.557V601.241Z" fill="#F1A34F"/>
<path d="M189.407 564.53H175.012V560.602H189.407V564.53Z" fill="#F1A34F"/>
<path d="M189.407 571.138H175.012V567.21H189.407V571.138Z" fill="#F1A34F"/>
<path d="M50.6833 589.679C46.8344 589.679 43.7146 586.558 43.7146 582.712V572.01H57.6526V582.712C57.6526 586.558 54.5322 589.679 50.6833 589.679Z" fill="#35488B"/>
<path d="M114.974 566.315H99.0078V564.159H114.974V566.315Z" fill="#35488B"/>
<path d="M96.3032 664.449H80.424V661.045H96.3032V664.449Z" fill="#35488B"/>
<path d="M96.3032 659.914H80.424V656.51H96.3032V659.914Z" fill="#35488B"/>
<path d="M88.3638 653.453C84.5691 653.453 81.4929 650.379 81.4929 646.586C81.4929 642.793 84.5691 639.712 88.3638 639.712C92.158 639.712 95.2342 642.793 95.2342 646.586C95.2342 650.379 92.158 653.453 88.3638 653.453Z" fill="#35488B"/>
<path d="M76.5285 626.996H62.6565V593.884H76.5285V626.996Z" fill="#A53D38"/>
<path d="M133.384 590.203H118.551V586.799H133.384V590.203Z" fill="white"/>
<path d="M133.551 607.39H118.719V603.985H133.551V607.39Z" fill="white"/>
<path d="M244.061 574.06H233.675C232.253 574.06 231.101 572.905 231.101 571.486C231.101 570.067 232.253 568.912 233.675 568.912H244.061C245.483 568.912 246.635 570.067 246.635 571.486C246.635 572.905 245.483 574.06 244.061 574.06Z" fill="white"/>
<path d="M171.01 651.627H156.483V664.449H171.01V651.627Z" fill="white"/>
<path d="M209.05 662.747H193.668V659.914H209.05V662.747Z" fill="#A53D38"/>
<path d="M302.609 614.84H289.036V610.417H302.609V614.84Z" fill="#A53D38"/>
<path d="M302.609 622.037H289.036V617.614H302.609V622.037Z" fill="#A53D38"/>
<path d="M285.577 810.991H305.142V708.952H285.577V810.991Z" fill="#A53D38"/>
<path d="M158.677 810.991H178.242V708.952H158.677V810.991Z" fill="#A53D38"/>
<path d="M266.012 810.991H285.577V695.199H266.012V810.991Z" fill="#35488B"/>
<path d="M246.447 810.991H266.012V721.261H246.447V810.991Z" fill="#F1A34F"/>
<path d="M60.856 810.991H80.4205V721.261H60.856V810.991Z" fill="#A53D38"/>
<path d="M41.2946 810.991H60.859V708.952H41.2946V810.991Z" fill="#35488B"/>
<path d="M139.112 810.991H158.676V701.896H139.112V810.991Z" fill="#F1A34F"/>
<path d="M80.4205 810.991H99.9856V701.896H80.4205V810.991Z" fill="#F1A34F"/>
<path d="M119.547 810.991H139.112V695.199H119.547V810.991Z" fill="#A53D38"/>
<path d="M99.9818 810.991H119.547V721.261H99.9818V810.991Z" fill="#35488B"/>
<path d="M226.883 810.991H246.447V708.952H226.883V810.991Z" fill="#A53D38"/>
<path d="M178.238 804.848L196.866 810.991L226.883 715.012C227.086 714.359 226.73 713.669 226.084 713.457L209.823 708.092C209.162 707.874 208.451 708.239 208.244 708.905L178.238 804.848" fill="#F1A34F"/>
<path d="M287.17 721.621H303.548V717.097H287.17V721.621Z" fill="#F1A34F"/>
<path d="M287.17 725.06H303.548V723.158H287.17V725.06Z" fill="#F1A34F"/>
<path d="M228.476 804.141H244.854V799.618H228.476V804.141Z" fill="#F1A34F"/>
<path d="M228.476 807.581H244.854V805.679H228.476V807.581Z" fill="#F1A34F"/>
<path d="M161.273 771.389H175.388V713.298H161.273V771.389Z" fill="#F1A34F"/>
<path d="M69.4333 736.822H71.424C73.7728 736.822 75.677 734.92 75.677 732.57C75.677 730.22 73.7728 728.317 71.424 728.317H69.4333C67.085 728.317 65.1809 730.22 65.1809 732.57C65.1809 734.92 67.085 736.822 69.4333 736.822Z" fill="#F1A34F"/>
<path d="M121.461 703.798H137.296V701.896H121.461V703.798Z" fill="#F1A34F"/>
<path d="M121.461 707.326H137.296V705.424H121.461V707.326Z" fill="#F1A34F"/>
<path d="M121.461 710.854H137.296V708.952H121.461V710.854Z" fill="#F1A34F"/>
<path d="M247.645 745.869H264.814V727.681H247.645V745.869Z" fill="white"/>
<path d="M247.645 750.245H264.814V747.806H247.645V750.245Z" fill="white"/>
<path d="M43.1934 808.441H59.3447V805.59H43.1934V808.441Z" fill="white"/>
<path d="M43.1934 803.688H59.3447V800.837H43.1934V803.688Z" fill="white"/>
<path d="M43.1934 798.528H59.3447V783.056H43.1934V798.528Z" fill="white"/>
<path d="M109.427 774.816H110.106C114.378 774.816 117.842 771.353 117.842 767.077C117.842 762.807 114.378 759.344 110.106 759.344H109.427C105.154 759.344 101.691 762.807 101.691 767.077C101.691 771.353 105.154 774.816 109.427 774.816Z" fill="#A53D38"/>
<path d="M267.952 808.441H283.832V799.618H267.952V808.441Z" fill="#F1A34F"/>
<path d="M205.983 720.902L222.031 725.967L223.053 722.734L207.005 717.663L205.983 720.902" fill="#A53D38"/>
<path d="M140.372 715.878H157.609V713.298H140.372V715.878Z" fill="#A53D38"/>
<path d="M140.276 712.344H157.513V709.771H140.276V712.344Z" fill="#A53D38"/>
<path d="M148.99 732.499C153.75 732.499 157.609 728.641 157.609 723.882V716.826H140.372V723.882C140.372 728.641 144.231 732.499 148.99 732.499Z" fill="#A53D38"/>
<path d="M41.2945 955.589H305.142V392.927H41.2945V955.589ZM312.199 386.148V962.91H34.2368V386.148H312.199Z" fill="#699FF0"/>
<path d="M-8.10889 962.763H34.237V386.148H-8.10889V962.763Z" fill="#466AA5"/>
<path d="M37.494 537.532H308.942V521.789H37.494V537.532Z" fill="#699FF0"/>
<path d="M37.494 682.13H308.942V666.387H37.494V682.13Z" fill="#699FF0"/>
<path d="M37.494 826.734H308.942V810.991H37.494V826.734Z" fill="#699FF0"/>
<path d="M139.063 521.847H119.497V432.118H139.063V521.847Z" fill="#35488B"/>
<path d="M236.759 521.847H217.194V432.118H236.759V521.847" fill="#35488B"/>
<path d="M158.628 521.847H139.063V432.118H158.628V521.847" fill="#A53D38"/>
<path d="M217.196 521.847H197.631V419.808H217.196V521.847" fill="#35488B"/>
<path d="M80.424 521.889H60.8589V412.799H80.424V521.889" fill="#F1A34F"/>
<path d="M119.543 521.889H99.9785V412.799H119.543V521.889Z" fill="#F1A34F"/>
<path d="M99.979 521.871H80.4139V406.079H99.979V521.871Z" fill="#A53D38"/>
<path d="M60.859 521.847H41.2946V419.808H60.859V521.847" fill="#A53D38"/>
<path d="M256.324 521.847H236.759V432.118H256.324V521.847" fill="#A53D38"/>
<path d="M178.068 521.847H158.503V412.752H178.068V521.847Z" fill="#F1A34F"/>
<path d="M197.633 521.847H178.068V406.056H197.633V521.847Z" fill="#A53D38"/>
<path d="M303.259 515.705L284.631 521.847L254.248 424.697L272.876 418.554L303.259 515.705Z" fill="#F1A34F"/>
<path d="M234.462 454.434H219.668V437.33H234.462V454.434Z" fill="#F1A34F"/>
<path d="M194.899 416.363H179.969V412.293H194.899V416.363Z" fill="#F1A34F"/>
<path d="M194.899 423.218H179.969V419.143H194.899V423.218Z" fill="#F1A34F"/>
<path d="M215.529 431.7H199.174V429.662H215.529V431.7Z" fill="white"/>
<path d="M51.0314 442.442C47.0399 442.442 43.8041 439.209 43.8041 435.216V424.12H58.2587V435.216C58.2587 439.209 55.0229 442.442 51.0314 442.442Z" fill="#35488B"/>
<path d="M117.706 418.218H101.147V415.98H117.706V418.218Z" fill="#35488B"/>
<path d="M98.3423 519.986H81.8747V516.458H98.3423V519.986Z" fill="#35488B"/>
<path d="M98.3423 515.286H81.8747V511.752H98.3423V515.286Z" fill="#35488B"/>
<path d="M90.1085 508.59C86.1735 508.59 82.9831 505.398 82.9831 501.463C82.9831 497.529 86.1735 494.337 90.1085 494.337C94.044 494.337 97.2344 497.529 97.2344 501.463C97.2344 505.398 94.044 508.59 90.1085 508.59Z" fill="#35488B"/>
<path d="M77.8349 481.144H63.4481V446.807H77.8349V481.144Z" fill="#A53D38"/>
<path d="M136.797 442.99H121.416V439.456H136.797V442.99Z" fill="white"/>
<path d="M136.971 460.812H121.589V457.284H136.971V460.812Z" fill="white"/>
<path d="M251.579 446.877H240.807C239.333 446.877 238.138 445.682 238.138 444.209C238.138 442.737 239.333 441.541 240.807 441.541H251.579C253.053 441.541 254.248 442.737 254.248 444.209C254.248 445.682 253.053 446.877 251.579 446.877Z" fill="white"/>
<path d="M1356.21 823.548H1371.79V742.264H1356.21V823.548Z" fill="#A53D38"/>
<path d="M1255.12 823.548H1270.7V742.264H1255.12V823.548Z" fill="#A53D38"/>
<path d="M1340.62 823.548H1356.21V731.309H1340.62V823.548Z" fill="#F1A34F"/>
<path d="M1325.03 823.548H1340.62V752.064H1325.03V823.548Z" fill="#35488B"/>
<path d="M1239.53 823.548H1255.12V736.639H1239.53V823.548Z" fill="#F1A34F"/>
<path d="M1223.43 823.548H1239.53V731.309H1223.43V823.548Z" fill="#A53D38"/>
<path d="M1309.45 823.548H1325.03V742.264H1309.45V823.548Z" fill="#A53D38"/>
<path d="M1270.75 818.654L1285.59 823.548L1309.41 747.4C1309.62 746.711 1309.25 745.975 1308.56 745.745L1296.24 741.687C1295.54 741.451 1294.78 741.84 1294.56 742.547L1270.75 818.654" fill="#F1A34F"/>
<path d="M1357.48 752.353H1370.52V748.749H1357.48V752.353Z" fill="#F1A34F"/>
<path d="M1357.48 755.098H1370.52V753.578H1357.48V755.098Z" fill="#F1A34F"/>
<path d="M1310.72 818.094H1323.77V814.49H1310.72V818.094Z" fill="#F1A34F"/>
<path d="M1310.72 820.833H1323.77V819.319H1310.72V820.833Z" fill="#F1A34F"/>
<path d="M1257.18 792.003H1268.43V745.721H1257.18V792.003Z" fill="#F1A34F"/>
<path d="M1225.47 738.153H1238.08V736.639H1225.47V738.153Z" fill="#F1A34F"/>
<path d="M1225.47 740.968H1238.08V739.455H1225.47V740.968Z" fill="#F1A34F"/>
<path d="M1225.47 743.778H1238.08V742.264H1225.47V743.778Z" fill="#F1A34F"/>
<path d="M1325.99 771.671H1339.67V757.183H1325.99V771.671Z" fill="white"/>
<path d="M1325.99 775.158H1339.67V773.214H1325.99V775.158Z" fill="white"/>
<path d="M1342.16 821.516H1354.82V814.49H1342.16V821.516Z" fill="#A53D38"/>
<path d="M1292.48 751.682L1305.27 755.716L1306.08 753.136L1293.29 749.102L1292.48 751.682Z" fill="#A53D38"/>
<path d="M1240.53 747.777H1254.26V745.721H1240.53V747.777Z" fill="#A53D38"/>
<path d="M1240.46 744.967H1254.18V742.912H1240.46V744.967Z" fill="#A53D38"/>
<path d="M1247.4 761.023C1251.19 761.023 1254.26 757.948 1254.26 754.155V748.537H1240.53V754.155C1240.53 757.948 1243.61 761.023 1247.4 761.023Z" fill="#A53D38"/>
<path d="M1417.12 963.511H1378.29V433.961H1417.12V963.511Z" fill="#466AA5"/>
<path d="M1375.31 572.782H1202.68V558.346H1375.31V572.782Z" fill="#699FF0"/>
<path d="M1375.31 705.383H1202.68V690.576H1375.31V705.383Z" fill="#699FF0"/>
<path d="M1375.31 837.989H1202.68V823.371H1375.31V837.989Z" fill="#699FF0"/>
<path d="M1174.45 955.236H910.602V392.574H1174.45V955.236ZM903.546 385.795V962.628H1181.51V385.795H903.546Z" fill="#699FF0"/>
<path d="M1223.85 962.834H1181.51V385.795H1223.85V962.834Z" fill="#466AA5"/>
<path d="M1178.25 537.178H906.803V521.429H1178.25V537.178Z" fill="#699FF0"/>
<path d="M1178.25 681.777H906.803V666.034H1178.25V681.777Z" fill="#699FF0"/>
<path d="M1178.25 826.375H906.803V810.632H1178.25V826.375Z" fill="#699FF0"/>
<path d="M1223.85 433.961V440.175H1371.82V956.155H1223.85V963.087H1378.29V433.961H1223.85Z" fill="#699FF0"/>
<path d="M579.742 850.493C579.748 852.631 580.796 854.098 582.587 855.087C582.593 855.093 582.604 855.099 582.616 855.099C585.926 856.919 591.739 857.102 598.059 856.825C598.872 856.795 599.596 856.772 600.25 856.772C600.421 856.772 600.591 856.772 600.756 856.778C600.886 856.778 601.021 856.784 601.145 856.784C607.406 856.937 606.74 858.81 618.638 859.829C632.19 860.989 637.184 856.837 637.985 854.946C638.657 853.344 632.838 851.53 626.341 849.451C626.029 849.351 625.711 849.251 625.393 849.15C624.527 848.874 623.656 848.585 622.796 848.308C615.057 845.734 607.435 842.684 605.539 834.85C603.519 826.54 609.579 803.358 609.579 803.358L588.099 801.037C588.099 801.037 586.026 825.274 584.677 832.83C583.947 836.859 582.121 840.063 581.049 843.52C580.973 843.761 580.902 844.003 580.837 844.244C580.29 846.27 579.736 848.349 579.742 850.493" fill="#E49963"/>
<path d="M579.742 850.493C579.748 852.631 580.796 854.098 582.587 855.087C582.593 855.093 582.604 855.099 582.616 855.099C586.144 856.725 591.857 856.966 598.053 856.789C598.86 856.766 599.59 856.76 600.25 856.772C600.421 856.772 600.591 856.772 600.756 856.778C600.886 856.778 601.021 856.784 601.145 856.784C607.406 856.937 606.74 858.81 618.638 859.829C632.19 860.989 637.184 856.837 637.985 854.946C638.657 853.344 632.838 851.53 626.341 849.451C624.515 850.158 615.828 853.173 605.545 851.224C596.498 849.522 587.516 845.022 581.049 843.52C580.973 843.761 580.902 844.003 580.837 844.244C580.29 846.27 579.736 848.349 579.742 850.493" fill="#C65447"/>
<path d="M719.134 823.071C720.329 829.037 728.834 828.042 738.334 825.721C747.834 823.401 745.579 826.157 759.101 824.661C772.618 823.165 776.717 818.123 777.13 816.115C777.501 814.33 770.816 813.7 763.648 812.876C762.747 812.776 761.846 812.664 760.939 812.552C752.846 811.533 746.921 806.315 739.571 802.027C732.609 797.963 722.22 781.419 722.22 781.419L703.679 782.885C703.679 782.885 713.409 797.663 717.173 804.094C719.387 807.87 719.269 812.87 718.992 816.728C718.851 818.824 718.716 820.968 719.134 823.071" fill="#E49963"/>
<path d="M738.334 825.721C747.834 823.401 745.579 826.157 759.101 824.661C772.618 823.165 776.717 818.123 777.13 816.115C777.501 814.331 770.816 813.7 763.648 812.876L763.583 813.011C763.583 813.011 755.473 818.76 744.218 819.03C735.048 819.254 725.33 816.628 718.992 816.728C718.851 818.824 718.716 820.968 719.134 823.071C720.329 829.037 728.834 828.042 738.334 825.721" fill="#C65447"/>
<path d="M677.87 550.701C677.87 550.701 682.294 539.876 687.153 539.434C692.012 538.992 707.478 536.566 708.579 538.775C709.687 540.983 708.579 548.934 705.269 551.808C701.954 554.677 681.41 559.318 681.41 559.318L677.87 550.701" fill="#FFB27D"/>
<path d="M648.069 704.493L608.101 812.051C608.101 812.051 601.964 812.646 596.074 810.95C590.662 809.389 584.454 805.29 584.454 805.29C584.454 805.29 594.366 702.014 612.542 680.534C630.717 659.054 648.069 704.493 648.069 704.493Z" fill="#365DA4"/>
<path d="M489.994 660.98C489.994 660.98 604.832 622.155 630.446 630.412C656.055 638.676 732.957 791.673 732.957 791.673C732.957 791.673 731.219 793.982 726.484 795.76C722.079 797.409 711.412 797.303 711.412 797.303C711.412 797.303 642.008 737.817 633.751 720.466C625.487 703.121 622.183 686.594 613.92 688.249C605.657 689.899 507.34 728.729 485.035 705.595C462.731 682.466 468.562 652.405 468.562 652.405L489.994 660.98" fill="#466AA5"/>
<path d="M560.17 480.337C562.002 476.55 564.058 469.824 565.059 457.838C564.906 459.028 562.838 474.147 557.025 482.704C533.143 498.389 487.362 550.742 488.269 560.667C488.269 560.667 472.143 533.321 471.866 533.156C471.866 533.156 442.123 495.332 477.373 473.664C495.289 462.656 495.201 448.521 494.453 436.246C493.699 423.966 499.341 371.124 535.227 384.953C535.227 384.953 540.988 382.391 543.567 382.774C543.567 382.774 541.459 383.18 540.393 384.287C544.551 384.04 550.5 384.346 555.465 387.167C568.622 394.647 580.396 461.725 560.17 480.337" fill="#35488B"/>
<path d="M555.612 483.488C555.73 483.541 544.08 489.59 535.316 487.192C527.07 484.948 521.687 474.259 521.799 474.235C525.292 473.54 526.299 468.74 526.222 448.126L527.801 448.438L554.34 453.692C554.34 453.692 553.733 462.043 553.715 469.912C553.698 476.514 554.098 482.781 555.612 483.488Z" fill="#FFB27D"/>
<path d="M554.34 453.692C554.34 453.692 553.733 462.043 553.715 469.912C538.867 469.494 531.016 455.948 527.801 448.438L554.34 453.692Z" fill="#E8945B"/>
<path d="M525.062 445.552C525.062 445.552 517.276 433.254 515.409 422.741C514.077 415.232 517.9 387.409 545.858 391.42C545.858 391.42 553.98 392.215 561.613 397.374C567.686 401.473 576.444 410.326 566.649 434.603L564.105 442.807L525.062 445.552" fill="#35488B"/>
<path d="M559.299 461.142C559.299 461.142 524.161 461.719 524.137 439.839C524.114 417.953 519.561 403.288 541.995 401.992C564.423 400.696 568.793 409.042 570.577 416.345C572.362 423.648 568.434 460.43 559.299 461.142Z" fill="#FFB27D"/>
<path d="M526.122 406.068C526.122 406.068 550.117 389.665 557.709 401.008C560.011 399.035 564.111 397.604 569.535 404.177C577.675 414.048 570.43 431.499 570.43 431.499C567.085 431.894 566.296 420.421 564.546 414.843C563.227 410.644 558.816 406.35 556.731 404.495C553.662 411.404 545.234 427.942 533.614 430.928C518.848 434.727 512.446 430.769 512.446 430.769C512.446 430.769 523.772 421.775 526.122 406.068" fill="#35488B"/>
<path d="M477.373 578.006C473.91 563.476 485.701 535.282 498.004 511.935C509.171 490.779 520.756 473.617 521.799 474.235C551.247 491.71 553.904 477.18 553.904 477.18C553.904 477.18 580.655 480.731 588.229 493.771C598.707 511.8 610.109 565.903 621.323 565.102C626.465 564.73 678.241 545.271 678.241 545.271C678.241 545.271 686.87 553.352 685.215 563.27C685.215 563.27 659.653 580.385 638.032 591.311C626.6 597.089 616.264 601.129 611.405 599.986C601.557 597.666 586.173 574.837 577.863 561.397C577.84 561.362 577.822 561.338 577.804 561.303C567.197 621.36 581.621 635.036 574.317 641.367C566.608 648.052 555.594 638.187 531.358 648.688C515.462 655.585 493.399 665.556 478.551 667.288C470.759 668.201 464.951 666.846 463.055 661.587C457.548 646.303 483.987 605.711 477.373 578.006" fill="#699DEE"/>
<path d="M551.483 447.879C551.483 447.879 552.143 450.659 559.057 450.229C559.057 450.229 564.864 449.869 564.688 446.813C564.688 446.813 559.057 444.639 551.483 447.879Z" fill="white"/>
<path d="M463.055 661.587C464.951 666.846 470.759 668.201 478.551 667.288C488.828 662.812 533.231 645.608 532.73 633.952C531.994 616.695 524.196 616.148 529.703 594.845C534.126 577.741 504.059 542.579 497.516 535.665C485.212 559.012 473.91 563.476 477.373 578.006C483.987 605.711 457.548 646.303 463.055 661.587" fill="#3B76CA"/>
<path d="M577.863 561.397C586.174 574.837 601.557 597.666 611.405 599.986C616.264 601.129 626.6 597.089 638.032 591.311C629.687 593.466 621.582 593.402 613.702 592.642C605.168 591.817 602.688 581.351 589.189 565.655C580.437 555.472 578.293 558.034 577.863 561.397" fill="#3B76CA"/>
<path d="M536.723 594.432C536.723 594.432 544.162 588.649 551.183 590.027C558.209 591.405 561.649 596.223 561.378 598.425C561.101 600.628 557.385 606.824 552.013 607.378C546.642 607.926 531.358 604.074 531.358 604.074L536.723 594.432Z" fill="#FFB27D"/>
<path d="M521.799 474.235C521.799 474.235 493.163 475.996 483.251 489.825C469.298 509.285 445.062 588.743 451.67 606.918L538.791 606.553C538.791 606.553 540.905 596.682 537.966 591.906C535.027 587.135 487.291 579.425 485.088 577.223C482.886 575.02 512.629 534.257 512.629 527.649C512.629 521.035 521.799 474.235 521.799 474.235" fill="#699DEE"/>
<path d="M284.452 964.442H829.318V785.5L284.452 783.716V964.442" fill="#A53D38"/>
<path d="M284.452 640.608V687.401H829.318V640.608H284.452Z" fill="#B64C41"/>
<path d="M841.793 640.608H273.016C264.696 640.608 257.952 633.864 257.952 625.542V621.943C257.952 613.621 264.696 606.877 273.016 606.877H841.793C850.109 606.877 856.853 613.621 856.853 621.943V625.542C856.853 633.864 850.109 640.608 841.793 640.608" fill="#A53D38"/>
<path d="M291.687 783.716L822.086 785.5V687.401H291.687V783.716Z" fill="#F1A34F"/>
<path d="M376.906 525.746L394.369 606.877H326.312L311.366 527.225L313.013 525.746H376.906" fill="#35488B"/>
<path d="M378.838 525.746L396.301 606.877H328.244L313.021 525.746H378.838Z" fill="#82B378"/>
<path d="M376.5 528.326L392.272 601.612H330.8L317.05 528.326H376.5Z" fill="white"/>
<path d="M325.11 534.21H371.9C372.76 534.21 373.467 534.917 373.467 535.783C373.467 536.642 372.76 537.349 371.9 537.349H325.11C324.248 537.349 323.543 536.642 323.543 535.783C323.543 534.917 324.248 534.21 325.11 534.21Z" fill="#82B378"/>
<path d="M327.498 541.602H374.285C375.151 541.602 375.852 542.308 375.852 543.168C375.852 544.028 375.151 544.735 374.285 544.735H327.498C326.636 544.735 325.931 544.028 325.931 543.168C325.931 542.308 326.636 541.602 327.498 541.602Z" fill="#82B378"/>
<path d="M328.99 548.687H375.781C376.641 548.687 377.348 549.394 377.348 550.26C377.348 551.119 376.641 551.826 375.781 551.826H328.99C328.128 551.826 327.423 551.119 327.423 550.26C327.423 549.394 328.128 548.687 328.99 548.687Z" fill="#82B378"/>
<path d="M331.155 563.305H377.943C378.809 563.305 379.509 564.012 379.509 564.872C379.509 565.738 378.809 566.444 377.943 566.444H331.155C330.293 566.444 329.587 565.738 329.587 564.872C329.587 564.012 330.293 563.305 331.155 563.305Z" fill="#82B378"/>
<path d="M333.543 570.697H380.334C381.194 570.697 381.901 571.398 381.901 572.263C381.901 573.123 381.194 573.83 380.334 573.83H333.543C332.68 573.83 331.975 573.123 331.975 572.263C331.975 571.398 332.68 570.697 333.543 570.697" fill="#82B378"/>
<path d="M335.034 577.782H381.824C382.684 577.782 383.391 578.489 383.391 579.355C383.391 580.215 382.684 580.921 381.824 580.921H335.034C334.173 580.921 333.468 580.215 333.468 579.355C333.468 578.489 334.173 577.782 335.034 577.782Z" fill="#82B378"/>
<path d="M407.804 570.956L417.934 604.533L416.079 605.093L405.942 571.515L407.804 570.956Z" fill="#35488B"/>
<path d="M416.638 601.3C420.113 601.3 422.981 603.732 423.423 606.877H409.853C410.295 603.732 413.157 601.3 416.638 601.3" fill="#699FF0"/>
<path d="M407.745 605.982C410.342 605.982 412.922 605.546 413.128 605.511L413.051 605.075C410.46 605.517 403.551 606.188 402.78 604.015C402.438 603.049 402.756 601.429 403.204 599.179C404.011 595.092 405.236 588.914 403.798 580.291C402.674 573.547 403.51 571.504 404.411 570.979C405.347 570.426 406.614 571.433 406.626 571.445L406.908 571.091C406.849 571.044 405.383 569.884 404.181 570.591C402.697 571.457 402.42 574.749 403.357 580.368C404.782 588.908 403.569 595.039 402.762 599.091C402.308 601.412 401.973 603.084 402.361 604.168C402.868 605.599 405.312 605.982 407.745 605.982" fill="#699FF0"/>
<path d="M368.837 742.458L377.719 745.274C376.358 750.227 374.091 753.908 370.922 756.311C367.759 758.72 363.737 759.921 358.867 759.921C352.839 759.921 347.886 757.86 344.006 753.743C340.125 749.626 338.185 743.996 338.185 736.857C338.185 729.301 340.136 723.435 344.036 719.253C347.938 715.077 353.066 712.986 359.424 712.986C364.975 712.986 369.485 714.624 372.954 717.91C375.016 719.848 376.565 722.634 377.595 726.268L368.525 728.435C367.989 726.079 366.87 724.224 365.168 722.863C363.464 721.497 361.395 720.82 358.959 720.82C355.595 720.82 352.865 722.027 350.771 724.442C348.676 726.857 347.628 730.767 347.628 736.174C347.628 741.911 348.66 745.998 350.724 748.436C352.788 750.869 355.471 752.088 358.773 752.088C361.209 752.088 363.304 751.311 365.058 749.767C366.811 748.219 368.072 745.78 368.837 742.458" fill="#A53D38"/>
<path d="M385.305 759.144V713.758H394.469V759.144H385.305Z" fill="#A53D38"/>
<path d="M413.416 759.144V721.438H399.953V713.758H436.021V721.438H422.581V759.144H413.416" fill="#A53D38"/>
<path d="M453.849 759.144V740.044L437.229 713.758H447.971L458.649 731.716L469.115 713.758H479.67L462.984 740.103V759.144H453.849Z" fill="#A53D38"/>
<path d="M500.944 759.144V714.129H510.108V751.499H532.895V759.144H500.944Z" fill="#A53D38"/>
<path d="M539.144 759.144V713.758H548.309V759.144H539.144Z" fill="#A53D38"/>
<path d="M566.237 739.36V751.499H574.718C578.022 751.499 580.119 751.405 581.002 751.222C582.369 750.975 583.476 750.368 584.33 749.408C585.19 748.448 585.62 747.164 585.62 745.556C585.62 744.19 585.29 743.036 584.624 742.087C583.965 741.139 583.011 740.444 581.762 740.014C580.513 739.578 577.804 739.36 573.634 739.36H566.237ZM566.237 721.314V731.81H572.244C575.813 731.81 578.034 731.757 578.9 731.651C580.466 731.468 581.703 730.926 582.598 730.025C583.499 729.13 583.947 727.952 583.947 726.486C583.947 725.078 583.558 723.941 582.787 723.064C582.009 722.186 580.861 721.656 579.33 721.467C578.423 721.361 575.813 721.314 571.502 721.314H566.237ZM557.072 713.758H575.213C578.805 713.758 581.485 713.911 583.246 714.205C585.013 714.506 586.592 715.13 587.987 716.078C589.377 717.033 590.538 718.293 591.468 719.871C592.399 721.45 592.864 723.223 592.864 725.184C592.864 727.31 592.287 729.26 591.144 731.032C589.996 732.811 588.447 734.142 586.486 735.026C589.248 735.832 591.374 737.205 592.864 739.148C594.348 741.086 595.09 743.365 595.09 745.986C595.09 748.054 594.613 750.062 593.653 752.012C592.693 753.961 591.38 755.522 589.719 756.682C588.058 757.848 586.009 758.567 583.576 758.838C582.045 759.003 578.364 759.103 572.521 759.144H557.072V713.758" fill="#A53D38"/>
<path d="M612.029 732.952H618.808C623.202 732.952 625.947 732.77 627.042 732.399C628.138 732.028 628.992 731.386 629.61 730.479C630.228 729.572 630.541 728.435 630.541 727.069C630.541 725.543 630.134 724.312 629.315 723.37C628.503 722.433 627.354 721.839 625.864 721.591C625.122 721.491 622.896 721.438 619.179 721.438H612.029V732.952ZM602.865 759.144V713.758H622.148C627.001 713.758 630.523 714.164 632.726 714.983C634.923 715.796 636.684 717.245 638.003 719.33C639.322 721.414 639.982 723.8 639.982 726.486C639.982 729.89 638.981 732.699 636.978 734.92C634.981 737.14 631.984 738.536 628.002 739.113C629.981 740.273 631.618 741.54 632.908 742.924C634.198 744.308 635.936 746.764 638.127 750.292L643.669 759.144H632.708L626.082 749.273C623.732 745.739 622.118 743.519 621.252 742.6C620.387 741.681 619.468 741.051 618.496 740.709C617.524 740.368 615.987 740.197 613.884 740.197H612.029V759.144H602.865" fill="#A53D38"/>
<path d="M672.676 741.186L666.427 724.348L660.296 741.186H672.676ZM689.55 759.144H679.584L675.621 748.837H657.474L653.729 759.144H644.01L661.686 713.758H671.38L689.55 759.144Z" fill="#A53D38"/>
<path d="M703.609 732.952H710.388C714.781 732.952 717.526 732.77 718.621 732.399C719.717 732.028 720.571 731.386 721.189 730.479C721.814 729.572 722.12 728.435 722.12 727.069C722.12 725.543 721.713 724.312 720.901 723.37C720.082 722.433 718.934 721.839 717.443 721.591C716.701 721.491 714.475 721.438 710.759 721.438H703.609V732.952ZM694.444 759.144V713.758H713.733C718.58 713.758 722.108 714.164 724.305 714.983C726.502 715.796 728.263 717.245 729.582 719.33C730.901 721.414 731.561 723.8 731.561 726.486C731.561 729.89 730.56 732.699 728.563 734.92C726.561 737.14 723.563 738.536 719.581 739.113C721.566 740.273 723.198 741.54 724.488 742.924C725.777 744.308 727.521 746.764 729.706 750.292L735.248 759.144H724.287L717.661 749.273C715.311 745.739 713.698 743.519 712.832 742.6C711.966 741.681 711.047 741.051 710.075 740.709C709.109 740.368 707.566 740.197 705.464 740.197H703.609V759.144H694.444" fill="#A53D38"/>
<path d="M749.766 759.144V740.044L733.145 713.758H743.888L754.566 731.716L765.032 713.758H775.587L758.901 740.103V759.144H749.766" fill="#A53D38"/>
<path d="M930.168 521.429H910.602V419.396H930.168V521.429Z" fill="#A53D38"/>
<path d="M1057.07 521.429H1037.5V419.396H1057.07V521.429Z" fill="#A53D38"/>
<path d="M949.733 521.429H930.168V405.643H949.733V521.429Z" fill="#F1A34F"/>
<path d="M969.299 521.429H949.734V431.7H969.299V521.429Z" fill="#35488B"/>
<path d="M1154.89 521.429H1135.32V431.7H1154.89V521.429Z" fill="#A53D38"/>
<path d="M1174.45 521.429H1154.88V419.396H1174.45V521.429Z" fill="#35488B"/>
<path d="M1076.63 521.429H1057.07V412.34H1076.63V521.429Z" fill="#F1A34F"/>
<path d="M1135.32 521.429H1115.76V412.34H1135.32V521.429Z" fill="#F1A34F"/>
<path d="M1096.2 521.429H1076.63V405.643H1096.2V521.429Z" fill="#A53D38"/>
<path d="M1115.76 521.429H1096.2V431.7H1115.76V521.429Z" fill="#35488B"/>
<path d="M988.865 521.429H969.299V419.396H988.865V521.429Z" fill="#A53D38"/>
<path d="M1037.87 515.292L1019.24 521.429L988.865 424.284L1007.49 418.141L1037.87 515.292" fill="#F1A34F"/>
<path d="M928.572 432.065H912.198V427.541H928.572V432.065Z" fill="#F1A34F"/>
<path d="M928.572 435.504H912.198V433.602H928.572V435.504Z" fill="#F1A34F"/>
<path d="M987.269 514.585H970.89V510.062H987.269V514.585Z" fill="#F1A34F"/>
<path d="M987.269 518.025H970.89V516.123H987.269V518.025Z" fill="#F1A34F"/>
<path d="M732.786 606.877V587.312H834.819V606.877H732.786Z" fill="#F1A34F"/>
<path d="M739.63 605.287V588.908H744.159V605.287H739.63" fill="#35488B"/>
<path d="M736.196 605.287V588.908H738.093V605.287H736.196Z" fill="#35488B"/>
<path d="M743.099 587.312V567.752H845.138V587.312H743.099Z" fill="#A53D38"/>
<path d="M832.534 583.46V571.604C832.534 570.355 833.547 569.342 834.796 569.342C836.05 569.342 837.058 570.355 837.058 571.604V583.46C837.058 584.708 836.05 585.721 834.796 585.721C833.547 585.721 832.534 584.708 832.534 583.46Z" fill="#F1A34F"/>
<path d="M829.1 585.721V569.342H830.997V585.721H829.1Z" fill="#F1A34F"/>
<path d="M838.642 585.721V569.342H840.544V585.721H838.642Z" fill="#F1A34F"/>
<path d="M724.099 567.752V548.186H826.132V567.752H724.099Z" fill="#35488B"/>
<path d="M727.509 566.156V549.776H759.001C763.524 549.776 767.188 553.446 767.188 557.969C767.188 562.492 763.524 566.156 759.001 566.156H727.509Z" fill="#F1A34F"/>
<path d="M1054.47 481.833H1040.35V423.737H1054.47V481.833Z" fill="#F1A34F"/>
<path d="M1146.31 447.266H1144.32C1141.97 447.266 1140.07 445.364 1140.07 443.014C1140.07 440.664 1141.97 438.761 1144.32 438.761H1146.31C1148.66 438.761 1150.56 440.664 1150.56 443.014C1150.56 445.364 1148.66 447.266 1146.31 447.266Z" fill="#F1A34F"/>
<path d="M1094.28 414.237H1078.45V412.34H1094.28V414.237Z" fill="#F1A34F"/>
<path d="M1094.28 417.77H1078.45V415.868H1094.28V417.77Z" fill="#F1A34F"/>
<path d="M1094.28 421.298H1078.45V419.396H1094.28V421.298Z" fill="#F1A34F"/>
<path d="M968.098 456.313H950.929V438.125H968.098V456.313Z" fill="white"/>
<path d="M968.098 460.689H950.929V458.244H968.098V460.689Z" fill="white"/>
<path d="M1172.55 518.879H1156.4V516.034H1172.55V518.879Z" fill="white"/>
<path d="M1172.55 514.132H1156.4V511.281H1172.55V514.132Z" fill="white"/>
<path d="M1172.55 508.973H1156.4V493.5H1172.55V508.973Z" fill="white"/>
<path d="M1106.32 485.261H1105.64C1101.36 485.261 1097.9 481.798 1097.9 477.522C1097.9 473.252 1101.36 469.788 1105.64 469.788H1106.32C1110.59 469.788 1114.05 473.252 1114.05 477.522C1114.05 481.798 1110.59 485.261 1106.32 485.261Z" fill="#A53D38"/>
<path d="M947.79 518.879H931.911V510.062H947.79V518.879Z" fill="#A53D38"/>
<path d="M1010.16 431.217L994.118 436.282L993.094 433.048L1009.14 427.977L1010.16 431.217" fill="#A53D38"/>
<path d="M1075.37 426.316H1058.13V423.737H1075.37V426.316Z" fill="#A53D38"/>
<path d="M1075.47 422.788H1058.23V420.209H1075.47V422.788Z" fill="#A53D38"/>
<path d="M1066.76 442.943C1061.99 442.943 1058.13 439.085 1058.13 434.326V427.27H1075.37V434.326C1075.37 439.085 1071.52 442.943 1066.76 442.943Z" fill="#A53D38"/>
<path d="M1008.24 666.01H988.67V576.28H1008.24V666.01Z" fill="#35488B"/>
<path d="M1105.93 666.01H1086.37V576.28H1105.93V666.01Z" fill="#35488B"/>
<path d="M1027.8 666.01H1008.24V576.28H1027.8V666.01Z" fill="#A53D38"/>
<path d="M1086.37 666.01H1066.8V563.977H1086.37V666.01Z" fill="#35488B"/>
<path d="M949.598 666.057H930.032V556.962H949.598V666.057Z" fill="#F1A34F"/>
<path d="M988.717 666.057H969.152V556.962H988.717V666.057Z" fill="#F1A34F"/>
<path d="M969.152 666.034H949.586V550.242H969.152V666.034Z" fill="#A53D38"/>
<path d="M930.032 666.01H910.467V563.977H930.032V666.01Z" fill="#A53D38"/>
<path d="M1125.5 666.01H1105.93V576.28H1125.5V666.01Z" fill="#A53D38"/>
<path d="M1047.24 666.01H1027.68V556.915H1047.24V666.01Z" fill="#F1A34F"/>
<path d="M1066.81 666.01H1047.24V550.224H1066.81V666.01Z" fill="#A53D38"/>
<path d="M1172.44 659.867L1153.81 666.01L1123.42 568.859L1142.05 562.722L1172.44 659.867Z" fill="#F1A34F"/>
<path d="M1103.64 598.596H1088.84V581.498H1103.64V598.596Z" fill="#F1A34F"/>
<path d="M1064.08 560.525H1049.15V556.455H1064.08V560.525Z" fill="#F1A34F"/>
<path d="M1064.08 567.381H1049.15V563.311H1064.08V567.381Z" fill="#F1A34F"/>
<path d="M1084.7 575.862H1068.35V573.83H1084.7V575.862Z" fill="white"/>
<path d="M920.208 586.611C916.215 586.611 912.982 583.371 912.982 579.384V568.288H927.435V579.384C927.435 583.371 924.196 586.611 920.208 586.611Z" fill="#35488B"/>
<path d="M986.88 562.38H970.324V560.142H986.88V562.38Z" fill="#35488B"/>
<path d="M967.514 664.155H951.047V660.621H967.514V664.155Z" fill="#35488B"/>
<path d="M967.514 659.449H951.047V655.921H967.514V659.449Z" fill="#35488B"/>
<path d="M959.281 652.752C955.347 652.752 952.16 649.56 952.16 645.626C952.16 641.691 955.347 638.499 959.281 638.499C963.221 638.499 966.407 641.691 966.407 645.626C966.407 649.56 963.221 652.752 959.281 652.752Z" fill="#35488B"/>
<path d="M947.007 625.306H932.624V590.969H947.007V625.306Z" fill="#A53D38"/>
<path d="M1005.97 587.153H990.591V583.625H1005.97V587.153Z" fill="white"/>
<path d="M1006.15 604.975H990.761V601.447H1006.15V604.975Z" fill="white"/>
<path d="M1120.75 591.04H1109.98C1108.51 591.04 1107.31 589.844 1107.31 588.372C1107.31 586.899 1108.51 585.704 1109.98 585.704H1120.75C1122.23 585.704 1123.42 586.899 1123.42 588.372C1123.42 589.844 1122.23 591.04 1120.75 591.04Z" fill="white"/>
<path d="M1250.51 690.912H1236.05V624.593H1250.51V690.912Z" fill="#A53D38"/>
<path d="M1322.72 690.912H1308.26V604.333H1322.72V690.912Z" fill="#35488B"/>
<path d="M1264.97 690.912H1250.51V624.593H1264.97V690.912Z" fill="#35488B"/>
<path d="M1308.26 690.912H1293.8V615.5H1308.26V690.912Z" fill="#F1A34F"/>
<path d="M1236.09 690.947H1223.85V610.317H1236.09V690.947Z" fill="#F1A34F"/>
<path d="M1337.18 690.912H1322.72V624.593H1337.18V690.912Z" fill="#A53D38"/>
<path d="M1279.34 690.912H1264.88V639.736H1279.34V690.912Z" fill="#F1A34F"/>
<path d="M1293.8 690.912H1279.34V605.334H1293.8V690.912Z" fill="#A53D38"/>
<path d="M1371.87 686.371L1358.1 690.912L1335.64 619.11L1349.41 614.575L1371.87 686.371Z" fill="#F1A34F"/>
<path d="M1321.02 688.897H1310.08V676.258H1321.02V688.897Z" fill="#A53D38"/>
<path d="M1291.78 612.95H1280.74V609.94H1291.78V612.95Z" fill="#F1A34F"/>
<path d="M1291.78 618.015H1280.74V615.011H1291.78V618.015Z" fill="#F1A34F"/>
<path d="M1307.02 624.287H1294.94V622.779H1307.02V624.287Z" fill="white"/>
<path d="M1234.72 614.322H1223.83V612.667H1234.72V614.322Z" fill="#35488B"/>
<path d="M1248.84 632.627H1237.46V630.024H1248.84V632.627Z" fill="white"/>
<path d="M1248.97 645.802H1237.59V643.193H1248.97V645.802Z" fill="white"/>
<path d="M1333.67 635.507H1325.71C1324.62 635.507 1323.74 634.624 1323.74 633.534C1323.74 632.444 1324.62 631.561 1325.71 631.561H1333.67C1334.76 631.561 1335.64 632.444 1335.64 633.534C1335.64 634.624 1334.76 635.507 1333.67 635.507Z" fill="white"/>
<path d="M948.332 955.236H929.467V842.177H948.332V955.236Z" fill="#35488B"/>
<path d="M1136.81 955.236H1117.94V842.177H1136.81V955.236Z" fill="#A53D38"/>
<path d="M986.055 955.236H967.191V850.04H986.055V955.236Z" fill="#35488B"/>
<path d="M929.467 955.189H910.602V856.801H929.467V955.189Z" fill="#F1A34F"/>
<path d="M1174.45 955.189H1155.58V856.801H1174.45V955.189Z" fill="#F1A34F"/>
<path d="M1117.94 955.189H1099.08V853.479H1117.94V955.189Z" fill="#F1A34F"/>
<path d="M1042.48 955.189H1023.62V849.999H1042.48V955.189" fill="#35488B"/>
<path d="M1061.35 955.189H1042.48V843.544H1061.35V955.189Z" fill="#F1A34F"/>
<path d="M1058.72 853.479H1044.32V849.551H1058.72V853.479Z" fill="#F1A34F"/>
<path d="M1058.72 860.088H1044.32V856.159H1058.72V860.088Z" fill="#F1A34F"/>
<path d="M919.991 878.628C916.145 878.628 913.023 875.507 913.023 871.661V860.959H926.958V871.661C926.958 875.507 923.842 878.628 919.991 878.628Z" fill="#35488B"/>
<path d="M984.283 855.27H968.316V853.108H984.283V855.27Z" fill="#35488B"/>
<path d="M1113.37 863.009H1102.98C1101.56 863.009 1100.41 861.86 1100.41 860.435C1100.41 859.016 1101.56 857.861 1102.98 857.861H1113.37C1114.79 857.861 1115.94 859.016 1115.94 860.435C1115.94 861.86 1114.79 863.009 1113.37 863.009Z" fill="white"/>
<path d="M1277.55 558.299H1296.42V474.759H1277.55V558.299Z" fill="#A53D38"/>
<path d="M1258.68 558.299H1277.55V471.779H1258.68V558.299Z" fill="#F1A34F"/>
<path d="M1334.1 558.346H1352.96V445.287H1334.1V558.346Z" fill="#35488B"/>
<path d="M1296.37 558.346H1315.24V453.15H1296.37V558.346Z" fill="#35488B"/>
<path d="M1315.24 558.322H1334.1V480.861H1315.24V558.322Z" fill="#A53D38"/>
<path d="M1352.96 558.299H1371.83V459.911H1352.96V558.299Z" fill="#F1A34F"/>
<path d="M1239.94 558.299H1258.81V453.109H1239.94V558.299Z" fill="#35488B"/>
<path d="M1223.85 558.299H1239.94V446.648H1223.85V558.299Z" fill="#F1A34F"/>
<path d="M1223.85 456.589H1238.11V452.661H1223.85V456.589Z" fill="#A53D38"/>
<path d="M1223.85 463.198H1238.11V459.269H1223.85V463.198Z" fill="#A53D38"/>
<path d="M1362.44 481.739C1366.28 481.739 1369.4 478.617 1369.4 474.765V464.069H1355.46V474.765C1355.46 478.617 1358.59 481.739 1362.44 481.739Z" fill="#35488B"/>
<path d="M1298.15 458.374H1314.11V456.218H1298.15V458.374Z" fill="#35488B"/>
<path d="M1316.82 556.508H1332.69V553.104H1316.82V556.508Z" fill="#35488B"/>
<path d="M1316.82 551.973H1332.69V548.569H1316.82V551.973Z" fill="#35488B"/>
<path d="M1324.76 545.512C1328.55 545.512 1331.63 542.438 1331.63 538.645C1331.63 534.852 1328.55 531.772 1324.76 531.772C1320.96 531.772 1317.88 534.852 1317.88 538.645C1317.88 542.438 1320.96 545.512 1324.76 545.512Z" fill="#35488B"/>
<path d="M1336.59 519.05H1350.46V485.944H1336.59V519.05Z" fill="#A53D38"/>
<path d="M1279.73 482.257H1294.56V478.858H1279.73V482.257Z" fill="white"/>
<path d="M1279.57 499.449H1294.4V496.045H1279.57V499.449Z" fill="white"/>
<path d="M1242.11 543.687H1256.63V556.508H1242.11V543.687Z" fill="white"/>
<path d="M943.349 307.974C943.349 307.974 956.271 292.897 944.144 283.326C944.144 283.326 935.292 277.966 928.071 278.402C928.071 278.402 938.302 295.559 934.992 297.261C931.682 298.969 924.967 277.324 924.967 277.324C924.967 277.324 904.819 275.369 898.334 278.485C898.334 278.485 915.561 292.585 911.933 293.421C908.305 294.263 889.7 280.428 889.7 280.428C889.7 280.428 870.947 283.615 871.942 295.058C872.943 306.502 879.404 310.03 882.249 309.729C885.088 309.423 901.703 303.08 902.062 305.406C902.427 307.733 892.427 315.342 885.424 315.696C885.424 315.696 898.646 330.279 907.434 326.073C916.221 321.862 916.969 315.189 922.446 312.692C927.924 310.189 932.6 310.195 930.339 312.745C928.077 315.295 918.165 317.775 915.031 323.317C911.898 328.859 909.089 332.599 918.182 331.233C927.27 329.86 942.053 323.211 942.701 315.59C943.349 307.974 943.349 307.974 943.349 307.974" fill="#82B378"/>
<path d="M881.16 295.364C881.16 295.364 932.1 293.403 943.349 307.974C943.349 307.974 945.835 315.425 953.491 322.21L954.687 325.461C954.687 325.461 945.858 316.155 942.701 315.59C942.701 315.59 947.637 297.544 881.16 295.364" fill="#82B378"/>
<path d="M953.491 322.21C953.491 322.21 964.428 330.296 965.188 344.744L963.203 344.921C963.203 344.921 959.711 329.978 953.397 324.142C947.083 318.299 953.491 322.21 953.491 322.21" fill="#82B378"/>
<path d="M988.523 289.015C988.523 289.015 967.968 277.507 977.563 261.887C977.563 261.887 985.231 252.299 993.453 249.831C993.453 249.831 989.071 273.125 993.453 273.673C997.835 274.22 996.468 247.363 996.468 247.363C996.468 247.363 1018.11 236.95 1026.61 237.775C1026.61 237.775 1013.18 260.521 1017.57 259.967C1021.95 259.42 1037.03 236.403 1037.03 236.403C1037.03 236.403 1059.22 232.292 1062.78 245.449C1066.34 258.601 1060.59 265.18 1057.3 265.998C1054.01 266.823 1032.91 266.546 1033.46 269.285C1034.01 272.03 1048.26 276.411 1056.2 273.944C1056.2 273.944 1047.44 295.594 1035.93 294.499C1024.42 293.403 1020.86 286.277 1013.73 285.729C1006.6 285.181 1001.4 287.101 1004.96 289.015C1008.52 290.935 1020.58 289.646 1026.34 294.54C1032.09 299.428 1036.75 302.444 1026.06 304.635C1015.37 306.826 996.192 305.46 992.358 297.238C988.523 289.015 988.523 289.015 988.523 289.015" fill="#A8D29F"/>
<path d="M1052.64 249.554C1052.64 249.554 995.096 268.189 988.523 289.015C988.523 289.015 988.794 298.333 983.04 309.023V313.134C983.04 313.134 989.071 299.158 992.357 297.237C992.357 297.237 979.477 279.15 1052.64 249.554Z" fill="#82B378"/>
<path d="M983.04 309.023C983.04 309.023 974.164 322.498 979.223 338.901L981.509 338.289C981.509 338.289 979.294 320.219 983.935 311.131C988.576 302.043 983.04 309.023 983.04 309.023Z" fill="#82B378"/>
<path d="M955.823 273.143C955.823 273.143 982.916 257.971 970.271 237.386C970.271 237.386 960.158 224.741 949.321 221.49C949.321 221.49 955.099 252.193 949.321 252.917C943.543 253.636 945.351 218.239 945.351 218.239C945.351 218.239 916.816 204.516 905.614 205.599C905.614 205.599 923.312 235.578 917.534 234.854C911.757 234.135 891.891 203.791 891.891 203.791C891.891 203.791 862.631 198.373 857.936 215.712C853.236 233.051 860.822 241.721 865.157 242.805C869.492 243.888 897.309 243.523 896.585 247.139C895.86 250.75 877.078 256.528 866.606 253.277C866.606 253.277 878.162 281.812 893.334 280.369C908.506 278.926 913.2 269.532 922.594 268.808C931.982 268.089 938.849 270.616 934.149 273.143C929.455 275.675 913.565 273.973 905.979 280.422C898.393 286.872 892.25 290.841 906.338 293.733C920.426 296.625 945.711 294.817 950.77 283.98C955.823 273.143 955.823 273.143 955.823 273.143" fill="#A8D29F"/>
<path d="M871.3 221.131C871.3 221.131 947.154 245.691 955.823 273.143C955.823 273.143 955.464 285.429 963.05 299.511V304.929C963.05 304.929 955.099 286.512 950.77 283.98C950.77 283.98 967.744 260.138 871.3 221.131Z" fill="#82B378"/>
<path d="M963.05 299.511C963.05 299.511 974.747 317.28 968.08 338.901L965.07 338.094C965.07 338.094 967.992 314.276 961.872 302.297C955.747 290.317 963.05 299.511 963.05 299.511" fill="#82B378"/>
<path d="M956.736 385.795C927.429 385.795 903.67 362.036 903.67 332.729H1009.8C1009.8 362.036 986.044 385.795 956.736 385.795Z" fill="#F1A34F"/>
<path d="M944.556 384.387C946.382 384.782 948.332 385.436 950.564 385.436C979.877 385.436 1003.34 362.036 1003.34 332.729H990.155C990.155 359.804 970.754 381.142 944.556 384.387Z" fill="#FFB973"/>
<path d="M902.463 334.354H1011.55V332.729H902.463V334.354Z" fill="#D86713"/>
<path d="M982.209 385.795H931.263C930.398 385.795 929.697 385.094 929.697 384.228C929.697 383.363 930.398 382.662 931.263 382.662H982.209C983.075 382.662 983.776 383.363 983.776 384.228C983.776 385.094 983.075 385.795 982.209 385.795Z" fill="#F1A34F"/>
</g>
<defs>
<clipPath id="clip0_171_649">
<rect width="1440" height="861" fill="white"/>
</clipPath>
</defs>
</svg>
