<svg width="86" height="86" viewBox="0 0 86 86" fill="none" xmlns="http://www.w3.org/2000/svg">
<g filter="url(#filter0_d_173_953)">
<rect x="4.44312" width="77.5" height="77.5" rx="38.75" fill="white"/>
</g>
<path d="M20.9094 10.5627H61.9102C62.5898 10.5627 63.2416 10.8327 63.7222 11.3133C64.2028 11.7939 64.4728 12.4457 64.4728 13.1253V23.3755C64.4728 24.0551 64.2028 24.7069 63.7222 25.1875C63.2416 25.6681 62.5898 25.9381 61.9102 25.9381H20.9094C20.2297 25.9381 19.5779 25.6681 19.0974 25.1875C18.6168 24.7069 18.3468 24.0551 18.3468 23.3755V13.1253C18.3468 12.4457 18.6168 11.7939 19.0974 11.3133C19.5779 10.8327 20.2297 10.5627 20.9094 10.5627M20.9094 31.0632H61.9102C62.5898 31.0632 63.2416 31.3331 63.7222 31.8137C64.2028 32.2943 64.4728 32.9461 64.4728 33.6257V35.3426L58.0664 32.4982L41.4098 39.8783V46.4385H20.9094C20.2297 46.4385 19.5779 46.1685 19.0974 45.6879C18.6168 45.2074 18.3468 44.5556 18.3468 43.8759V33.6257C18.3468 32.9461 18.6168 32.2943 19.0974 31.8137C19.5779 31.3331 20.2297 31.0632 20.9094 31.0632M20.9094 51.5636H41.4098C41.5635 57.3293 43.9723 62.8388 47.7137 66.9389H20.9094C20.2297 66.9389 19.5779 66.6689 19.0974 66.1884C18.6168 65.7078 18.3468 65.056 18.3468 64.3764V54.1261C18.3468 53.4465 18.6168 52.7947 19.0974 52.3141C19.5779 51.8336 20.2297 51.5636 20.9094 51.5636M33.7221 20.813H36.2847V15.6878H33.7221V20.813ZM33.7221 41.3134H36.2847V36.1883H33.7221V41.3134ZM33.7221 61.8138H36.2847V56.6887H33.7221V61.8138ZM23.4719 15.6878V20.813H28.597V15.6878H23.4719ZM23.4719 36.1883V41.3134H28.597V36.1883H23.4719ZM23.4719 56.6887V61.8138H28.597V56.6887H23.4719ZM58.0664 38.7508L69.5979 43.8759V51.5636C69.5979 58.6875 64.6778 65.3245 58.0664 66.9389C51.455 65.3245 46.5349 58.6875 46.5349 51.5636V43.8759L58.0664 38.7508ZM58.0664 43.7222L51.66 46.5922V53.4086C51.66 57.355 54.4019 61.045 58.0664 61.9675V43.7222V43.7222Z" fill="#1A2E40"/>
<defs>
<filter id="filter0_d_173_953" x="0.443115" y="0" width="85.5" height="85.5" filterUnits="userSpaceOnUse" color-interpolation-filters="sRGB">
<feFlood flood-opacity="0" result="BackgroundImageFix"/>
<feColorMatrix in="SourceAlpha" type="matrix" values="0 0 0 0 0 0 0 0 0 0 0 0 0 0 0 0 0 0 127 0" result="hardAlpha"/>
<feOffset dy="4"/>
<feGaussianBlur stdDeviation="2"/>
<feComposite in2="hardAlpha" operator="out"/>
<feColorMatrix type="matrix" values="0 0 0 0 0 0 0 0 0 0 0 0 0 0 0 0 0 0 0.25 0"/>
<feBlend mode="normal" in2="BackgroundImageFix" result="effect1_dropShadow_173_953"/>
<feBlend mode="normal" in="SourceGraphic" in2="effect1_dropShadow_173_953" result="shape"/>
</filter>
</defs>
</svg>
