<svg width="18" height="18" viewBox="0 0 18 18" fill="none" xmlns="http://www.w3.org/2000/svg">
<path d="M9 18C7.93333 18 6.925 17.825 5.975 17.475C5.025 17.125 4.16667 16.6417 3.4 16.025L1.425 18L0 16.575L1.975 14.6C1.35833 13.8333 0.875 12.9707 0.525 12.012C0.175 11.054 0 10.05 0 9C0 6.5 0.879333 4.375 2.638 2.625C4.396 0.875 6.51667 0 9 0H18V9C18 11.4833 17.125 13.6043 15.375 15.363C13.625 17.121 11.5 18 9 18ZM7.675 13.875L12.85 9.25C13.0167 9.1 13.0667 8.92067 13 8.712C12.9333 8.504 12.7833 8.38333 12.55 8.35L8.5 7.95L10.925 4.625C10.9917 4.54167 11.0207 4.454 11.012 4.362C11.004 4.27067 10.9667 4.18333 10.9 4.1C10.8167 4.01667 10.721 3.975 10.613 3.975C10.5043 3.975 10.4083 4.01667 10.325 4.1L5.175 8.725C5.00833 8.875 4.95833 9.054 5.025 9.262C5.09167 9.47067 5.24167 9.59167 5.475 9.625L9.525 10.025L7.075 13.35C7.025 13.4333 7 13.521 7 13.613C7 13.7043 7.04167 13.7917 7.125 13.875C7.20833 13.9583 7.3 14 7.4 14C7.5 14 7.59167 13.9583 7.675 13.875Z" fill="#1B8EF2"/>
</svg>
